<svg width="22" height="22" viewBox="0 0 22 22" fill="none" xmlns="http://www.w3.org/2000/svg">
<path d="M12.7188 0.5H20.9688C21.5383 0.5 22 1.00367 22 1.625V9.125C22 9.74633 21.5383 10.25 20.9688 10.25H12.7188C12.1492 10.25 11.6875 9.74633 11.6875 9.125V1.625C11.6875 1.00367 12.1492 0.5 12.7188 0.5ZM9.28125 0.5H1.03125C0.461699 0.5 0 1.00367 0 1.625V9.125C0 9.74633 0.461699 10.25 1.03125 10.25H9.28125C9.8508 10.25 10.3125 9.74633 10.3125 9.125V1.625C10.3125 1.00367 9.8508 0.5 9.28125 0.5ZM0 12.875V20.375C0 20.9963 0.461699 21.5 1.03125 21.5H9.28125C9.8508 21.5 10.3125 20.9963 10.3125 20.375V12.875C10.3125 12.2537 9.8508 11.75 9.28125 11.75H1.03125C0.461699 11.75 0 12.2537 0 12.875ZM12.7188 21.5H20.9688C21.5383 21.5 22 20.9963 22 20.375V12.875C22 12.2537 21.5383 11.75 20.9688 11.75H12.7188C12.1492 11.75 11.6875 12.2537 11.6875 12.875V20.375C11.6875 20.9963 12.1492 21.5 12.7188 21.5Z" fill="#DDDCD9"/>
</svg>
