<svg width="19" height="19" viewBox="0 0 19 19" fill="none" xmlns="http://www.w3.org/2000/svg">
<path d="M18.8692 17.3997L14.3643 12.8949C14.279 12.8095 14.1677 12.765 14.0489 12.765H13.5591C14.728 11.4106 15.4367 9.64797 15.4367 7.71837C15.4367 3.45471 11.982 0 7.71837 0C3.45471 0 0 3.45471 0 7.71837C0 11.982 3.45471 15.4367 7.71837 15.4367C9.64797 15.4367 11.4106 14.728 12.765 13.5591V14.0489C12.765 14.1677 12.8132 14.279 12.8949 14.3643L17.3997 18.8692C17.5741 19.0436 17.8562 19.0436 18.0306 18.8692L18.8692 18.0306C19.0436 17.8562 19.0436 17.5741 18.8692 17.3997ZM7.71837 13.6556C4.43806 13.6556 1.78116 10.9987 1.78116 7.71837C1.78116 4.43806 4.43806 1.78116 7.71837 1.78116C10.9987 1.78116 13.6556 4.43806 13.6556 7.71837C13.6556 10.9987 10.9987 13.6556 7.71837 13.6556Z" fill="#00D6B6"/>
</svg>
