<svg width="22" height="22" viewBox="0 0 22 22" fill="none" xmlns="http://www.w3.org/2000/svg">
<g clip-path="url(#clip0_370_2262)">
<path d="M2.82923 9.79374C3.49303 5.28281 7.68797 2.16409 12.1989 2.8279C13.7379 3.05436 15.1817 3.71106 16.3638 4.72232L15.2996 5.78647C14.943 6.14323 14.943 6.72161 15.2998 7.07828C15.4711 7.24947 15.7033 7.34568 15.9455 7.34572H20.1345C20.639 7.34572 21.048 6.93677 21.048 6.43229V2.24322C21.0478 1.73874 20.6388 1.32988 20.1343 1.32996C19.8922 1.33 19.6599 1.42622 19.4887 1.5974L18.3012 2.78487C13.7728 -1.25178 6.82939 -0.853143 2.79275 3.67526C1.36268 5.27951 0.434648 7.26805 0.12362 9.39455C0.000989787 10.1484 0.512704 10.859 1.26655 10.9816C1.33446 10.9927 1.40306 10.9986 1.47186 10.9995C2.16157 10.992 2.74051 10.4778 2.82923 9.79374Z" fill="#ACACAC" fill-opacity="0.4"/>
<path d="M20.5281 10.9995C19.8384 11.007 19.2595 11.5212 19.1708 12.2053C18.507 16.7162 14.312 19.8349 9.80111 19.1711C8.26207 18.9447 6.81835 18.288 5.63623 17.2767L6.70038 16.2126C7.05705 15.8558 7.05697 15.2774 6.70017 14.9208C6.52894 14.7496 6.2967 14.6534 6.05456 14.6533H1.86558C1.3611 14.6533 0.952148 15.0623 0.952148 15.5668V19.7558C0.952277 20.2603 1.36131 20.6692 1.86579 20.6691C2.10793 20.669 2.34017 20.5728 2.5114 20.4016L3.69886 19.2142C8.22619 23.2512 15.169 22.8539 19.2062 18.3265C20.637 16.7219 21.5655 14.7327 21.8764 12.6054C21.9995 11.8516 21.4883 11.1407 20.7345 11.0175C20.6663 11.0064 20.5973 11.0003 20.5281 10.9995Z" fill="#ACACAC" fill-opacity="0.4"/>
</g>
<defs>
<clipPath id="clip0_370_2262">
<rect width="22" height="22" fill="white"/>
</clipPath>
</defs>
</svg>
