<svg width="18" height="19" viewBox="0 0 18 19" fill="none" xmlns="http://www.w3.org/2000/svg">
<path d="M12.2117 5.9375C11.6855 2.62363 10.4444 0.296875 9 0.296875C7.55565 0.296875 6.31452 2.62363 5.78831 5.9375H12.2117ZM5.51613 9.5C5.51613 10.3238 5.55968 11.1143 5.63589 11.875H12.3605C12.4367 11.1143 12.4802 10.3238 12.4802 9.5C12.4802 8.67617 12.4367 7.88574 12.3605 7.125H5.63589C5.55968 7.88574 5.51613 8.67617 5.51613 9.5ZM17.2996 5.9375C16.2617 3.41777 14.1605 1.46953 11.5657 0.682812C12.4512 1.93711 13.0609 3.82598 13.3802 5.9375H17.2996ZM6.43065 0.682812C3.83952 1.46953 1.73468 3.41777 0.700403 5.9375H4.61976C4.93548 3.82598 5.54516 1.93711 6.43065 0.682812ZM17.6879 7.125H13.5254C13.6016 7.9043 13.6452 8.70215 13.6452 9.5C13.6452 10.2979 13.6016 11.0957 13.5254 11.875H17.6843C17.8839 11.1143 17.9964 10.3238 17.9964 9.5C17.9964 8.67617 17.8839 7.88574 17.6879 7.125ZM4.35484 9.5C4.35484 8.70215 4.39839 7.9043 4.4746 7.125H0.312097C0.116129 7.88574 0 8.67617 0 9.5C0 10.3238 0.116129 11.1143 0.312097 11.875H4.47097C4.39839 11.0957 4.35484 10.2979 4.35484 9.5ZM5.78831 13.0625C6.31452 16.3764 7.55565 18.7031 9 18.7031C10.4444 18.7031 11.6855 16.3764 12.2117 13.0625H5.78831ZM11.5694 18.3172C14.1605 17.5305 16.2653 15.5822 17.3032 13.0625H13.3839C13.0645 15.174 12.4548 17.0629 11.5694 18.3172ZM0.700403 13.0625C1.73831 15.5822 3.83952 17.5305 6.43427 18.3172C5.54879 17.0629 4.93911 15.174 4.61976 13.0625H0.700403Z" fill="#D6D6D6"/>
</svg>
