<svg width="24" height="19" viewBox="0 0 24 19" fill="none" xmlns="http://www.w3.org/2000/svg">
<path d="M20.3329 11.8991V17.9813C20.3329 18.5459 19.8871 19 19.3328 19H14.499C14.224 19 13.999 18.7708 13.999 18.4907V13.737C13.999 13.4568 13.7739 13.2276 13.4989 13.2276H10.4986C10.2236 13.2276 9.99855 13.4568 9.99855 13.737V18.4907C9.99855 18.7708 9.77353 19 9.4985 19H4.66467C4.11045 19 3.66457 18.5459 3.66457 17.9813V11.8991C3.66457 11.7463 3.73125 11.602 3.84792 11.5044L11.6821 4.9341C11.8654 4.7813 12.1321 4.7813 12.3196 4.9341L20.1538 11.5044C20.2663 11.602 20.3329 11.7463 20.3329 11.8991ZM23.8166 9.31431L20.3329 6.38992V0.511449C20.3329 0.231319 20.1079 0.0021223 19.8329 0.0021223H17.4993C17.2243 0.0021223 16.9993 0.231319 16.9993 0.511449V3.59287L13.2697 0.46476C12.5321 -0.15492 11.4654 -0.15492 10.7278 0.46476L0.180881 9.31431C-0.0316404 9.49257 -0.06081 9.81515 0.114208 10.0316L1.17682 11.3474C1.35183 11.5638 1.66853 11.5935 1.88106 11.4153L11.6821 3.1939C11.8654 3.0411 12.1321 3.0411 12.3196 3.1939L22.1206 11.4153C22.3332 11.5935 22.6499 11.5638 22.8249 11.3474L23.8875 10.0316C24.0625 9.8109 24.0292 9.49257 23.8166 9.31431V9.31431Z" fill="#00D6B6"/>
</svg>
