<svg width="23" height="23" viewBox="0 0 23 23" fill="none" xmlns="http://www.w3.org/2000/svg">
<mask id="path-1-inside-1_892_12700" fill="white">
<path d="M20.8642 15.1697C20.7928 15.1631 20.7194 15.151 20.646 15.151C19.9973 15.1495 19.3487 15.1485 18.7001 15.151C18.4494 15.152 18.415 15.206 18.5021 15.4358C18.7219 16.0129 18.5735 16.5597 18.0596 16.9011C16.0468 18.2381 13.8716 19.1879 11.466 19.5413C10.948 19.6175 10.4021 19.61 9.88314 19.5393C9.48769 19.4858 9.08008 19.3277 8.73678 19.1187C7.16358 18.1618 5.7281 17.0192 4.43287 15.7155C4.02729 15.3075 3.63437 15.1237 3.05511 15.1525C2.05559 15.202 1.05202 15.1661 0.0195919 15.1661C0.0150348 15.0672 0.00794623 14.9793 0.00794623 14.891C0.00743988 13.4964 -0.0118011 12.1012 0.0114906 10.7072C0.0565551 8.03409 1.0019 5.70386 2.81511 3.74324C4.67085 1.73668 6.95294 0.483963 9.67807 0.114863C13.1318 -0.352696 16.1684 0.616252 18.8135 2.85559C18.852 2.88841 18.8879 2.92375 18.9264 2.95657C19.0722 3.08028 19.1441 3.00707 19.1538 2.85508C19.1664 2.65412 19.1573 2.45216 19.1578 2.25019C19.1588 1.84069 19.3598 1.59883 19.694 1.6054C20.0105 1.61146 20.1842 1.83413 20.1852 2.23403C20.1872 3.05756 20.1852 3.88058 20.1933 4.70411C20.1953 4.93133 20.088 5.03131 19.8758 5.03181C18.9745 5.03434 18.0727 5.03736 17.1714 5.02979C16.8798 5.02727 16.6302 4.78137 16.6312 4.53244C16.6322 4.26938 16.86 4.08255 17.1897 4.07599C17.5097 4.06943 17.8302 4.07599 18.1487 4.05327C18.2535 4.04569 18.3527 3.96642 18.4545 3.91997C18.4008 3.82555 18.3679 3.7074 18.2904 3.63974C16.0904 1.72506 13.5293 0.806104 10.6178 1.0621C6.65116 1.411 3.82121 3.47614 2.00749 6.97779C1.99281 7.00606 1.98471 7.03838 1.96192 7.10048C2.05711 7.10705 2.13509 7.11664 2.21256 7.11664C3.99033 7.11765 5.76759 7.11916 7.54536 7.11361C7.66536 7.11311 7.7965 7.0813 7.90385 7.02727C9.13527 6.40773 10.3652 5.78415 11.591 5.1535C11.9597 4.96365 12.3035 4.96667 12.67 5.1641C13.8098 5.77758 14.9587 6.37541 16.0995 6.98688C16.3132 7.10149 16.5243 7.15602 16.7694 7.15501C18.5973 7.14694 20.4257 7.15047 22.2536 7.15047C22.3447 7.15047 22.4364 7.15047 22.5579 7.15047C22.5817 7.65994 22.6222 8.15123 22.6242 8.64252C22.6293 9.87605 22.6647 11.1126 22.6014 12.3431C22.4754 14.796 21.525 16.9349 19.9204 18.7773C18.092 20.8768 15.7927 22.181 13.0321 22.6057C9.49629 23.1495 6.3914 22.1735 3.69412 19.8528C3.63589 19.8023 3.56804 19.7625 3.45867 19.6852C3.43386 19.9392 3.41411 20.1356 3.39538 20.332C3.37867 20.5072 3.37715 20.6855 3.34525 20.8581C3.29158 21.1515 3.06828 21.3464 2.83587 21.3242C2.57105 21.2989 2.34218 21.0374 2.34168 20.7491C2.33965 19.968 2.34117 19.1863 2.34117 18.4052C2.34067 17.6837 2.27282 17.716 3.01967 17.721C3.78577 17.7261 4.55237 17.7306 5.31847 17.7402C5.4172 17.7412 5.52201 17.7539 5.61316 17.7897C5.84354 17.8801 5.99342 18.1401 5.95342 18.3497C5.90835 18.585 5.68354 18.7698 5.42226 18.7683C5.21213 18.7673 5.00251 18.7435 4.79187 18.7365C4.63541 18.7309 4.47895 18.7354 4.31084 18.7693C5.08656 19.5716 5.98532 20.1856 6.98382 20.6506C9.16464 21.6675 11.4396 21.919 13.781 21.3661C16.1025 20.8183 18.019 19.5994 19.5148 17.7402C20.1482 16.9515 20.8698 15.567 20.8642 15.1697ZM1.06873 14.0578C1.91736 14.0578 2.73308 14.0578 3.5488 14.0578C3.61614 14.0578 3.68804 14.0725 3.74982 14.0533C3.81311 14.0336 3.8926 13.9942 3.91995 13.9407C4.46173 12.8758 5.69164 12.9026 6.44406 13.563C7.92309 14.8612 9.42439 16.1341 10.9222 17.411C11.1358 17.5933 11.2487 17.7877 11.2452 18.079C11.2396 18.5102 11.4903 18.6875 11.9075 18.5845C13.8483 18.1048 15.6747 17.3499 17.3831 16.3123C17.6656 16.1406 17.7041 15.9462 17.4955 15.6948C17.259 15.4105 17.016 15.1313 16.7724 14.8531C15.0742 12.9096 13.3769 10.9657 11.6751 9.02576C11.4179 8.7324 11.3206 8.7228 10.9723 8.88084C10.2224 9.22116 9.47604 9.57007 8.7221 9.9018C7.86587 10.2785 6.84104 9.80182 6.65875 8.93336C6.60862 8.69503 6.65116 8.43803 6.65116 8.18607C6.62685 8.18051 6.60306 8.16941 6.57875 8.16941C4.96149 8.1684 3.34373 8.16587 1.72647 8.17445C1.65812 8.17496 1.54672 8.26534 1.52951 8.333C1.39887 8.85307 1.22519 9.37264 1.18266 9.9018C1.10266 10.896 1.09911 11.8962 1.07076 12.894C1.06013 13.2701 1.06873 13.6468 1.06873 14.0578ZM21.5275 8.16739C21.3751 8.16739 21.2829 8.16739 21.1908 8.16739C19.649 8.16739 18.1072 8.16991 16.5653 8.16335C16.4296 8.16284 16.2813 8.12851 16.1603 8.06741C14.9516 7.45847 13.746 6.84247 12.543 6.22293C12.2959 6.09568 12.0624 6.05529 11.7996 6.18657C10.514 6.82984 9.22388 7.46453 7.93676 8.10427C7.66941 8.23707 7.56257 8.47791 7.66232 8.69857C7.76055 8.91619 8.01929 8.99142 8.29373 8.88488C9.28971 8.49963 10.2857 8.11538 11.2817 7.73063C11.7196 7.56148 11.7515 7.57057 12.0584 7.92351C13.8068 9.93563 15.5567 11.9462 17.3011 13.9614C17.4049 14.0816 17.5066 14.131 17.6651 14.1285C18.8358 14.1108 20.0064 14.0982 21.1771 14.0957C21.3538 14.0952 21.4039 14.0179 21.4404 13.87C21.7042 12.793 21.8055 11.7003 21.7371 10.5961C21.6875 9.79223 21.5999 8.99142 21.5275 8.16739ZM10.1272 18.3739C10.2315 18.2361 10.2391 18.0472 10.1475 17.9008C10.0867 17.8034 10.028 17.7175 9.95251 17.6514C9.61225 17.3519 9.24768 17.0803 8.89324 16.797C7.84309 15.9579 6.79344 15.1177 5.74227 14.28C5.43847 14.0381 5.08909 14.072 4.90782 14.3547C4.7463 14.6067 4.81769 14.9016 5.09972 15.1252C6.04051 15.8725 6.98231 16.6178 7.9236 17.3646C8.39095 17.7352 8.85881 18.1053 9.32414 18.4784C9.51199 18.6289 9.72972 18.691 9.93175 18.5688C10.0062 18.5244 10.0664 18.4547 10.1272 18.3739Z"/>
</mask>
<path d="M20.8642 15.1697C20.7928 15.1631 20.7194 15.151 20.646 15.151C19.9973 15.1495 19.3487 15.1485 18.7001 15.151C18.4494 15.152 18.415 15.206 18.5021 15.4358C18.7219 16.0129 18.5735 16.5597 18.0596 16.9011C16.0468 18.2381 13.8716 19.1879 11.466 19.5413C10.948 19.6175 10.4021 19.61 9.88314 19.5393C9.48769 19.4858 9.08008 19.3277 8.73678 19.1187C7.16358 18.1618 5.7281 17.0192 4.43287 15.7155C4.02729 15.3075 3.63437 15.1237 3.05511 15.1525C2.05559 15.202 1.05202 15.1661 0.0195919 15.1661C0.0150348 15.0672 0.00794623 14.9793 0.00794623 14.891C0.00743988 13.4964 -0.0118011 12.1012 0.0114906 10.7072C0.0565551 8.03409 1.0019 5.70386 2.81511 3.74324C4.67085 1.73668 6.95294 0.483963 9.67807 0.114863C13.1318 -0.352696 16.1684 0.616252 18.8135 2.85559C18.852 2.88841 18.8879 2.92375 18.9264 2.95657C19.0722 3.08028 19.1441 3.00707 19.1538 2.85508C19.1664 2.65412 19.1573 2.45216 19.1578 2.25019C19.1588 1.84069 19.3598 1.59883 19.694 1.6054C20.0105 1.61146 20.1842 1.83413 20.1852 2.23403C20.1872 3.05756 20.1852 3.88058 20.1933 4.70411C20.1953 4.93133 20.088 5.03131 19.8758 5.03181C18.9745 5.03434 18.0727 5.03736 17.1714 5.02979C16.8798 5.02727 16.6302 4.78137 16.6312 4.53244C16.6322 4.26938 16.86 4.08255 17.1897 4.07599C17.5097 4.06943 17.8302 4.07599 18.1487 4.05327C18.2535 4.04569 18.3527 3.96642 18.4545 3.91997C18.4008 3.82555 18.3679 3.7074 18.2904 3.63974C16.0904 1.72506 13.5293 0.806104 10.6178 1.0621C6.65116 1.411 3.82121 3.47614 2.00749 6.97779C1.99281 7.00606 1.98471 7.03838 1.96192 7.10048C2.05711 7.10705 2.13509 7.11664 2.21256 7.11664C3.99033 7.11765 5.76759 7.11916 7.54536 7.11361C7.66536 7.11311 7.7965 7.0813 7.90385 7.02727C9.13527 6.40773 10.3652 5.78415 11.591 5.1535C11.9597 4.96365 12.3035 4.96667 12.67 5.1641C13.8098 5.77758 14.9587 6.37541 16.0995 6.98688C16.3132 7.10149 16.5243 7.15602 16.7694 7.15501C18.5973 7.14694 20.4257 7.15047 22.2536 7.15047C22.3447 7.15047 22.4364 7.15047 22.5579 7.15047C22.5817 7.65994 22.6222 8.15123 22.6242 8.64252C22.6293 9.87605 22.6647 11.1126 22.6014 12.3431C22.4754 14.796 21.525 16.9349 19.9204 18.7773C18.092 20.8768 15.7927 22.181 13.0321 22.6057C9.49629 23.1495 6.3914 22.1735 3.69412 19.8528C3.63589 19.8023 3.56804 19.7625 3.45867 19.6852C3.43386 19.9392 3.41411 20.1356 3.39538 20.332C3.37867 20.5072 3.37715 20.6855 3.34525 20.8581C3.29158 21.1515 3.06828 21.3464 2.83587 21.3242C2.57105 21.2989 2.34218 21.0374 2.34168 20.7491C2.33965 19.968 2.34117 19.1863 2.34117 18.4052C2.34067 17.6837 2.27282 17.716 3.01967 17.721C3.78577 17.7261 4.55237 17.7306 5.31847 17.7402C5.4172 17.7412 5.52201 17.7539 5.61316 17.7897C5.84354 17.8801 5.99342 18.1401 5.95342 18.3497C5.90835 18.585 5.68354 18.7698 5.42226 18.7683C5.21213 18.7673 5.00251 18.7435 4.79187 18.7365C4.63541 18.7309 4.47895 18.7354 4.31084 18.7693C5.08656 19.5716 5.98532 20.1856 6.98382 20.6506C9.16464 21.6675 11.4396 21.919 13.781 21.3661C16.1025 20.8183 18.019 19.5994 19.5148 17.7402C20.1482 16.9515 20.8698 15.567 20.8642 15.1697ZM1.06873 14.0578C1.91736 14.0578 2.73308 14.0578 3.5488 14.0578C3.61614 14.0578 3.68804 14.0725 3.74982 14.0533C3.81311 14.0336 3.8926 13.9942 3.91995 13.9407C4.46173 12.8758 5.69164 12.9026 6.44406 13.563C7.92309 14.8612 9.42439 16.1341 10.9222 17.411C11.1358 17.5933 11.2487 17.7877 11.2452 18.079C11.2396 18.5102 11.4903 18.6875 11.9075 18.5845C13.8483 18.1048 15.6747 17.3499 17.3831 16.3123C17.6656 16.1406 17.7041 15.9462 17.4955 15.6948C17.259 15.4105 17.016 15.1313 16.7724 14.8531C15.0742 12.9096 13.3769 10.9657 11.6751 9.02576C11.4179 8.7324 11.3206 8.7228 10.9723 8.88084C10.2224 9.22116 9.47604 9.57007 8.7221 9.9018C7.86587 10.2785 6.84104 9.80182 6.65875 8.93336C6.60862 8.69503 6.65116 8.43803 6.65116 8.18607C6.62685 8.18051 6.60306 8.16941 6.57875 8.16941C4.96149 8.1684 3.34373 8.16587 1.72647 8.17445C1.65812 8.17496 1.54672 8.26534 1.52951 8.333C1.39887 8.85307 1.22519 9.37264 1.18266 9.9018C1.10266 10.896 1.09911 11.8962 1.07076 12.894C1.06013 13.2701 1.06873 13.6468 1.06873 14.0578ZM21.5275 8.16739C21.3751 8.16739 21.2829 8.16739 21.1908 8.16739C19.649 8.16739 18.1072 8.16991 16.5653 8.16335C16.4296 8.16284 16.2813 8.12851 16.1603 8.06741C14.9516 7.45847 13.746 6.84247 12.543 6.22293C12.2959 6.09568 12.0624 6.05529 11.7996 6.18657C10.514 6.82984 9.22388 7.46453 7.93676 8.10427C7.66941 8.23707 7.56257 8.47791 7.66232 8.69857C7.76055 8.91619 8.01929 8.99142 8.29373 8.88488C9.28971 8.49963 10.2857 8.11538 11.2817 7.73063C11.7196 7.56148 11.7515 7.57057 12.0584 7.92351C13.8068 9.93563 15.5567 11.9462 17.3011 13.9614C17.4049 14.0816 17.5066 14.131 17.6651 14.1285C18.8358 14.1108 20.0064 14.0982 21.1771 14.0957C21.3538 14.0952 21.4039 14.0179 21.4404 13.87C21.7042 12.793 21.8055 11.7003 21.7371 10.5961C21.6875 9.79223 21.5999 8.99142 21.5275 8.16739ZM10.1272 18.3739C10.2315 18.2361 10.2391 18.0472 10.1475 17.9008C10.0867 17.8034 10.028 17.7175 9.95251 17.6514C9.61225 17.3519 9.24768 17.0803 8.89324 16.797C7.84309 15.9579 6.79344 15.1177 5.74227 14.28C5.43847 14.0381 5.08909 14.072 4.90782 14.3547C4.7463 14.6067 4.81769 14.9016 5.09972 15.1252C6.04051 15.8725 6.98231 16.6178 7.9236 17.3646C8.39095 17.7352 8.85881 18.1053 9.32414 18.4784C9.51199 18.6289 9.72972 18.691 9.93175 18.5688C10.0062 18.5244 10.0664 18.4547 10.1272 18.3739Z" fill="black" stroke="black" stroke-width="4" mask="url(#path-1-inside-1_892_12700)"/>
</svg>
