<?xml version="1.0" encoding="UTF-8" standalone="no"?>
<!DOCTYPE svg PUBLIC "-//W3C//DTD SVG 1.1//EN" "http://www.w3.org/Graphics/SVG/1.1/DTD/svg11.dtd">
<svg width="100%" height="100%" viewBox="0 0 49 49" version="1.1" xmlns="http://www.w3.org/2000/svg" xmlns:xlink="http://www.w3.org/1999/xlink" xml:space="preserve" xmlns:serif="http://www.serif.com/" style="fill-rule:evenodd;clip-rule:evenodd;">
    <g>
        <g transform="matrix(1.68966,0,0,1.68966,-16.8966,-13.5172)">
            <circle cx="24.5" cy="22.5" r="14.5" style="fill:white;"/>
        </g>
        <g transform="matrix(1.68966,0,0,1.68966,-16.8966,-13.5172)">
            <circle cx="24.5" cy="22.5" r="14" style="fill:none;stroke:black;stroke-width:1px;"/>
        </g>
    </g>
    <g transform="matrix(1.68966,0,0,1.68966,-16.8966,-13.5172)">
        <path d="M32.263,24.749C32.328,24.419 32.328,24.081 32.263,23.751L32.908,23.402C32.983,23.362 33.015,23.28 32.99,23.202C32.823,22.696 32.535,22.237 32.16,21.857C32.103,21.798 32.01,21.784 31.935,21.824L31.29,22.173C31.017,21.956 30.705,21.787 30.368,21.674L30.368,20.976C30.368,20.896 30.308,20.826 30.225,20.809C29.668,20.692 29.1,20.697 28.57,20.809C28.488,20.826 28.427,20.896 28.427,20.976L28.427,21.674C28.09,21.787 27.778,21.956 27.505,22.173L26.86,21.824C26.788,21.784 26.693,21.798 26.635,21.857C26.26,22.237 25.973,22.696 25.805,23.202C25.78,23.28 25.815,23.362 25.888,23.402L26.533,23.751C26.468,24.081 26.468,24.419 26.533,24.749L25.888,25.098C25.813,25.138 25.78,25.22 25.805,25.298C25.973,25.804 26.26,26.261 26.635,26.643C26.693,26.702 26.785,26.716 26.86,26.676L27.505,26.327C27.778,26.545 28.09,26.713 28.427,26.826L28.427,27.524C28.427,27.604 28.488,27.674 28.57,27.691C29.128,27.808 29.695,27.803 30.225,27.691C30.308,27.674 30.368,27.604 30.368,27.524L30.368,26.826C30.705,26.713 31.017,26.545 31.29,26.327L31.935,26.676C32.008,26.716 32.103,26.702 32.16,26.643C32.535,26.263 32.823,25.804 32.99,25.298C33.015,25.22 32.98,25.138 32.908,25.098L32.263,24.749ZM29.4,25.387C28.73,25.387 28.188,24.876 28.188,24.25C28.188,23.624 28.733,23.113 29.4,23.113C30.068,23.113 30.613,23.624 30.613,24.25C30.613,24.876 30.07,25.387 29.4,25.387ZM22.6,22C24.368,22 25.8,20.657 25.8,19C25.8,17.343 24.368,16 22.6,16C20.833,16 19.4,17.343 19.4,19C19.4,20.657 20.833,22 22.6,22ZM27.63,27.309C27.573,27.281 27.515,27.248 27.46,27.217L27.263,27.325C27.113,27.405 26.943,27.449 26.773,27.449C26.5,27.449 26.238,27.341 26.05,27.154C25.593,26.69 25.243,26.125 25.045,25.523C24.908,25.108 25.093,24.67 25.493,24.452L25.69,24.344C25.688,24.283 25.688,24.222 25.69,24.161L25.493,24.053C25.093,23.837 24.908,23.397 25.045,22.982C25.068,22.914 25.1,22.846 25.125,22.778C25.03,22.771 24.938,22.75 24.84,22.75L24.423,22.75C23.868,22.989 23.25,23.125 22.6,23.125C21.95,23.125 21.335,22.989 20.778,22.75L20.36,22.75C18.505,22.75 17,24.161 17,25.9L17,26.875C17,27.496 17.538,28 18.2,28L27,28C27.253,28 27.488,27.925 27.68,27.801C27.65,27.712 27.63,27.62 27.63,27.524L27.63,27.309Z" style="fill-rule:nonzero;"/>
    </g>
</svg>
