<svg width="22" height="22" viewBox="0 0 22 22" fill="none" xmlns="http://www.w3.org/2000/svg">
<path d="M22 4.58333L22 17.4167C21.9985 18.6318 21.5152 19.7967 20.656 20.656C19.7967 21.5152 18.6318 21.9985 17.4167 22L4.58333 22C3.3682 21.9985 2.20326 21.5152 1.34403 20.656C0.484808 19.7967 0.00145539 18.6318 -1.97584e-07 17.4167L-7.5082e-07 4.58334C0.00145473 3.36821 0.484808 2.20326 1.34403 1.34404C2.20326 0.48481 3.3682 0.00145777 4.58333 2.18104e-06L17.4167 1.61225e-06C18.6318 0.00145709 19.7967 0.484809 20.656 1.34404C21.5152 2.20326 21.9985 3.36821 22 4.58333V4.58333ZM1.83333 17.4167C1.83333 18.146 2.12306 18.8455 2.63879 19.3612C3.15451 19.8769 3.85399 20.1667 4.58333 20.1667L17.4167 20.1667C18.146 20.1667 18.8455 19.8769 19.3612 19.3612C19.8769 18.8455 20.1667 18.146 20.1667 17.4167L20.1667 4.58333C20.1667 3.85399 19.8769 3.15452 19.3612 2.63879C18.8455 2.12307 18.146 1.83333 17.4167 1.83333L4.58333 1.83334C3.85399 1.83334 3.15451 2.12307 2.63879 2.63879C2.12306 3.15452 1.83333 3.85399 1.83333 4.58334L1.83333 17.4167ZM14.6667 11C14.6674 11.671 14.4221 12.319 13.9773 12.8214C13.7106 13.1212 13.4512 13.4053 13.2651 13.5914L10.6764 16.225C10.5039 16.3871 10.2754 16.4761 10.0387 16.4735C9.802 16.4709 9.57549 16.3769 9.40658 16.211C9.23767 16.0452 9.13946 15.8205 9.1325 15.5839C9.12554 15.3473 9.21038 15.1171 9.36925 14.9417L11.9625 12.3017C12.1339 12.1293 12.3667 11.8727 12.6042 11.6059C12.7519 11.4385 12.8334 11.2228 12.8334 10.9995C12.8334 10.7762 12.7519 10.5606 12.6042 10.3932C12.3677 10.1273 12.1348 9.87067 11.9689 9.70383L9.36925 7.05834C9.27924 6.97378 9.20725 6.8719 9.1576 6.75883C9.10794 6.64576 9.08164 6.52382 9.08029 6.40033C9.07893 6.27685 9.10254 6.15436 9.14969 6.04022C9.19685 5.92608 9.26658 5.82265 9.35471 5.73613C9.44283 5.64962 9.54753 5.5818 9.66251 5.53675C9.7775 5.4917 9.9004 5.47035 10.0238 5.47398C10.1473 5.47761 10.2687 5.50615 10.3809 5.55787C10.493 5.6096 10.5935 5.68345 10.6764 5.775L13.2697 8.41408C13.453 8.59742 13.7097 8.87883 13.9746 9.17767C14.4208 9.67978 14.6671 10.3283 14.6667 11V11Z" fill="black"/>
</svg>
