<svg width="23" height="23" viewBox="0 0 23 23" fill="none" xmlns="http://www.w3.org/2000/svg">
<path d="M1.11144e-06 18.2083L1.6979e-06 4.79167C0.00152382 3.5213 0.506845 2.30341 1.40513 1.40513C2.30341 0.506844 3.52131 0.00152085 4.79167 -7.95911e-07L18.2083 -2.0945e-07C19.4787 0.00152154 20.6966 0.506845 21.5949 1.40513C22.4932 2.30341 22.9985 3.52131 23 4.79167L23 18.2083C22.9985 19.4787 22.4932 20.6966 21.5949 21.5949C20.6966 22.4932 19.4787 22.9985 18.2083 23L4.79167 23C3.52131 22.9985 2.30341 22.4932 1.40513 21.5949C0.506845 20.6966 0.00152312 19.4787 1.11144e-06 18.2083ZM21.0833 4.79167C21.0833 4.02917 20.7804 3.2979 20.2413 2.75873C19.7021 2.21957 18.9708 1.91667 18.2083 1.91667L4.79167 1.91667C4.02917 1.91667 3.2979 2.21957 2.75874 2.75873C2.21957 3.2979 1.91667 4.02917 1.91667 4.79167L1.91667 18.2083C1.91667 18.9708 2.21957 19.7021 2.75873 20.2413C3.2979 20.7804 4.02917 21.0833 4.79167 21.0833L18.2083 21.0833C18.9708 21.0833 19.7021 20.7804 20.2413 20.2413C20.7804 19.7021 21.0833 18.9708 21.0833 18.2083L21.0833 4.79167ZM7.66667 11.5C7.66595 10.7985 7.92234 10.121 8.38733 9.59579C8.66621 9.28242 8.93742 8.98533 9.13196 8.79079L11.8383 6.0375C12.0186 5.86806 12.2576 5.77495 12.505 5.77768C12.7525 5.7804 12.9893 5.87873 13.1659 6.0521C13.3424 6.22547 13.4451 6.46042 13.4524 6.70778C13.4597 6.95514 13.371 7.19572 13.2049 7.37917L10.4938 10.1392C10.3145 10.3193 10.0711 10.5877 9.82292 10.8665C9.66849 11.0416 9.58328 11.267 9.58328 11.5005C9.58328 11.7339 9.66849 11.9593 9.82292 12.1344C10.0702 12.4123 10.3136 12.6807 10.487 12.8551L13.2049 15.6208C13.299 15.7092 13.3742 15.8157 13.4261 15.934C13.4781 16.0522 13.5056 16.1796 13.507 16.3087C13.5084 16.4378 13.4837 16.5659 13.4344 16.6852C13.3851 16.8046 13.3122 16.9127 13.2201 17.0031C13.1279 17.0936 13.0185 17.1645 12.8983 17.2116C12.7781 17.2587 12.6496 17.281 12.5205 17.2772C12.3915 17.2734 12.2645 17.2436 12.1473 17.1895C12.03 17.1354 11.9249 17.0582 11.8383 16.9625L9.12717 14.2035C8.9355 14.0118 8.66717 13.7176 8.39021 13.4052C7.92372 12.8802 7.66624 12.2023 7.66667 11.5Z" fill="black"/>
</svg>
