<svg width="334" height="334" viewBox="0 0 334 334" fill="none" xmlns="http://www.w3.org/2000/svg">
<g clip-path="url(#clip0_1581_12105)">
<path d="M56.613 250.5H274.492C281.198 250.5 287.805 248.885 293.754 245.792C299.703 242.698 304.82 238.217 308.671 232.728C312.522 227.239 314.995 220.902 315.879 214.255C316.763 207.608 316.033 200.846 313.751 194.541L274.061 84.8082C267.282 60.4221 252.703 38.9275 232.552 23.612C212.401 8.29642 187.788 0.00295142 162.477 1.41576e-08V1.41576e-08C136.129 -0.000411826 110.569 8.98443 90.0159 25.4711C69.4633 41.9577 55.1474 64.9603 49.432 90.681L16.7278 196.448C14.8023 202.692 14.3694 209.301 15.464 215.744C16.5586 222.186 19.1501 228.281 23.03 233.539C26.9099 238.797 31.9698 243.071 37.8027 246.017C43.6355 248.963 50.0785 250.498 56.613 250.5V250.5Z" fill="#1A3A35"/>
<path d="M98.8083 278.333C102.002 294.063 110.536 308.205 122.964 318.363C135.392 328.521 150.949 334.07 167 334.07C183.051 334.07 198.608 328.521 211.036 318.363C223.464 308.205 231.998 294.063 235.192 278.333H98.8083Z" fill="#1A3A35"/>
</g>
<defs>
<clipPath id="clip0_1581_12105">
<rect width="334" height="334" fill="white"/>
</clipPath>
</defs>
</svg>
