<svg width="14" height="14" viewBox="0 0 14 14" fill="none" xmlns="http://www.w3.org/2000/svg">
<path d="M13.8072 2.91667L13.8072 11.0833C13.8062 11.8566 13.5029 12.5979 12.9636 13.1447C12.4244 13.6915 11.6933 13.9991 10.9307 14L2.87649 14C2.11388 13.9991 1.38276 13.6915 0.843514 13.1447C0.304265 12.5979 0.0009134 11.8566 -1.25735e-07 11.0833L-4.77795e-07 2.91667C0.000912981 2.1434 0.304264 1.40207 0.843513 0.855295C1.38276 0.308515 2.11388 0.000926878 2.87649 -1.27492e-07L10.9307 -4.84468e-07C11.6933 0.000926453 12.4244 0.308514 12.9636 0.855295C13.5029 1.40207 13.8062 2.1434 13.8072 2.91667ZM1.1506 11.0833C1.1506 11.5475 1.33243 11.9926 1.6561 12.3208C1.97977 12.649 2.41876 12.8333 2.87649 12.8333L10.9307 12.8333C11.3884 12.8333 11.8274 12.649 12.1511 12.3208C12.4747 11.9926 12.6566 11.5475 12.6566 11.0833L12.6566 2.91667C12.6566 2.45254 12.4747 2.00742 12.1511 1.67923C11.8274 1.35104 11.3884 1.16667 10.9307 1.16667L2.87649 1.16667C2.41876 1.16667 1.97977 1.35104 1.6561 1.67923C1.33243 2.00742 1.1506 2.45254 1.1506 2.91667L1.1506 11.0833ZM9.20477 7C9.20521 7.427 9.05129 7.83937 8.77215 8.15908C8.60474 8.34983 8.44193 8.53067 8.32514 8.64908L6.7005 10.325C6.59223 10.4281 6.44881 10.4848 6.30026 10.4832C6.15172 10.4815 6.00956 10.4216 5.90355 10.3161C5.79755 10.2106 5.73591 10.0676 5.73154 9.917C5.72717 9.76644 5.78042 9.61999 5.88012 9.50833L7.50764 7.82833C7.61523 7.71867 7.76135 7.55533 7.91035 7.38558C8.00306 7.27902 8.05421 7.14181 8.05421 6.99971C8.05421 6.85761 8.00306 6.7204 7.91035 6.61383C7.76193 6.44467 7.6158 6.28133 7.51167 6.17517L5.88012 4.49167C5.82364 4.43786 5.77846 4.37303 5.74729 4.30107C5.71613 4.22912 5.69962 4.15152 5.69877 4.07294C5.69792 3.99435 5.71274 3.91641 5.74233 3.84378C5.77193 3.77114 5.81569 3.70532 5.871 3.65027C5.9263 3.59521 5.99201 3.55205 6.06418 3.52338C6.13634 3.49472 6.21347 3.48113 6.29095 3.48344C6.36842 3.48575 6.44463 3.50391 6.51501 3.53683C6.58539 3.56975 6.64848 3.61674 6.7005 3.675L8.32802 5.35442C8.44308 5.47108 8.60416 5.65017 8.77042 5.84033C9.05047 6.15986 9.20503 6.57254 9.20477 7Z" fill="black"/>
</svg>

