<svg width="29" height="29" viewBox="0 0 29 29" fill="none" xmlns="http://www.w3.org/2000/svg">
<circle cx="14.5" cy="14.5" r="14.5" fill="#D6980E"/>
<path d="M19.971 12.8571C19.9799 12.846 19.9821 12.8415 19.9911 12.8304L18.7344 10.4888C18.6362 10.1964 18.3638 10 18.0558 10H15.7143L16.4286 12.8571H19.971ZM13.5714 12.8571L14.2857 10H11.9442C11.6362 10 11.3638 10.1964 11.2656 10.4888L10.0089 12.8304C10.0179 12.8415 10.0201 12.846 10.029 12.8571H13.5714ZM16.4286 13.5714V15.3571C16.4286 15.5536 16.2679 15.7143 16.0714 15.7143H13.9286C13.7321 15.7143 13.5714 15.5536 13.5714 15.3571V13.5714H10V19.2857C10 19.6808 10.3192 20 10.7143 20H19.2857C19.6808 20 20 19.6808 20 19.2857V13.5714H16.4286Z" fill="white"/>
</svg>

