<svg width="29" height="29" viewBox="0 0 29 29" fill="none" xmlns="http://www.w3.org/2000/svg">
<circle cx="14.5" cy="14.5" r="14.5" fill="#D6980E"/>
<path d="M17.7437 11.7216L16.2146 10.2471C16.0505 10.0889 15.828 10 15.5959 10H11.875C11.3917 10 11 10.3778 11 10.8438V18.1562C11 18.6222 11.3917 19 11.875 19H17.125C17.6083 19 18 18.6222 18 18.1562V12.3182C18 12.0945 17.9078 11.8799 17.7437 11.7216ZM17.3312 12.1194C17.3686 12.1554 17.3951 12.2005 17.4077 12.25H15.6667V10.5711C15.718 10.5833 15.7648 10.6088 15.8021 10.6449L17.3312 12.1194ZM17.125 18.4375H11.875C11.7139 18.4375 11.5833 18.3116 11.5833 18.1562V10.8438C11.5833 10.6884 11.7139 10.5625 11.875 10.5625H15.0833V12.3906C15.0833 12.6236 15.2792 12.8125 15.5208 12.8125H17.4167V18.1562C17.4167 18.3116 17.2861 18.4375 17.125 18.4375ZM16.4967 14.7294L14.0396 17.0798C13.9539 17.1617 13.8156 17.1614 13.7303 17.079L12.5025 15.8915C12.4171 15.809 12.4173 15.6753 12.5029 15.593L12.6579 15.4439C12.7436 15.3616 12.8822 15.3618 12.9675 15.4443L13.8871 16.3336L16.0341 14.2798C16.12 14.1977 16.2586 14.1982 16.3438 14.281L16.4979 14.4309C16.5831 14.5136 16.5825 14.6473 16.4967 14.7294Z" fill="white"/>
</svg>

