<svg width="29" height="29" viewBox="0 0 29 29" fill="none" xmlns="http://www.w3.org/2000/svg">
<circle cx="14.5" cy="14.5" r="14.5" fill="#D6980E"/>
<path d="M20.7 16.875H20.4V14.7637C20.4 14.5156 20.3044 14.2773 20.1356 14.1016L18.2625 12.1504C18.0938 11.9746 17.865 11.875 17.6269 11.875H16.8V10.9375C16.8 10.4199 16.3969 10 15.9 10H11.1C10.6031 10 10.2 10.4199 10.2 10.9375V11.875H9.15C9.0675 11.875 9 11.9453 9 12.0312V12.3438C9 12.4297 9.0675 12.5 9.15 12.5H14.25C14.3325 12.5 14.4 12.5703 14.4 12.6562V12.9688C14.4 13.0547 14.3325 13.125 14.25 13.125H9.75C9.6675 13.125 9.6 13.1953 9.6 13.2812V13.5938C9.6 13.6797 9.6675 13.75 9.75 13.75H13.65C13.7325 13.75 13.8 13.8203 13.8 13.9062V14.2188C13.8 14.3047 13.7325 14.375 13.65 14.375H9.15C9.0675 14.375 9 14.4453 9 14.5312V14.8438C9 14.9297 9.0675 15 9.15 15H13.05C13.1325 15 13.2 15.0703 13.2 15.1562V15.4688C13.2 15.5547 13.1325 15.625 13.05 15.625H10.2V18.125C10.2 19.1602 11.0063 20 12 20C12.9938 20 13.8 19.1602 13.8 18.125H16.2C16.2 19.1602 17.0063 20 18 20C18.9938 20 19.8 19.1602 19.8 18.125H20.7C20.865 18.125 21 17.9844 21 17.8125V17.1875C21 17.0156 20.865 16.875 20.7 16.875ZM12 19.0625C11.5031 19.0625 11.1 18.6426 11.1 18.125C11.1 17.6074 11.5031 17.1875 12 17.1875C12.4969 17.1875 12.9 17.6074 12.9 18.125C12.9 18.6426 12.4969 19.0625 12 19.0625ZM18 19.0625C17.5031 19.0625 17.1 18.6426 17.1 18.125C17.1 17.6074 17.5031 17.1875 18 17.1875C18.4969 17.1875 18.9 17.6074 18.9 18.125C18.9 18.6426 18.4969 19.0625 18 19.0625ZM19.5 15H16.8V12.8125H17.6269L19.5 14.7637V15Z" fill="white"/>
</svg>

