<svg width="29" height="29" viewBox="0 0 29 29" fill="none" xmlns="http://www.w3.org/2000/svg">
<circle cx="14.5" cy="14.5" r="14.5" fill="#D6980E"/>
<g clip-path="url(#clip0_80_2656)">
<path d="M15.8333 12.9167V10.1917C16.2188 10.3372 16.5689 10.563 16.8604 10.8542L18.3121 12.3067C18.6035 12.5979 18.8295 12.9479 18.975 13.3333H16.25C16.1395 13.3333 16.0335 13.2894 15.9554 13.2113C15.8772 13.1332 15.8333 13.0272 15.8333 12.9167ZM19.1667 14.3687V17.9167C19.166 18.469 18.9463 18.9985 18.5558 19.3891C18.1652 19.7796 17.6357 19.9993 17.0833 20H12.9167C12.3643 19.9993 11.8348 19.7796 11.4443 19.3891C11.0537 18.9985 10.834 18.469 10.8333 17.9167V12.0833C10.834 11.531 11.0537 11.0015 11.4443 10.6109C11.8348 10.2204 12.3643 10.0007 12.9167 10H14.7979C14.8658 10 14.9329 10.0054 15 10.01V12.9167C15 13.2482 15.1317 13.5661 15.3661 13.8006C15.6005 14.035 15.9185 14.1667 16.25 14.1667H19.1567C19.1613 14.2337 19.1667 14.3008 19.1667 14.3687ZM15.8333 17.9167C15.8333 17.8062 15.7894 17.7002 15.7113 17.622C15.6332 17.5439 15.5272 17.5 15.4167 17.5H13.3333C13.2228 17.5 13.1169 17.5439 13.0387 17.622C12.9606 17.7002 12.9167 17.8062 12.9167 17.9167C12.9167 18.0272 12.9606 18.1332 13.0387 18.2113C13.1169 18.2894 13.2228 18.3333 13.3333 18.3333H15.4167C15.5272 18.3333 15.6332 18.2894 15.7113 18.2113C15.7894 18.1332 15.8333 18.0272 15.8333 17.9167ZM17.0833 16.25C17.0833 16.1395 17.0394 16.0335 16.9613 15.9554C16.8832 15.8772 16.7772 15.8333 16.6667 15.8333H13.3333C13.2228 15.8333 13.1169 15.8772 13.0387 15.9554C12.9606 16.0335 12.9167 16.1395 12.9167 16.25C12.9167 16.3605 12.9606 16.4665 13.0387 16.5446C13.1169 16.6228 13.2228 16.6667 13.3333 16.6667H16.6667C16.7772 16.6667 16.8832 16.6228 16.9613 16.5446C17.0394 16.4665 17.0833 16.3605 17.0833 16.25Z" fill="white"/>
</g>
<defs>
<clipPath id="clip0_80_2656">
<rect width="10" height="10" fill="white" transform="translate(10 10)"/>
</clipPath>
</defs>
</svg>

