<svg width="10" height="10" viewBox="0 0 10 10" fill="none" xmlns="http://www.w3.org/2000/svg">
<path d="M5.83325 2.91667V0.191667C6.21869 0.337223 6.56879 0.563046 6.86034 0.854167L8.312 2.30667C8.60345 2.59787 8.82945 2.94787 8.97492 3.33333H6.24992C6.13941 3.33333 6.03343 3.28943 5.95529 3.21129C5.87715 3.13315 5.83325 3.02717 5.83325 2.91667ZM9.16659 4.36875V7.91667C9.16592 8.469 8.94622 8.99852 8.55566 9.38908C8.1651 9.77963 7.63558 9.99934 7.08325 10H2.91659C2.36425 9.99934 1.83473 9.77963 1.44418 9.38908C1.05362 8.99852 0.833914 8.469 0.833252 7.91667V2.08333C0.833914 1.531 1.05362 1.00148 1.44418 0.610925C1.83473 0.220367 2.36425 0.000661607 2.91659 0L4.79784 0C4.86575 0 4.93284 0.00541667 4.99992 0.01V2.91667C4.99992 3.24819 5.13161 3.56613 5.36603 3.80055C5.60046 4.03497 5.9184 4.16667 6.24992 4.16667H9.15659C9.16117 4.23375 9.16659 4.30083 9.16659 4.36875ZM5.83325 7.91667C5.83325 7.80616 5.78935 7.70018 5.71121 7.62204C5.63307 7.5439 5.52709 7.5 5.41659 7.5H3.33325C3.22275 7.5 3.11676 7.5439 3.03862 7.62204C2.96048 7.70018 2.91659 7.80616 2.91659 7.91667C2.91659 8.02717 2.96048 8.13315 3.03862 8.21129C3.11676 8.28943 3.22275 8.33333 3.33325 8.33333H5.41659C5.52709 8.33333 5.63307 8.28943 5.71121 8.21129C5.78935 8.13315 5.83325 8.02717 5.83325 7.91667ZM7.08325 6.25C7.08325 6.13949 7.03935 6.03351 6.96121 5.95537C6.88307 5.87723 6.77709 5.83333 6.66659 5.83333H3.33325C3.22275 5.83333 3.11676 5.87723 3.03862 5.95537C2.96048 6.03351 2.91659 6.13949 2.91659 6.25C2.91659 6.36051 2.96048 6.46649 3.03862 6.54463C3.11676 6.62277 3.22275 6.66667 3.33325 6.66667H6.66659C6.77709 6.66667 6.88307 6.62277 6.96121 6.54463C7.03935 6.46649 7.08325 6.36051 7.08325 6.25Z" fill="white"/>
</svg>
