<svg width="11" height="15" viewBox="0 0 11 15" fill="none" xmlns="http://www.w3.org/2000/svg">
<path d="M6.1875 6.91611C6.1875 6.72188 6.03367 6.56455 5.84375 6.56455H5.15625C4.96633 6.56455 4.8125 6.72188 4.8125 6.91611V9.37734H3.41229C3.10549 9.37734 2.95253 9.75732 3.17023 9.97852L5.24161 12.0812C5.38456 12.2262 5.61516 12.2262 5.7581 12.0812L7.82948 9.97852C8.04719 9.75762 7.89422 9.37734 7.58742 9.37734H6.1875V6.91611ZM10.5941 2.87051L8.19099 0.413086C7.93318 0.149414 7.5837 0 7.22018 0H1.37471C0.615885 0.00292969 0 0.632812 0 1.40889V13.594C0 14.3701 0.615885 15 1.37471 15H9.62299C10.3821 15 11 14.3701 11 13.594V3.86631C11 3.49453 10.8519 3.13418 10.5941 2.87051ZM7.3319 1.52314L9.51156 3.75205H7.3319V1.52314ZM9.625 13.594H1.37471V1.40889H5.95719V4.45518C5.95719 4.84482 6.2637 5.15801 6.64469 5.15801H9.625V13.594Z" fill="#D6980E"/>
</svg>

