<svg width="18" height="18" viewBox="0 0 18 18" fill="none" xmlns="http://www.w3.org/2000/svg">
<path d="M14.25 18H3.75C2.7558 17.9988 1.80267 17.6033 1.09966 16.9003C0.396661 16.1973 0.00119089 15.2442 0 14.25L0 3.75C0.00119089 2.7558 0.396661 1.80267 1.09966 1.09966C1.80267 0.396661 2.7558 0.00119089 3.75 0L14.25 0C15.2442 0.00119089 16.1973 0.396661 16.9003 1.09966C17.6033 1.80267 17.9988 2.7558 18 3.75V14.25C17.9988 15.2442 17.6033 16.1973 16.9003 16.9003C16.1973 17.6033 15.2442 17.9988 14.25 18ZM3.75 1.5C3.15326 1.5 2.58097 1.73705 2.15901 2.15901C1.73705 2.58097 1.5 3.15326 1.5 3.75L1.5 14.25C1.5 14.8467 1.73705 15.419 2.15901 15.841C2.58097 16.2629 3.15326 16.5 3.75 16.5H14.25C14.8467 16.5 15.419 16.2629 15.841 15.841C16.2629 15.419 16.5 14.8467 16.5 14.25V3.75C16.5 3.15326 16.2629 2.58097 15.841 2.15901C15.419 1.73705 14.8467 1.5 14.25 1.5L3.75 1.5ZM9 12C8.45099 12.0006 7.92082 11.7999 7.50975 11.436C7.2645 11.2178 7.032 11.0055 6.87975 10.8532L4.725 8.73525C4.59239 8.5941 4.51953 8.40713 4.52166 8.21347C4.52379 8.01981 4.60075 7.83449 4.73643 7.69629C4.87211 7.55809 5.05598 7.47774 5.24957 7.47204C5.44315 7.46635 5.63143 7.53576 5.775 7.66575L7.935 9.7875C8.076 9.92775 8.286 10.1182 8.50425 10.3125C8.64126 10.4334 8.81768 10.5 9.00037 10.5C9.18307 10.5 9.35949 10.4334 9.4965 10.3125C9.714 10.119 9.924 9.9285 10.0605 9.79275L12.225 7.66575C12.2942 7.59211 12.3775 7.53321 12.47 7.49258C12.5626 7.45195 12.6623 7.43044 12.7634 7.42933C12.8644 7.42821 12.9646 7.44753 13.058 7.48611C13.1514 7.5247 13.236 7.58175 13.3068 7.65385C13.3776 7.72595 13.4331 7.81161 13.4699 7.90569C13.5068 7.99977 13.5243 8.10033 13.5213 8.20133C13.5183 8.30232 13.495 8.40168 13.4527 8.49343C13.4103 8.58518 13.3499 8.66743 13.275 8.73525L11.1158 10.857C10.9657 11.007 10.7355 11.217 10.491 11.4338C10.0802 11.7988 9.5496 12.0003 9 12Z" fill="black"/>
</svg>
