<svg width="12" height="10" viewBox="0 0 12 10" fill="none" xmlns="http://www.w3.org/2000/svg">
<path d="M11.7 6.875H11.4V4.76367C11.4 4.51562 11.3044 4.27734 11.1356 4.10156L9.2625 2.15039C9.09375 1.97461 8.865 1.875 8.62688 1.875H7.8V0.9375C7.8 0.419922 7.39688 0 6.9 0H2.1C1.60313 0 1.2 0.419922 1.2 0.9375V1.875H0.15C0.0675 1.875 0 1.94531 0 2.03125V2.34375C0 2.42969 0.0675 2.5 0.15 2.5H5.25C5.3325 2.5 5.4 2.57031 5.4 2.65625V2.96875C5.4 3.05469 5.3325 3.125 5.25 3.125H0.75C0.6675 3.125 0.6 3.19531 0.6 3.28125V3.59375C0.6 3.67969 0.6675 3.75 0.75 3.75H4.65C4.7325 3.75 4.8 3.82031 4.8 3.90625V4.21875C4.8 4.30469 4.7325 4.375 4.65 4.375H0.15C0.0675 4.375 0 4.44531 0 4.53125V4.84375C0 4.92969 0.0675 5 0.15 5H4.05C4.1325 5 4.2 5.07031 4.2 5.15625V5.46875C4.2 5.55469 4.1325 5.625 4.05 5.625H1.2V8.125C1.2 9.16016 2.00625 10 3 10C3.99375 10 4.8 9.16016 4.8 8.125H7.2C7.2 9.16016 8.00625 10 9 10C9.99375 10 10.8 9.16016 10.8 8.125H11.7C11.865 8.125 12 7.98438 12 7.8125V7.1875C12 7.01562 11.865 6.875 11.7 6.875ZM3 9.0625C2.50313 9.0625 2.1 8.64258 2.1 8.125C2.1 7.60742 2.50313 7.1875 3 7.1875C3.49688 7.1875 3.9 7.60742 3.9 8.125C3.9 8.64258 3.49688 9.0625 3 9.0625ZM9 9.0625C8.50313 9.0625 8.1 8.64258 8.1 8.125C8.1 7.60742 8.50313 7.1875 9 7.1875C9.49688 7.1875 9.9 7.60742 9.9 8.125C9.9 8.64258 9.49688 9.0625 9 9.0625ZM10.5 5H7.8V2.8125H8.62688L10.5 4.76367V5Z" fill="white"/>
</svg>
