<svg width="53" height="15" viewBox="0 0 53 15" fill="none" xmlns="http://www.w3.org/2000/svg">
<path d="M19.82 11V3.95H24.3V4.79H20.86V7.04H24.09V7.88H20.86V11H19.82ZM25.8571 11V3.95H26.8971V11H25.8571ZM29.0231 11V3.95H30.0631V10.11H33.5531V11H29.0231ZM35.4716 11V4.82H32.9716V3.95H39.0016V4.82H36.5016V11H35.4716ZM40.3649 11V3.95H44.9249V4.79H41.3649V7H44.7149V7.84H41.3649V10.16H44.9249V11H40.3649ZM46.7536 11V3.95H49.6736C50.4336 3.95 51.0203 4.13333 51.4336 4.5C51.8469 4.86 52.0536 5.36667 52.0536 6.02C52.0536 6.54667 51.9136 6.98 51.6336 7.32C51.3536 7.65333 50.9569 7.87667 50.4436 7.99C50.7636 8.09667 51.0336 8.35333 51.2536 8.76L52.4736 11H51.3336L50.1136 8.75C49.9736 8.49 49.8103 8.31667 49.6236 8.23C49.4436 8.13667 49.2103 8.09 48.9236 8.09H47.7936V11H46.7536ZM47.7936 7.31H49.5036C50.5303 7.31 51.0436 6.88667 51.0436 6.04C51.0436 5.2 50.5303 4.78 49.5036 4.78H47.7936V7.31Z" fill="black"/>
<path d="M6.08017 12.0536L3.3705 14.8823C3.21934 15.0392 2.97424 15.0392 2.82305 14.8823L0.113371 12.0536C-0.0377903 11.8967 -0.0377903 11.6423 0.113371 11.4854L0.341435 11.2486C0.492596 11.0917 0.737693 11.0917 0.888886 11.2486L2.5484 12.9873V0.401786C2.5484 0.1799 2.72172 0 2.9355 0H3.25808C3.47185 0 3.64517 0.1799 3.64517 0.401786V12.9873L5.30466 11.2486C5.45582 11.0917 5.70091 11.0917 5.85211 11.2486L6.08017 11.4854C6.23137 11.6423 6.23137 11.8967 6.08017 12.0536ZM11.871 9.24108V8.97322C11.871 8.75134 11.6976 8.57144 11.4839 8.57144H8.12904C7.91527 8.57144 7.74194 8.75134 7.74194 8.97322V9.24108C7.74194 9.46297 7.91527 9.64287 8.12904 9.64287H11.4839C11.6976 9.64287 11.871 9.46297 11.871 9.24108ZM13.9355 6.02679V5.75893C13.9355 5.53705 13.7622 5.35715 13.5484 5.35715H8.12904C7.91527 5.35715 7.74194 5.53705 7.74194 5.75893V6.02679C7.74194 6.24868 7.91527 6.42858 8.12904 6.42858H13.5484C13.7622 6.42858 13.9355 6.24868 13.9355 6.02679ZM16 2.8125V2.54465C16 2.32276 15.8267 2.14286 15.6129 2.14286H8.12904C7.91527 2.14286 7.74194 2.32276 7.74194 2.54465V2.8125C7.74194 3.03439 7.91527 3.21429 8.12904 3.21429H15.6129C15.8267 3.21429 16 3.03439 16 2.8125ZM9.80646 12.4554V12.1875C9.80646 11.9656 9.63314 11.7857 9.41936 11.7857H8.12904C7.91527 11.7857 7.74194 11.9656 7.74194 12.1875V12.4554C7.74194 12.6773 7.91527 12.8572 8.12904 12.8572H9.41936C9.63314 12.8572 9.80646 12.6773 9.80646 12.4554Z" fill="black"/>
</svg>
