<svg width="60" height="17" viewBox="0 0 60 17" fill="none" xmlns="http://www.w3.org/2000/svg">
<path d="M5.81088 15.8764C5.41175 16.4295 4.58825 16.4295 4.18912 15.8764L1.8139 12.5852C1.3366 11.9238 1.80917 11 2.62478 11L7.37522 11C8.19083 11 8.6634 11.9238 8.1861 12.5852L5.81088 15.8764Z" fill="black"/>
<path d="M5.81088 1.1236C5.41175 0.570536 4.58825 0.570536 4.18912 1.12359L1.8139 4.41479C1.3366 5.07616 1.80917 6 2.62478 6L7.37522 6C8.19083 6 8.6634 5.07616 8.1861 4.41479L5.81088 1.1236Z" fill="black"/>
<path d="M17.17 12.09C16.6167 12.09 16.11 12.02 15.65 11.88C15.19 11.7333 14.8 11.53 14.48 11.27L14.81 10.45C15.1433 10.7033 15.5 10.8933 15.88 11.02C16.26 11.1467 16.69 11.21 17.17 11.21C17.7367 11.21 18.1533 11.11 18.42 10.91C18.6933 10.7033 18.83 10.4367 18.83 10.11C18.83 9.84333 18.7333 9.63333 18.54 9.48C18.3467 9.32 18.0233 9.19333 17.57 9.1L16.5 8.88C15.8667 8.74667 15.3933 8.52667 15.08 8.22C14.7733 7.91333 14.62 7.5 14.62 6.98C14.62 6.56 14.73 6.19 14.95 5.87C15.1767 5.55 15.49 5.30333 15.89 5.13C16.29 4.95 16.75 4.86 17.27 4.86C17.75 4.86 18.1933 4.93333 18.6 5.08C19.0133 5.22 19.3633 5.42667 19.65 5.7L19.31 6.49C18.7433 5.99 18.06 5.74 17.26 5.74C16.7667 5.74 16.3733 5.85 16.08 6.07C15.7933 6.29 15.65 6.58333 15.65 6.95C15.65 7.23 15.74 7.45333 15.92 7.62C16.1 7.78667 16.4 7.91333 16.82 8L17.88 8.22C18.5467 8.36 19.0433 8.57667 19.37 8.87C19.6967 9.15667 19.86 9.54667 19.86 10.04C19.86 10.4533 19.75 10.8133 19.53 11.12C19.31 11.4267 19 11.6667 18.6 11.84C18.2 12.0067 17.7233 12.09 17.17 12.09ZM24.6007 12.09C23.9274 12.09 23.344 11.9433 22.8507 11.65C22.3574 11.35 21.974 10.93 21.7007 10.39C21.434 9.84333 21.3007 9.20333 21.3007 8.47C21.3007 7.73 21.434 7.09 21.7007 6.55C21.974 6.01 22.3574 5.59333 22.8507 5.3C23.344 5.00667 23.9274 4.86 24.6007 4.86C25.2674 4.86 25.8474 5.00667 26.3407 5.3C26.8407 5.59333 27.224 6.01 27.4907 6.55C27.764 7.09 27.9007 7.72667 27.9007 8.46C27.9007 9.2 27.764 9.84333 27.4907 10.39C27.224 10.93 26.8407 11.35 26.3407 11.65C25.8474 11.9433 25.2674 12.09 24.6007 12.09ZM24.6007 11.19C25.3007 11.19 25.844 10.9533 26.2307 10.48C26.624 10 26.8207 9.33 26.8207 8.47C26.8207 7.61 26.6274 6.94333 26.2407 6.47C25.854 5.99667 25.3074 5.76 24.6007 5.76C23.9007 5.76 23.354 5.99667 22.9607 6.47C22.574 6.94333 22.3807 7.61 22.3807 8.47C22.3807 9.33 22.574 10 22.9607 10.48C23.354 10.9533 23.9007 11.19 24.6007 11.19ZM29.7946 12V4.95H32.7146C33.4746 4.95 34.0613 5.13333 34.4746 5.5C34.8879 5.86 35.0946 6.36667 35.0946 7.02C35.0946 7.54667 34.9546 7.98 34.6746 8.32C34.3946 8.65333 33.9979 8.87667 33.4846 8.99C33.8046 9.09667 34.0746 9.35333 34.2946 9.76L35.5146 12H34.3746L33.1546 9.75C33.0146 9.49 32.8513 9.31667 32.6646 9.23C32.4846 9.13667 32.2513 9.09 31.9646 9.09H30.8346V12H29.7946ZM30.8346 8.31H32.5446C33.5713 8.31 34.0846 7.88667 34.0846 7.04C34.0846 6.2 33.5713 5.78 32.5446 5.78H30.8346V8.31ZM38.5869 12V5.82H36.0869V4.95H42.1169V5.82H39.6169V12H38.5869ZM46.6071 12V4.95H49.5471C50.2804 4.95 50.8471 5.11333 51.2471 5.44C51.6538 5.76 51.8571 6.21 51.8571 6.79C51.8571 7.17 51.7571 7.49667 51.5571 7.77C51.3571 8.04333 51.0838 8.24333 50.7371 8.37C51.1438 8.47667 51.4604 8.67333 51.6871 8.96C51.9138 9.24667 52.0271 9.61 52.0271 10.05C52.0271 10.6767 51.8171 11.16 51.3971 11.5C50.9838 11.8333 50.4071 12 49.6671 12H46.6071ZM47.6071 8.03H49.3871C50.3604 8.03 50.8471 7.65 50.8471 6.89C50.8471 6.13 50.3604 5.75 49.3871 5.75H47.6071V8.03ZM47.6071 11.2H49.5471C50.5271 11.2 51.0171 10.8033 51.0171 10.01C51.0171 9.22333 50.5271 8.83 49.5471 8.83H47.6071V11.2ZM55.4768 12V8.71L52.7768 4.95H53.9768L56.0168 7.8L58.0568 4.95H59.2068L56.5068 8.72V12H55.4768Z" fill="black"/>
</svg>
