<svg width="16" height="16" viewBox="0 0 16 16" fill="none" xmlns="http://www.w3.org/2000/svg">
<g clip-path="url(#clip0_3047_13918)">
<path d="M3.33333 7.99984C3.33333 7.07936 2.58714 6.33317 1.66667 6.33317C0.746192 6.33317 0 7.07936 0 7.99984C0 8.92031 0.746192 9.6665 1.66667 9.6665C2.58714 9.6665 3.33333 8.92031 3.33333 7.99984Z" fill="#D6980E"/>
<path d="M9.66665 7.99984C9.66665 7.07936 8.92045 6.33317 7.99998 6.33317C7.07951 6.33317 6.33331 7.07936 6.33331 7.99984C6.33331 8.92031 7.07951 9.6665 7.99998 9.6665C8.92045 9.6665 9.66665 8.92031 9.66665 7.99984Z" fill="#D6980E"/>
<path d="M16 7.99984C16 7.07936 15.2538 6.33317 14.3334 6.33317C13.4129 6.33317 12.6667 7.07936 12.6667 7.99984C12.6667 8.92031 13.4129 9.6665 14.3334 9.6665C15.2538 9.6665 16 8.92031 16 7.99984Z" fill="#D6980E"/>
</g>
<defs>
<clipPath id="clip0_3047_13918">
<rect width="16" height="16" fill="white" transform="matrix(0 -1 1 0 0 16)"/>
</clipPath>
</defs>
</svg>
