<svg width="24" height="22" viewBox="0 0 24 22" fill="white" xmlns="http://www.w3.org/2000/svg">
<rect x="0.25" y="0.25" width="23.5" height="21.5" rx="2.75" fill="white" stroke="black" stroke-width="0.5"/>
<g clip-path="url(#clip0_224_5256)">
<path d="M7.54318 10.342C7.90526 7.88153 10.1934 6.18041 12.6539 6.54249C13.4934 6.66601 14.2809 7.02421 14.9257 7.57581L14.3452 8.15626C14.1507 8.35085 14.1507 8.66633 14.3453 8.86088C14.4387 8.95426 14.5654 9.00673 14.6975 9.00676H16.9824C17.2576 9.00676 17.4807 8.78369 17.4807 8.50852V6.22357C17.4806 5.9484 17.2575 5.72539 16.9823 5.72543C16.8502 5.72546 16.7236 5.77794 16.6302 5.87131L15.9824 6.51902C13.5124 4.31721 9.72509 4.53465 7.52328 7.00469C6.74325 7.87973 6.23705 8.96439 6.0674 10.1243C6.00051 10.5355 6.27962 10.9231 6.69081 10.99C6.72786 10.996 6.76527 10.9993 6.8028 10.9997C7.17901 10.9957 7.49479 10.7151 7.54318 10.342Z" fill="black"/>
<path d="M17.1971 10.9997C16.8209 11.0038 16.5051 11.2843 16.4567 11.6574C16.0947 14.1179 13.8065 15.819 11.346 15.457C10.5065 15.3335 9.71903 14.9753 9.07424 14.4237L9.65469 13.8432C9.84924 13.6486 9.84919 13.3331 9.65457 13.1386C9.56117 13.0452 9.4345 12.9927 9.30242 12.9927H7.01752C6.74235 12.9927 6.51929 13.2158 6.51929 13.4909V15.7759C6.51936 16.0511 6.74247 16.2741 7.01764 16.274C7.14971 16.274 7.27639 16.2215 7.36979 16.1282L8.01749 15.4805C10.4869 17.6825 14.274 17.4657 16.476 14.9963C17.2565 14.121 17.7629 13.036 17.9325 11.8757C17.9997 11.4645 17.7208 11.0767 17.3097 11.0096C17.2724 11.0035 17.2348 11.0002 17.1971 10.9997Z" fill="black"/>
</g>
<defs>
<linearGradient id="paint0_linear_224_5256" x1="4.5" y1="4.37552e-07" x2="22" y2="22" gradientUnits="userSpaceOnUse">
<stop stop-color="#F5F5F5" stop-opacity="0.8"/>
<stop offset="1" stop-color="#F5F5F5" stop-opacity="0.3"/>
</linearGradient>
<clipPath id="clip0_224_5256">
<rect width="12" height="12" fill="white" transform="translate(6 5)"/>
</clipPath>
</defs>
</svg>
