<svg width="23" height="20" viewBox="0 0 23 20" fill="none" xmlns="http://www.w3.org/2000/svg">
<path d="M11.154 4.49221L2.69062 12.0199C2.62788 12.077 2.54771 12.1035 2.47877 12.1508V19.375C2.47877 19.5408 2.54406 19.6998 2.66027 19.817C2.77648 19.9342 2.93409 20 3.09843 20H8.0557C8.22004 20 8.37765 19.9342 8.49386 19.817C8.61007 19.6998 8.67535 19.5408 8.67535 19.375V14.375C8.67535 14.2093 8.74064 14.0503 8.85685 13.9331C8.97306 13.8159 9.13067 13.75 9.29501 13.75H13.013C13.1773 13.75 13.3349 13.8159 13.4511 13.9331C13.5673 14.0503 13.6326 14.2093 13.6326 14.375V19.375C13.6326 19.5408 13.6979 19.6998 13.8141 19.817C13.9303 19.9342 14.0879 20 14.2523 20H19.2095C19.3739 20 19.5315 19.9342 19.6477 19.817C19.7639 19.6998 19.8292 19.5408 19.8292 19.375V12.1524C19.7634 12.1071 19.6851 12.0813 19.6255 12.0274L11.154 4.49221ZM22.1022 9.22971L12.19 0.401585C11.9063 0.142875 11.5374 -0.000366211 11.155 -0.000366211C10.7725 -0.000366211 10.4036 0.142875 10.1199 0.401585L0.205403 9.22971C0.144839 9.28456 0.095584 9.35091 0.0604505 9.42497C0.025317 9.49903 0.00499389 9.57934 0.000642116 9.66132C-0.00370966 9.74331 0.00799519 9.82535 0.035088 9.90277C0.0621808 9.98019 0.104131 10.0515 0.158541 10.1125L0.987721 11.043C1.04211 11.1041 1.10789 11.1538 1.18131 11.1892C1.25474 11.2246 1.33437 11.2451 1.41565 11.2495C1.49693 11.2539 1.57827 11.2421 1.65503 11.2148C1.73178 11.1874 1.80245 11.1451 1.86299 11.0903L10.7442 3.18869C10.8574 3.08796 11.0032 3.03238 11.1542 3.03238C11.3051 3.03238 11.4509 3.08796 11.5641 3.18869L20.4454 11.0899C20.5059 11.1447 20.5766 11.1871 20.6533 11.2144C20.7301 11.2417 20.8114 11.2535 20.8927 11.2491C20.974 11.2447 21.0536 11.2242 21.127 11.1888C21.2005 11.1534 21.2663 11.1037 21.3206 11.0426L22.1494 10.1121C22.2592 9.98878 22.3158 9.82653 22.307 9.66105C22.2981 9.49558 22.2244 9.34042 22.1022 9.22971Z" fill="#D6980E"/>
</svg>
