<svg width="25" height="22" viewBox="0 0 25 22" fill="none" xmlns="http://www.w3.org/2000/svg">
<rect x="1.07129" y="0.25" width="22.9637" height="21.5" rx="2.75" fill="white" stroke="black" stroke-width="0.5"/>
<g clip-path="url(#clip0_271_7613)">
<path d="M15.9748 5H9.13127C7.78357 5 6.68713 6.1215 6.68713 7.5V14.5C6.68713 15.8785 7.78357 17 9.13127 17H15.9748C17.3225 17 18.419 15.8785 18.419 14.5V7.5C18.419 6.1215 17.3225 5 15.9748 5ZM13.0419 13.5V14C13.0394 14.654 12.0667 14.6535 12.0642 14V13.5H11.9332C11.4116 13.5 10.9248 13.213 10.6633 12.7505C10.5278 12.511 10.608 12.2055 10.8412 12.0675C11.0753 11.928 11.374 12.011 11.5089 12.2495C11.5964 12.4045 11.7587 12.5 11.9327 12.5H13.0414C13.5288 12.5325 13.7468 11.725 13.2154 11.62L11.7289 11.3665C10.017 11.042 10.3856 8.49 12.0637 8.5V8C12.0667 7.346 13.0389 7.3465 13.0414 8V8.5H13.1724C13.694 8.5 14.1808 8.7875 14.4424 9.25C14.5778 9.489 14.4976 9.7945 14.2644 9.933C14.0298 10.0715 13.7311 9.9895 13.5967 9.7505C13.5092 9.596 13.3469 9.5005 13.1729 9.5005H12.0642C11.5769 9.468 11.3593 10.2755 11.8902 10.3805L13.3767 10.634C15.0886 10.9585 14.72 13.5105 13.0419 13.5005V13.5Z" fill="black"/>
</g>
<defs>
<clipPath id="clip0_271_7613">
<rect width="11.7318" height="12" fill="white" transform="translate(6.68713 5)"/>
</clipPath>
</defs>
</svg>
