<svg width="23" height="20" viewBox="0 0 23 20" fill="none" xmlns="http://www.w3.org/2000/svg">
<path d="M11.154 4.49233L2.69062 12.0201C2.62788 12.0771 2.54771 12.1037 2.47877 12.1509V19.3751C2.47877 19.5409 2.54406 19.6999 2.66027 19.8171C2.77648 19.9343 2.93409 20.0001 3.09843 20.0001H8.0557C8.22004 20.0001 8.37765 19.9343 8.49386 19.8171C8.61007 19.6999 8.67535 19.5409 8.67535 19.3751V14.3751C8.67535 14.2094 8.74064 14.0504 8.85685 13.9332C8.97306 13.816 9.13067 13.7501 9.29501 13.7501H13.013C13.1773 13.7501 13.3349 13.816 13.4511 13.9332C13.5673 14.0504 13.6326 14.2094 13.6326 14.3751V19.3751C13.6326 19.5409 13.6979 19.6999 13.8141 19.8171C13.9303 19.9343 14.0879 20.0001 14.2523 20.0001H19.2095C19.3739 20.0001 19.5315 19.9343 19.6477 19.8171C19.7639 19.6999 19.8292 19.5409 19.8292 19.3751V12.1525C19.7634 12.1072 19.6851 12.0814 19.6255 12.0275L11.154 4.49233ZM22.1022 9.22983L12.19 0.401707C11.9063 0.142997 11.5374 -0.000244141 11.155 -0.000244141C10.7725 -0.000244141 10.4036 0.142997 10.1199 0.401707L0.205403 9.22983C0.144839 9.28469 0.095584 9.35104 0.0604505 9.42509C0.025317 9.49915 0.00499389 9.57946 0.000642116 9.66145C-0.00370966 9.74343 0.00799519 9.82547 0.035088 9.90289C0.0621808 9.98031 0.104131 10.0516 0.158541 10.1126L0.987721 11.0431C1.04211 11.1042 1.10789 11.1539 1.18131 11.1893C1.25474 11.2248 1.33437 11.2452 1.41565 11.2496C1.49693 11.254 1.57827 11.2422 1.65503 11.2149C1.73178 11.1876 1.80245 11.1453 1.86299 11.0904L10.7442 3.18882C10.8574 3.08808 11.0032 3.0325 11.1542 3.0325C11.3051 3.0325 11.4509 3.08808 11.5641 3.18882L20.4454 11.09C20.5059 11.1449 20.5766 11.1872 20.6533 11.2145C20.7301 11.2418 20.8114 11.2536 20.8927 11.2492C20.974 11.2449 21.0536 11.2244 21.127 11.1889C21.2005 11.1535 21.2663 11.1038 21.3206 11.0427L22.1494 10.1123C22.2592 9.9889 22.3158 9.82665 22.307 9.66118C22.2981 9.4957 22.2244 9.34055 22.1022 9.22983Z" fill="#E8DABB"/>
</svg>
