<svg width="24" height="22" viewBox="0 0 24 22" fill="none" xmlns="http://www.w3.org/2000/svg">
<rect x="0.25" y="0.25" width="23.5" height="21.5" rx="2.75" fill="url(#paint0_linear_224_4987)" stroke="black" stroke-width="0.5"/>
<mask id="path-2-inside-1_224_4987" fill="white">
<path d="M16.3253 14.2342C16.2865 14.2307 16.2467 14.2241 16.2068 14.2241C15.8547 14.2233 15.5026 14.2227 15.1506 14.2241C15.0145 14.2246 14.9958 14.254 15.0431 14.3787C15.1624 14.6919 15.0819 14.9888 14.8029 15.174C13.7104 15.8998 12.5296 16.4153 11.2238 16.6072C10.9427 16.6486 10.6464 16.6445 10.3647 16.6061C10.15 16.577 9.92875 16.4912 9.7424 16.3778C8.88845 15.8584 8.10926 15.2382 7.4062 14.5305C7.18605 14.309 6.97277 14.2093 6.65834 14.2249C6.11579 14.2518 5.57105 14.2323 5.01063 14.2323C5.00816 14.1786 5.00431 14.1309 5.00431 14.0829C5.00404 13.3259 4.99359 12.5687 5.00624 11.8119C5.0307 10.361 5.54384 9.09611 6.52806 8.03186C7.53538 6.94268 8.77411 6.2627 10.2533 6.06235C12.1281 5.80855 13.7763 6.33451 15.2121 7.55004C15.233 7.56785 15.2525 7.58704 15.2734 7.60485C15.3526 7.672 15.3916 7.63226 15.3968 7.54976C15.4037 7.44068 15.3987 7.33105 15.399 7.22142C15.3996 6.99914 15.5087 6.86786 15.6901 6.87142C15.8619 6.87471 15.9561 6.99558 15.9567 7.21265C15.9578 7.65967 15.9567 8.10641 15.9611 8.55343C15.9622 8.67677 15.9039 8.73104 15.7888 8.73131C15.2995 8.73268 14.81 8.73432 14.3208 8.73021C14.1625 8.72884 14.027 8.59537 14.0275 8.46025C14.0281 8.31745 14.1518 8.21604 14.3307 8.21248C14.5044 8.20892 14.6784 8.21248 14.8513 8.20015C14.9081 8.19604 14.962 8.15301 15.0173 8.12779C14.9881 8.07654 14.9703 8.01241 14.9282 7.97568C13.734 6.93638 12.3438 6.43756 10.7635 6.57652C8.61031 6.7659 7.07419 7.88688 6.08968 9.7876C6.08171 9.80295 6.07732 9.82049 6.06495 9.8542C6.11662 9.85777 6.15895 9.86297 6.201 9.86297C7.16598 9.86352 8.1307 9.86434 9.09568 9.86133C9.16082 9.86105 9.23201 9.84379 9.29028 9.81446C9.9587 9.47817 10.6263 9.13968 11.2917 8.79736C11.4918 8.69431 11.6784 8.69595 11.8774 8.80312C12.4961 9.13612 13.1197 9.46063 13.7389 9.79253C13.8549 9.85475 13.9695 9.88435 14.1026 9.8838C15.0948 9.87942 16.0872 9.88134 17.0794 9.88134C17.1289 9.88134 17.1787 9.88134 17.2446 9.88134C17.2575 10.1579 17.2795 10.4246 17.2806 10.6912C17.2834 11.3608 17.3026 12.032 17.2683 12.6999C17.1998 14.0314 16.6839 15.1924 15.8129 16.1925C14.8205 17.3321 13.5724 18.0401 12.0739 18.2706C10.1547 18.5657 8.46931 18.0359 7.0052 16.7763C6.97359 16.7489 6.93676 16.7272 6.87739 16.6853C6.86393 16.8232 6.85321 16.9298 6.84304 17.0364C6.83397 17.1315 6.83314 17.2282 6.81583 17.322C6.7867 17.4812 6.66549 17.587 6.53933 17.5749C6.39559 17.5612 6.27136 17.4193 6.27108 17.2628C6.26998 16.8388 6.27081 16.4145 6.27081 15.9905C6.27053 15.5989 6.2337 15.6164 6.6391 15.6191C7.05495 15.6219 7.47106 15.6243 7.88691 15.6296C7.9405 15.6301 7.9974 15.637 8.04687 15.6564C8.17192 15.7055 8.25328 15.8466 8.23157 15.9604C8.2071 16.0881 8.08507 16.1884 7.94325 16.1876C7.82919 16.187 7.7154 16.1741 7.60107 16.1703C7.51614 16.1673 7.43121 16.1698 7.33996 16.1881C7.76103 16.6236 8.24888 16.9569 8.79088 17.2093C9.97464 17.7613 11.2095 17.8978 12.4804 17.5977C13.7406 17.3003 14.7809 16.6387 15.5928 15.6296C15.9366 15.2014 16.3283 14.4499 16.3253 14.2342ZM5.58012 13.6307C6.04076 13.6307 6.48354 13.6307 6.92632 13.6307C6.96287 13.6307 7.0019 13.6387 7.03543 13.6282C7.06979 13.6176 7.11294 13.5962 7.12778 13.5671C7.42187 12.9891 8.08947 13.0036 8.49789 13.3621C9.30072 14.0668 10.1156 14.7577 10.9286 15.4509C11.0446 15.5498 11.1059 15.6553 11.104 15.8135C11.101 16.0475 11.237 16.1437 11.4635 16.0878C12.517 15.8274 13.5084 15.4177 14.4357 14.8545C14.589 14.7613 14.6099 14.6558 14.4967 14.5193C14.3683 14.365 14.2364 14.2134 14.1042 14.0624C13.1824 13.0075 12.2611 11.9523 11.3373 10.8993C11.1977 10.74 11.1449 10.7348 10.9558 10.8206C10.5488 11.0053 10.1437 11.1947 9.73443 11.3748C9.26966 11.5792 8.71337 11.3205 8.61443 10.8491C8.58722 10.7197 8.6103 10.5802 8.6103 10.4435C8.59711 10.4405 8.58419 10.4344 8.571 10.4344C7.69314 10.4339 6.815 10.4325 5.93714 10.4372C5.90004 10.4374 5.83957 10.4865 5.83023 10.5232C5.75932 10.8055 5.66505 11.0875 5.64196 11.3748C5.59853 11.9144 5.59661 12.4574 5.58122 12.999C5.57544 13.2031 5.58012 13.4076 5.58012 13.6307ZM16.6853 10.4333C16.6026 10.4333 16.5526 10.4333 16.5025 10.4333C15.6656 10.4333 14.8287 10.4347 13.9918 10.4311C13.9181 10.4309 13.8376 10.4122 13.7719 10.3791C13.1159 10.0485 12.4615 9.71415 11.8084 9.37786C11.6743 9.30879 11.5476 9.28686 11.4049 9.35812C10.7071 9.7073 10.0068 10.0518 9.30814 10.3991C9.16302 10.4711 9.10503 10.6019 9.15917 10.7217C9.21249 10.8398 9.35294 10.8806 9.50191 10.8228C10.0425 10.6137 10.5832 10.4051 11.1238 10.1963C11.3615 10.1044 11.3788 10.1094 11.5454 10.3009C12.4944 11.3931 13.4443 12.4845 14.3912 13.5784C14.4475 13.6436 14.5027 13.6704 14.5888 13.6691C15.2242 13.6595 15.8597 13.6526 16.4951 13.6513C16.591 13.651 16.6182 13.6091 16.638 13.5288C16.7812 12.9441 16.8362 12.351 16.7991 11.7516C16.7722 11.3153 16.7246 10.8806 16.6853 10.4333ZM10.4971 15.9735C10.5537 15.8987 10.5579 15.7962 10.5081 15.7167C10.4751 15.6638 10.4433 15.6172 10.4023 15.5813C10.2176 15.4188 10.0197 15.2713 9.82733 15.1176C9.2573 14.6621 8.68754 14.206 8.11695 13.7513C7.95205 13.62 7.7624 13.6384 7.66401 13.7919C7.57633 13.9286 7.61508 14.0887 7.76817 14.2101C8.27884 14.6157 8.79005 15.0203 9.30099 15.4256C9.55468 15.6268 9.80864 15.8277 10.0612 16.0303C10.1632 16.1119 10.2814 16.1456 10.391 16.0793C10.4314 16.0552 10.4641 16.0174 10.4971 15.9735Z"/>
</mask>
<path d="M16.3253 14.2342C16.2865 14.2307 16.2467 14.2241 16.2068 14.2241C15.8547 14.2233 15.5026 14.2227 15.1506 14.2241C15.0145 14.2246 14.9958 14.254 15.0431 14.3787C15.1624 14.6919 15.0819 14.9888 14.8029 15.174C13.7104 15.8998 12.5296 16.4153 11.2238 16.6072C10.9427 16.6486 10.6464 16.6445 10.3647 16.6061C10.15 16.577 9.92875 16.4912 9.7424 16.3778C8.88845 15.8584 8.10926 15.2382 7.4062 14.5305C7.18605 14.309 6.97277 14.2093 6.65834 14.2249C6.11579 14.2518 5.57105 14.2323 5.01063 14.2323C5.00816 14.1786 5.00431 14.1309 5.00431 14.0829C5.00404 13.3259 4.99359 12.5687 5.00624 11.8119C5.0307 10.361 5.54384 9.09611 6.52806 8.03186C7.53538 6.94268 8.77411 6.2627 10.2533 6.06235C12.1281 5.80855 13.7763 6.33451 15.2121 7.55004C15.233 7.56785 15.2525 7.58704 15.2734 7.60485C15.3526 7.672 15.3916 7.63226 15.3968 7.54976C15.4037 7.44068 15.3987 7.33105 15.399 7.22142C15.3996 6.99914 15.5087 6.86786 15.6901 6.87142C15.8619 6.87471 15.9561 6.99558 15.9567 7.21265C15.9578 7.65967 15.9567 8.10641 15.9611 8.55343C15.9622 8.67677 15.9039 8.73104 15.7888 8.73131C15.2995 8.73268 14.81 8.73432 14.3208 8.73021C14.1625 8.72884 14.027 8.59537 14.0275 8.46025C14.0281 8.31745 14.1518 8.21604 14.3307 8.21248C14.5044 8.20892 14.6784 8.21248 14.8513 8.20015C14.9081 8.19604 14.962 8.15301 15.0173 8.12779C14.9881 8.07654 14.9703 8.01241 14.9282 7.97568C13.734 6.93638 12.3438 6.43756 10.7635 6.57652C8.61031 6.7659 7.07419 7.88688 6.08968 9.7876C6.08171 9.80295 6.07732 9.82049 6.06495 9.8542C6.11662 9.85777 6.15895 9.86297 6.201 9.86297C7.16598 9.86352 8.1307 9.86434 9.09568 9.86133C9.16082 9.86105 9.23201 9.84379 9.29028 9.81446C9.9587 9.47817 10.6263 9.13968 11.2917 8.79736C11.4918 8.69431 11.6784 8.69595 11.8774 8.80312C12.4961 9.13612 13.1197 9.46063 13.7389 9.79253C13.8549 9.85475 13.9695 9.88435 14.1026 9.8838C15.0948 9.87942 16.0872 9.88134 17.0794 9.88134C17.1289 9.88134 17.1787 9.88134 17.2446 9.88134C17.2575 10.1579 17.2795 10.4246 17.2806 10.6912C17.2834 11.3608 17.3026 12.032 17.2683 12.6999C17.1998 14.0314 16.6839 15.1924 15.8129 16.1925C14.8205 17.3321 13.5724 18.0401 12.0739 18.2706C10.1547 18.5657 8.46931 18.0359 7.0052 16.7763C6.97359 16.7489 6.93676 16.7272 6.87739 16.6853C6.86393 16.8232 6.85321 16.9298 6.84304 17.0364C6.83397 17.1315 6.83314 17.2282 6.81583 17.322C6.7867 17.4812 6.66549 17.587 6.53933 17.5749C6.39559 17.5612 6.27136 17.4193 6.27108 17.2628C6.26998 16.8388 6.27081 16.4145 6.27081 15.9905C6.27053 15.5989 6.2337 15.6164 6.6391 15.6191C7.05495 15.6219 7.47106 15.6243 7.88691 15.6296C7.9405 15.6301 7.9974 15.637 8.04687 15.6564C8.17192 15.7055 8.25328 15.8466 8.23157 15.9604C8.2071 16.0881 8.08507 16.1884 7.94325 16.1876C7.82919 16.187 7.7154 16.1741 7.60107 16.1703C7.51614 16.1673 7.43121 16.1698 7.33996 16.1881C7.76103 16.6236 8.24888 16.9569 8.79088 17.2093C9.97464 17.7613 11.2095 17.8978 12.4804 17.5977C13.7406 17.3003 14.7809 16.6387 15.5928 15.6296C15.9366 15.2014 16.3283 14.4499 16.3253 14.2342ZM5.58012 13.6307C6.04076 13.6307 6.48354 13.6307 6.92632 13.6307C6.96287 13.6307 7.0019 13.6387 7.03543 13.6282C7.06979 13.6176 7.11294 13.5962 7.12778 13.5671C7.42187 12.9891 8.08947 13.0036 8.49789 13.3621C9.30072 14.0668 10.1156 14.7577 10.9286 15.4509C11.0446 15.5498 11.1059 15.6553 11.104 15.8135C11.101 16.0475 11.237 16.1437 11.4635 16.0878C12.517 15.8274 13.5084 15.4177 14.4357 14.8545C14.589 14.7613 14.6099 14.6558 14.4967 14.5193C14.3683 14.365 14.2364 14.2134 14.1042 14.0624C13.1824 13.0075 12.2611 11.9523 11.3373 10.8993C11.1977 10.74 11.1449 10.7348 10.9558 10.8206C10.5488 11.0053 10.1437 11.1947 9.73443 11.3748C9.26966 11.5792 8.71337 11.3205 8.61443 10.8491C8.58722 10.7197 8.6103 10.5802 8.6103 10.4435C8.59711 10.4405 8.58419 10.4344 8.571 10.4344C7.69314 10.4339 6.815 10.4325 5.93714 10.4372C5.90004 10.4374 5.83957 10.4865 5.83023 10.5232C5.75932 10.8055 5.66505 11.0875 5.64196 11.3748C5.59853 11.9144 5.59661 12.4574 5.58122 12.999C5.57544 13.2031 5.58012 13.4076 5.58012 13.6307ZM16.6853 10.4333C16.6026 10.4333 16.5526 10.4333 16.5025 10.4333C15.6656 10.4333 14.8287 10.4347 13.9918 10.4311C13.9181 10.4309 13.8376 10.4122 13.7719 10.3791C13.1159 10.0485 12.4615 9.71415 11.8084 9.37786C11.6743 9.30879 11.5476 9.28686 11.4049 9.35812C10.7071 9.7073 10.0068 10.0518 9.30814 10.3991C9.16302 10.4711 9.10503 10.6019 9.15917 10.7217C9.21249 10.8398 9.35294 10.8806 9.50191 10.8228C10.0425 10.6137 10.5832 10.4051 11.1238 10.1963C11.3615 10.1044 11.3788 10.1094 11.5454 10.3009C12.4944 11.3931 13.4443 12.4845 14.3912 13.5784C14.4475 13.6436 14.5027 13.6704 14.5888 13.6691C15.2242 13.6595 15.8597 13.6526 16.4951 13.6513C16.591 13.651 16.6182 13.6091 16.638 13.5288C16.7812 12.9441 16.8362 12.351 16.7991 11.7516C16.7722 11.3153 16.7246 10.8806 16.6853 10.4333ZM10.4971 15.9735C10.5537 15.8987 10.5579 15.7962 10.5081 15.7167C10.4751 15.6638 10.4433 15.6172 10.4023 15.5813C10.2176 15.4188 10.0197 15.2713 9.82733 15.1176C9.2573 14.6621 8.68754 14.206 8.11695 13.7513C7.95205 13.62 7.7624 13.6384 7.66401 13.7919C7.57633 13.9286 7.61508 14.0887 7.76817 14.2101C8.27884 14.6157 8.79005 15.0203 9.30099 15.4256C9.55468 15.6268 9.80864 15.8277 10.0612 16.0303C10.1632 16.1119 10.2814 16.1456 10.391 16.0793C10.4314 16.0552 10.4641 16.0174 10.4971 15.9735Z" fill="black" stroke="black" stroke-width="4" mask="url(#path-2-inside-1_224_4987)"/>
<defs>
<linearGradient id="paint0_linear_224_4987" x1="4.5" y1="4.37552e-07" x2="22" y2="22" gradientUnits="userSpaceOnUse">
<stop stop-color="#F5F5F5" stop-opacity="0.8"/>
<stop offset="1" stop-color="#F5F5F5" stop-opacity="0.3"/>
</linearGradient>
</defs>
</svg>
