<svg width="10" height="10" viewBox="0 0 10 10" fill="none" xmlns="http://www.w3.org/2000/svg">
<path d="M9.97098 2.85714C9.97991 2.84598 9.98214 2.84152 9.99107 2.83036L8.73438 0.488839C8.63616 0.196429 8.36384 0 8.0558 0H5.71429L6.42857 2.85714H9.97098ZM3.57143 2.85714L4.28571 0H1.9442C1.63616 0 1.36384 0.196429 1.26562 0.488839L0.00892857 2.83036C0.0178571 2.84152 0.0200893 2.84598 0.0290179 2.85714H3.57143ZM6.42857 3.57143V5.35714C6.42857 5.55357 6.26786 5.71429 6.07143 5.71429H3.92857C3.73214 5.71429 3.57143 5.55357 3.57143 5.35714V3.57143H0V9.28571C0 9.6808 0.319196 10 0.714286 10H9.28571C9.6808 10 10 9.6808 10 9.28571V3.57143H6.42857Z" fill="white"/>
</svg>
