<svg width="220" height="50" viewBox="0 0 220 50" fill="none" xmlns="http://www.w3.org/2000/svg">
<g filter="url(#filter0_d_423_11489)">
<rect x="10" y="10" width="200" height="30" rx="10" fill="white"/>
<rect x="10.25" y="10.25" width="199.5" height="29.5" rx="9.75" stroke="black" stroke-width="0.5"/>
</g>
<g filter="url(#filter1_d_423_11489)">
<path d="M210 20C210 14.4772 205.523 10 200 10H111C110.448 10 110 10.4477 110 11V39C110 39.5523 110.448 40 111 40H200C205.523 40 210 35.5228 210 30V20Z" fill="#D6980E"/>
<path d="M209.5 20C209.5 14.7533 205.247 10.5 200 10.5H111C110.724 10.5 110.5 10.7239 110.5 11V39C110.5 39.2761 110.724 39.5 111 39.5H200C205.247 39.5 209.5 35.2467 209.5 30V20Z" stroke="#D6980E"/>
</g>
<path d="M39.656 29.108C38.848 29.108 38.148 28.932 37.556 28.58C36.964 28.22 36.504 27.716 36.176 27.068C35.856 26.412 35.696 25.644 35.696 24.764C35.696 23.876 35.856 23.108 36.176 22.46C36.504 21.812 36.964 21.312 37.556 20.96C38.148 20.608 38.848 20.432 39.656 20.432C40.456 20.432 41.152 20.608 41.744 20.96C42.344 21.312 42.804 21.812 43.124 22.46C43.452 23.108 43.616 23.872 43.616 24.752C43.616 25.64 43.452 26.412 43.124 27.068C42.804 27.716 42.344 28.22 41.744 28.58C41.152 28.932 40.456 29.108 39.656 29.108ZM39.656 28.028C40.496 28.028 41.148 27.744 41.612 27.176C42.084 26.6 42.32 25.796 42.32 24.764C42.32 23.732 42.088 22.932 41.624 22.364C41.16 21.796 40.504 21.512 39.656 21.512C38.816 21.512 38.16 21.796 37.688 22.364C37.224 22.932 36.992 23.732 36.992 24.764C36.992 25.796 37.224 26.6 37.688 27.176C38.16 27.744 38.816 28.028 39.656 28.028ZM45.8887 29V20.54H51.2647V21.548H47.1367V24.248H51.0127V25.256H47.1367V29H45.8887ZM53.1332 29V20.54H58.5092V21.548H54.3812V24.248H58.2572V25.256H54.3812V29H53.1332ZM60.3777 29V20.54H65.8497V21.548H61.5777V24.2H65.5977V25.208H61.5777V27.992H65.8497V29H60.3777ZM68.0442 29V20.54H71.5482C72.4602 20.54 73.1642 20.76 73.6602 21.2C74.1562 21.632 74.4042 22.24 74.4042 23.024C74.4042 23.656 74.2362 24.176 73.9002 24.584C73.5642 24.984 73.0882 25.252 72.4722 25.388C72.8562 25.516 73.1802 25.824 73.4442 26.312L74.9082 29H73.5402L72.0762 26.3C71.9082 25.988 71.7122 25.78 71.4882 25.676C71.2722 25.564 70.9922 25.508 70.6482 25.508H69.2922V29H68.0442ZM69.2922 24.572H71.3442C72.5762 24.572 73.1922 24.064 73.1922 23.048C73.1922 22.04 72.5762 21.536 71.3442 21.536H69.2922V24.572ZM79.5735 29.108C78.9095 29.108 78.3015 29.024 77.7495 28.856C77.1975 28.68 76.7295 28.436 76.3455 28.124L76.7415 27.14C77.1415 27.444 77.5695 27.672 78.0255 27.824C78.4815 27.976 78.9975 28.052 79.5735 28.052C80.2535 28.052 80.7535 27.932 81.0735 27.692C81.4015 27.444 81.5655 27.124 81.5655 26.732C81.5655 26.412 81.4495 26.16 81.2175 25.976C80.9855 25.784 80.5975 25.632 80.0535 25.52L78.7695 25.256C78.0095 25.096 77.4415 24.832 77.0655 24.464C76.6975 24.096 76.5135 23.6 76.5135 22.976C76.5135 22.472 76.6455 22.028 76.9095 21.644C77.1815 21.26 77.5575 20.964 78.0375 20.756C78.5175 20.54 79.0695 20.432 79.6935 20.432C80.2695 20.432 80.8015 20.52 81.2895 20.696C81.7855 20.864 82.2055 21.112 82.5495 21.44L82.1415 22.388C81.4615 21.788 80.6415 21.488 79.6815 21.488C79.0895 21.488 78.6175 21.62 78.2655 21.884C77.9215 22.148 77.7495 22.5 77.7495 22.94C77.7495 23.276 77.8575 23.544 78.0735 23.744C78.2895 23.944 78.6495 24.096 79.1535 24.2L80.4255 24.464C81.2255 24.632 81.8215 24.892 82.2135 25.244C82.6055 25.588 82.8015 26.056 82.8015 26.648C82.8015 27.144 82.6695 27.576 82.4055 27.944C82.1415 28.312 81.7695 28.6 81.2895 28.808C80.8095 29.008 80.2375 29.108 79.5735 29.108Z" fill="black"/>
<path d="M126.776 29.108C125.92 29.108 125.188 28.932 124.58 28.58C123.972 28.228 123.504 27.728 123.176 27.08C122.856 26.424 122.696 25.652 122.696 24.764C122.696 23.876 122.856 23.108 123.176 22.46C123.504 21.812 123.972 21.312 124.58 20.96C125.188 20.608 125.92 20.432 126.776 20.432C127.352 20.432 127.888 20.524 128.384 20.708C128.888 20.884 129.308 21.14 129.644 21.476L129.212 22.472C128.844 22.144 128.464 21.908 128.072 21.764C127.688 21.612 127.268 21.536 126.812 21.536C125.9 21.536 125.204 21.816 124.724 22.376C124.244 22.936 124.004 23.732 124.004 24.764C124.004 25.796 124.244 26.596 124.724 27.164C125.204 27.724 125.9 28.004 126.812 28.004C127.268 28.004 127.688 27.932 128.072 27.788C128.464 27.636 128.844 27.396 129.212 27.068L129.644 28.064C129.308 28.392 128.888 28.648 128.384 28.832C127.888 29.016 127.352 29.108 126.776 29.108ZM135.096 29.108C134.288 29.108 133.588 28.932 132.996 28.58C132.404 28.22 131.944 27.716 131.616 27.068C131.296 26.412 131.136 25.644 131.136 24.764C131.136 23.876 131.296 23.108 131.616 22.46C131.944 21.812 132.404 21.312 132.996 20.96C133.588 20.608 134.288 20.432 135.096 20.432C135.896 20.432 136.592 20.608 137.184 20.96C137.784 21.312 138.244 21.812 138.564 22.46C138.892 23.108 139.056 23.872 139.056 24.752C139.056 25.64 138.892 26.412 138.564 27.068C138.244 27.716 137.784 28.22 137.184 28.58C136.592 28.932 135.896 29.108 135.096 29.108ZM135.096 28.028C135.936 28.028 136.588 27.744 137.052 27.176C137.524 26.6 137.76 25.796 137.76 24.764C137.76 23.732 137.528 22.932 137.064 22.364C136.6 21.796 135.944 21.512 135.096 21.512C134.256 21.512 133.6 21.796 133.128 22.364C132.664 22.932 132.432 23.732 132.432 24.764C132.432 25.796 132.664 26.6 133.128 27.176C133.6 27.744 134.256 28.028 135.096 28.028ZM141.353 29V20.54H142.397L145.529 26.384L148.649 20.54H149.669V29H148.553V22.796L145.901 27.704H145.145L142.481 22.82V29H141.353ZM152.264 29V20.54H155.768C156.68 20.54 157.384 20.768 157.88 21.224C158.376 21.672 158.624 22.304 158.624 23.12C158.624 23.944 158.376 24.584 157.88 25.04C157.384 25.488 156.68 25.712 155.768 25.712H153.512V29H152.264ZM153.512 24.716H155.588C156.804 24.716 157.412 24.184 157.412 23.12C157.412 22.064 156.804 21.536 155.588 21.536H153.512V24.716ZM160.564 29V20.54H161.812V27.932H166V29H160.564ZM167.785 29V20.54H173.257V21.548H168.985V24.2H173.005V25.208H168.985V27.992H173.257V29H167.785ZM177.41 29V21.584H174.41V20.54H181.646V21.584H178.646V29H177.41ZM183.282 29V20.54H188.754V21.548H184.482V24.2H188.502V25.208H184.482V27.992H188.754V29H183.282ZM190.948 29V20.54H193.936C195.328 20.54 196.4 20.904 197.152 21.632C197.912 22.36 198.292 23.404 198.292 24.764C198.292 26.124 197.912 27.172 197.152 27.908C196.4 28.636 195.328 29 193.936 29H190.948ZM192.196 27.956H193.864C195.952 27.956 196.996 26.892 196.996 24.764C196.996 22.644 195.952 21.584 193.864 21.584H192.196V27.956Z" fill="white"/>
<defs>
<filter id="filter0_d_423_11489" x="0" y="0" width="220" height="50" filterUnits="userSpaceOnUse" color-interpolation-filters="sRGB">
<feFlood flood-opacity="0" result="BackgroundImageFix"/>
<feColorMatrix in="SourceAlpha" type="matrix" values="0 0 0 0 0 0 0 0 0 0 0 0 0 0 0 0 0 0 127 0" result="hardAlpha"/>
<feOffset/>
<feGaussianBlur stdDeviation="5"/>
<feComposite in2="hardAlpha" operator="out"/>
<feColorMatrix type="matrix" values="0 0 0 0 0.839216 0 0 0 0 0.596078 0 0 0 0 0.054902 0 0 0 0.2 0"/>
<feBlend mode="normal" in2="BackgroundImageFix" result="effect1_dropShadow_423_11489"/>
<feBlend mode="normal" in="SourceGraphic" in2="effect1_dropShadow_423_11489" result="shape"/>
</filter>
<filter id="filter1_d_423_11489" x="102" y="2" width="116" height="46" filterUnits="userSpaceOnUse" color-interpolation-filters="sRGB">
<feFlood flood-opacity="0" result="BackgroundImageFix"/>
<feColorMatrix in="SourceAlpha" type="matrix" values="0 0 0 0 0 0 0 0 0 0 0 0 0 0 0 0 0 0 127 0" result="hardAlpha"/>
<feOffset/>
<feGaussianBlur stdDeviation="4"/>
<feComposite in2="hardAlpha" operator="out"/>
<feColorMatrix type="matrix" values="0 0 0 0 0.839216 0 0 0 0 0.596078 0 0 0 0 0.054902 0 0 0 0.15 0"/>
<feBlend mode="normal" in2="BackgroundImageFix" result="effect1_dropShadow_423_11489"/>
<feBlend mode="normal" in="SourceGraphic" in2="effect1_dropShadow_423_11489" result="shape"/>
</filter>
</defs>
</svg>
