<svg width="59" height="59" viewBox="0 0 59 59" fill="none" xmlns="http://www.w3.org/2000/svg">
<circle cx="29.5" cy="29.5" r="29" stroke="#C4C4C4" stroke-linecap="square" stroke-linejoin="round" stroke-dasharray="2 4"/>
<path d="M29.4865 36.7857C26.5162 36.7857 24.1022 34.3839 24.1022 31.4286C24.1022 28.4732 26.5162 26.0714 29.4865 26.0714C32.4568 26.0714 34.8708 28.4732 34.8708 31.4286C34.8708 34.3839 32.4568 36.7857 29.4865 36.7857ZM29.4865 27.5C27.3103 27.5 25.538 29.2634 25.538 31.4286C25.538 33.5938 27.3103 35.3571 29.4865 35.3571C31.6626 35.3571 33.435 33.5938 33.435 31.4286C33.435 29.2634 31.6626 27.5 29.4865 27.5ZM28.0507 31.4286C28.0507 30.6429 28.6968 30 29.4865 30C29.8813 30 30.2044 29.6786 30.2044 29.2857C30.2044 28.8929 29.8813 28.5714 29.4865 28.5714C27.9026 28.5714 26.6149 29.8527 26.6149 31.4286C26.6149 31.8214 26.9379 32.1429 27.3328 32.1429C27.7276 32.1429 28.0507 31.8214 28.0507 31.4286ZM32.551 21.4286C32.6991 21.4286 32.8337 21.5223 32.8876 21.6607L33.8792 24.2857H38.8193C39.2141 24.2857 39.5372 24.6071 39.5372 25V37.8571C39.5372 38.25 39.2141 38.5714 38.8193 38.5714H20.1537C19.7589 38.5714 19.4358 38.25 19.4358 37.8571V25C19.4358 24.6071 19.7589 24.2857 20.1537 24.2857H25.0983L26.0002 21.8929C26.1034 21.6161 26.3726 21.4286 26.6732 21.4286H32.551ZM32.551 20H26.6732C25.7758 20 24.9727 20.5536 24.6586 21.3884L24.1022 22.8571H20.1537C18.9647 22.8571 18 23.817 18 25V37.8571C18 39.0402 18.9647 40 20.1537 40H38.8193C40.0083 40 40.973 39.0402 40.973 37.8571V25C40.973 23.817 40.0083 22.8571 38.8193 22.8571H34.8708L34.2291 21.1607C33.9689 20.4598 33.3004 20 32.551 20Z" fill="#C4C4C4"/>
</svg>
