<svg width="18" height="21" viewBox="0 0 18 21" fill="none" xmlns="http://www.w3.org/2000/svg">
<path d="M17.4351 2.70461L15.3506 0.576639C14.9889 0.207426 14.4984 2.73031e-06 13.9869 0L7.07143 0C6.00629 0 5.14286 0.881426 5.14286 1.96875V3.9375H1.92857C0.863437 3.9375 0 4.81893 0 5.90625V19.0312C0 20.1186 0.863437 21 1.92857 21H10.9286C11.9937 21 12.8571 20.1186 12.8571 19.0312V17.0625H16.0714C17.1366 17.0625 18 16.1811 18 15.0938V4.09672C18 3.57458 17.7968 3.07382 17.4351 2.70461ZM14.1429 1.33264C14.2559 1.36111 14.3591 1.42061 14.4414 1.5047L16.526 3.63271C16.6083 3.71671 16.6666 3.82211 16.6945 3.9375H14.1429V1.33264ZM11.5714 19.0312C11.5714 19.3931 11.283 19.6875 10.9286 19.6875H1.92857C1.57412 19.6875 1.28571 19.3931 1.28571 19.0312V5.90625C1.28571 5.54441 1.57412 5.25 1.92857 5.25H5.14286V15.0938C5.14286 16.1811 6.00629 17.0625 7.07143 17.0625H11.5714V19.0312ZM16.7143 15.0938C16.7143 15.4556 16.4259 15.75 16.0714 15.75H7.07143C6.71697 15.75 6.42857 15.4556 6.42857 15.0938V1.96875C6.42857 1.60691 6.71697 1.3125 7.07143 1.3125H12.8571V4.26562C12.8571 4.80703 13.2911 5.25 13.8214 5.25H16.7143V15.0938Z" fill="#D6980E"/>
</svg>
