<svg width="22" height="21" viewBox="0 0 22 21" fill="none" xmlns="http://www.w3.org/2000/svg">
<path d="M20.1712 12.3588L21.9768 3.82754C22.1072 3.21156 21.6712 2.625 21.0829 2.625H6.08086L5.73077 0.78709C5.64353 0.328986 5.26816 0 4.8327 0H0.916667C0.410399 0 0 0.440713 0 0.984375V1.64062C0 2.18429 0.410399 2.625 0.916667 2.625H3.58581L6.26889 16.7112C5.627 17.1076 5.19444 17.8509 5.19444 18.7031C5.19444 19.9717 6.15205 21 7.33333 21C8.51461 21 9.47222 19.9717 9.47222 18.7031C9.47222 18.0602 9.22598 17.4794 8.82964 17.0625H16.837C16.4407 17.4794 16.1944 18.0602 16.1944 18.7031C16.1944 19.9717 17.1521 21 18.3333 21C19.5146 21 20.4722 19.9717 20.4722 18.7031C20.4722 17.7937 19.98 17.0079 19.2661 16.6357L19.4768 15.64C19.6072 15.0241 19.1712 14.4375 18.5829 14.4375H8.33086L8.08087 13.125H19.2774C19.7054 13.125 20.0764 12.807 20.1712 12.3588Z" fill="#D6980E"/>
</svg>
