<?xml version="1.0" encoding="UTF-8" standalone="no"?>
<!DOCTYPE svg PUBLIC "-//W3C//DTD SVG 1.1//EN" "http://www.w3.org/Graphics/SVG/1.1/DTD/svg11.dtd">
<svg width="100%" height="100%" viewBox="0 0 49 49" version="1.1" xmlns="http://www.w3.org/2000/svg" xmlns:xlink="http://www.w3.org/1999/xlink" xml:space="preserve" xmlns:serif="http://www.serif.com/" style="fill-rule:evenodd;clip-rule:evenodd;">
    <g>
        <g transform="matrix(1.68966,0,0,1.68966,-16.8966,-13.5172)">
            <circle cx="24.5" cy="22.5" r="14.5" style="fill:white;"/>
        </g>
        <g transform="matrix(1.68966,0,0,1.68966,-16.8966,-13.5172)">
            <circle cx="24.5" cy="22.5" r="14" style="fill:none;stroke:black;stroke-width:1px;"/>
        </g>
    </g>
    <g transform="matrix(1.68966,0,0,1.68966,-16.8966,-13.5172)">
        <path d="M29.919,23.062L30.986,18.187C31.063,17.835 30.806,17.5 30.458,17.5L21.593,17.5L21.386,16.45C21.335,16.188 21.113,16 20.856,16L18.542,16C18.243,16 18,16.252 18,16.563L18,16.938C18,17.248 18.243,17.5 18.542,17.5L20.119,17.5L21.704,25.549C21.325,25.776 21.069,26.201 21.069,26.688C21.069,27.412 21.635,28 22.333,28C23.031,28 23.597,27.412 23.597,26.688C23.597,26.32 23.452,25.988 23.218,25.75L27.949,25.75C27.715,25.988 27.569,26.32 27.569,26.688C27.569,27.412 28.135,28 28.833,28C29.531,28 30.097,27.412 30.097,26.688C30.097,26.168 29.806,25.719 29.385,25.506L29.509,24.937C29.586,24.585 29.328,24.25 28.981,24.25L22.923,24.25L22.775,23.5L29.391,23.5C29.644,23.5 29.863,23.318 29.919,23.062Z" style="fill-rule:nonzero;"/>
    </g>
</svg>
