<?xml version="1.0" encoding="UTF-8" standalone="no"?>
<!DOCTYPE svg PUBLIC "-//W3C//DTD SVG 1.1//EN" "http://www.w3.org/Graphics/SVG/1.1/DTD/svg11.dtd">
<svg width="100%" height="100%" viewBox="0 0 496 496" version="1.1" xmlns="http://www.w3.org/2000/svg" xmlns:xlink="http://www.w3.org/1999/xlink" xml:space="preserve" xmlns:serif="http://www.serif.com/" style="fill-rule:evenodd;clip-rule:evenodd;stroke-linejoin:round;stroke-miterlimit:2;">
    <g transform="matrix(1,0,0,1,0,-8)">
        <path d="M248,8C111,8 0,119 0,256C0,393 111,504 248,504C385,504 496,393 496,256C496,119 385,8 248,8ZM248,456C137.7,456 48,366.3 48,256C48,145.7 137.7,56 248,56C358.3,56 448,145.7 448,256C448,366.3 358.3,456 248,456ZM168,240C185.7,240 200,225.7 200,208C200,190.3 185.7,176 168,176C150.3,176 136,190.3 136,208C136,225.7 150.3,240 168,240ZM328,240C345.7,240 360,225.7 360,208C360,190.3 345.7,176 328,176C310.3,176 296,190.3 296,208C296,225.7 310.3,240 328,240ZM332,312.6C311.2,337.6 280.5,352 248,352C215.5,352 184.8,337.7 164,312.6C155.5,302.4 140.3,301.1 130.2,309.5C120,318 118.7,333.1 127.1,343.3C157.1,379.3 201.2,399.9 248,399.9C294.8,399.9 338.9,379.3 368.9,343.3C377.4,333.1 376,318 365.8,309.5C355.7,301.1 340.5,302.4 332,312.6Z" style="fill-rule:nonzero;"/>
    </g>
</svg>
