<svg width="16" height="16" viewBox="0 0 16 16" fill="none" xmlns="http://www.w3.org/2000/svg">
<circle cx="8" cy="8" r="8" fill="#FA0707"/>
<g clip-path="url(#clip0_424_11825)">
<path d="M8.7072 8.00048L11.8537 4.85428C12.0491 4.65896 12.0491 4.34228 11.8537 4.14698C11.6584 3.95166 11.3418 3.95166 11.1464 4.14698L8.00023 7.29351L4.85403 4.14698C4.65871 3.95166 4.34204 3.95166 4.14673 4.14698C3.95143 4.3423 3.95141 4.65897 4.14673 4.85428L7.29326 8.00048L4.14673 11.1467C3.95141 11.342 3.95141 11.6587 4.14673 11.854C4.34205 12.0493 4.65873 12.0493 4.85403 11.854L8.00023 8.70745L11.1464 11.854C11.3418 12.0493 11.6584 12.0493 11.8537 11.854C12.0491 11.6587 12.0491 11.342 11.8537 11.1467L8.7072 8.00048Z" fill="white"/>
</g>
<defs>
<clipPath id="clip0_424_11825">
<rect width="8" height="8" fill="white" transform="translate(4 4)"/>
</clipPath>
</defs>
</svg>
