<svg width="22" height="22" viewBox="0 0 22 22" fill="none" xmlns="http://www.w3.org/2000/svg">
<g clip-path="url(#clip0_191_3412)">
<path d="M2.82923 9.79374C3.49303 5.28281 7.68797 2.16409 12.1989 2.8279C13.7379 3.05436 15.1817 3.71106 16.3638 4.72232L15.2996 5.78647C14.943 6.14323 14.943 6.72161 15.2998 7.07828C15.4711 7.24947 15.7033 7.34568 15.9455 7.34572H20.1345C20.639 7.34572 21.048 6.93677 21.048 6.43229V2.24322C21.0478 1.73874 20.6388 1.32988 20.1343 1.32996C19.8922 1.33 19.6599 1.42622 19.4887 1.5974L18.3012 2.78487C13.7728 -1.25178 6.82939 -0.853143 2.79275 3.67526C1.36268 5.27951 0.434648 7.26805 0.12362 9.39455C0.000989787 10.1484 0.512704 10.859 1.26655 10.9816C1.33446 10.9927 1.40306 10.9986 1.47186 10.9995C2.16157 10.992 2.74051 10.4778 2.82923 9.79374Z" fill="#D6980E"/>
<path d="M20.5281 10.999C19.8384 11.0065 19.2595 11.5208 19.1708 12.2048C18.507 16.7157 14.312 19.8344 9.80111 19.1707C8.26207 18.9442 6.81835 18.2875 5.63623 17.2762L6.70038 16.2121C7.05705 15.8553 7.05697 15.2769 6.70017 14.9203C6.52894 14.7491 6.2967 14.6529 6.05456 14.6528H1.86558C1.3611 14.6528 0.952148 15.0618 0.952148 15.5663V19.7553C0.952277 20.2598 1.36131 20.6687 1.86579 20.6686C2.10793 20.6685 2.34017 20.5723 2.5114 20.4012L3.69886 19.2137C8.22619 23.2508 15.169 22.8534 19.2062 18.326C20.637 16.7214 21.5655 14.7322 21.8764 12.6049C21.9995 11.8511 21.4883 11.1402 20.7345 11.0171C20.6663 11.0059 20.5973 10.9998 20.5281 10.999Z" fill="#D6980E"/>
</g>
<defs>
<clipPath id="clip0_191_3412">
<rect width="22" height="22" fill="white"/>
</clipPath>
</defs>
</svg>
