<svg width="241" height="246" viewBox="0 0 241 246" fill="none" xmlns="http://www.w3.org/2000/svg">
<path d="M10.5884 2.49707L6.84082 14.8262C6.60482 15.5993 6.48682 16.0835 6.48682 16.2788C6.48682 16.6857 6.66178 16.9827 7.01172 17.1699C7.36979 17.349 7.76855 17.4385 8.20801 17.4385H8.64746L8.47656 18H1.38428L1.55518 17.4385H1.92139C2.43408 17.4385 2.86947 17.353 3.22754 17.1821C3.59375 17.0031 3.8501 16.7874 3.99658 16.5352C4.1512 16.2747 4.36279 15.7132 4.63135 14.8506L8.43994 2.35059C7.08903 2.22852 5.94157 2.16748 4.99756 2.16748C3.97217 2.16748 3.20312 2.25293 2.69043 2.42383C2.17773 2.59473 1.92139 2.85107 1.92139 3.19287C1.92139 3.32308 1.96615 3.50618 2.05566 3.74219C2.13704 3.97005 2.17773 4.14095 2.17773 4.25488C2.17773 4.47461 2.09635 4.66585 1.93359 4.82861C1.77897 4.98324 1.57552 5.06055 1.32324 5.06055C1.00586 5.06055 0.75765 4.93848 0.578613 4.69434C0.407715 4.4502 0.322266 4.17757 0.322266 3.87646C0.322266 3.22542 0.688477 2.65983 1.4209 2.17969C2.16146 1.69141 3.45947 1.44727 5.31494 1.44727C6.26709 1.44727 8.07373 1.55713 10.7349 1.77686C12.6392 1.93962 14.0674 2.021 15.0195 2.021C15.931 2.021 16.4355 1.78092 16.5332 1.30078C16.5983 0.958984 16.7692 0.788086 17.0459 0.788086C17.4365 0.788086 17.6318 0.995605 17.6318 1.41064C17.6318 2.29769 16.6919 2.74121 14.812 2.74121C13.9168 2.74121 12.509 2.65983 10.5884 2.49707ZM16.6675 18.1831H15.2148L19.4995 4.08398C19.7437 3.28646 19.8657 2.82259 19.8657 2.69238C19.8657 2.50521 19.8088 2.37093 19.6948 2.28955C19.589 2.20817 19.3205 2.16748 18.8892 2.16748H18.4985L18.645 1.65479C19.939 1.62223 20.8993 1.47575 21.5259 1.21533H21.8311L19.0601 10.3218C20.5249 8.54769 21.8595 7.66064 23.064 7.66064C23.6092 7.66064 24.0161 7.77458 24.2847 8.00244C24.5532 8.23031 24.6875 8.57617 24.6875 9.04004C24.6875 9.40625 24.4474 10.277 23.9673 11.6523L22.8931 14.7163C22.478 15.9126 22.2705 16.6043 22.2705 16.7915C22.2705 16.995 22.3112 17.1496 22.3926 17.2554C22.474 17.3612 22.596 17.4141 22.7588 17.4141C23.0518 17.4141 23.3813 17.2391 23.7476 16.8892C24.1138 16.5392 24.4271 16.1038 24.6875 15.583H25.2856C24.8706 16.4131 24.3783 17.0804 23.8086 17.585C23.2389 18.0895 22.6978 18.3418 22.1851 18.3418C21.8107 18.3418 21.4893 18.2035 21.2207 17.9268C20.9521 17.6501 20.8179 17.2839 20.8179 16.8281C20.8179 16.3398 21.0457 15.4731 21.5015 14.228L22.5391 11.4082C23.0192 10.1143 23.2593 9.30046 23.2593 8.9668C23.2593 8.76335 23.2023 8.61279 23.0884 8.51514C22.9826 8.40934 22.8158 8.35645 22.5879 8.35645C22.2217 8.35645 21.7904 8.507 21.2939 8.80811C20.7975 9.10107 20.2808 9.59749 19.7437 10.2974C19.2065 10.9891 18.8118 11.6401 18.5596 12.2505C18.3154 12.8608 17.994 13.8333 17.5952 15.168L16.6675 18.1831ZM31.7676 14.8872H32.3535C31.32 17.1903 29.9935 18.3418 28.374 18.3418C27.7067 18.3418 27.1615 18.1099 26.7383 17.646C26.3232 17.174 26.1157 16.5392 26.1157 15.7417C26.1157 14.7326 26.3843 13.5933 26.9214 12.3237C27.4666 11.0542 28.2357 9.95964 29.2285 9.04004C30.2295 8.12044 31.1003 7.66064 31.8408 7.66064C32.2965 7.66064 32.6424 7.80713 32.8784 8.1001C33.1144 8.38493 33.2324 8.743 33.2324 9.17432C33.2324 10.0532 32.793 10.8996 31.9141 11.7134C31.0352 12.519 29.7168 13.2962 27.959 14.0449C27.7311 14.7529 27.6172 15.4243 27.6172 16.0591C27.6172 16.5799 27.7189 16.9705 27.9224 17.231C28.1258 17.4914 28.4269 17.6216 28.8257 17.6216C29.9406 17.6216 30.9212 16.7101 31.7676 14.8872ZM28.1421 13.4224C29.1919 12.9504 30.1359 12.2993 30.9741 11.4692C31.8123 10.6392 32.2314 9.88639 32.2314 9.21094C32.2314 8.90169 32.1663 8.67383 32.0361 8.52734C31.9141 8.37272 31.7269 8.29541 31.4746 8.29541C30.9863 8.29541 30.4085 8.77148 29.7412 9.72363C29.082 10.6676 28.549 11.9006 28.1421 13.4224ZM48.5767 18.3784L36.8701 2.86328V14.3501C36.8701 15.3022 36.9149 15.9289 37.0044 16.23C37.1021 16.5311 37.3706 16.8078 37.8101 17.0601C38.2495 17.3123 38.9087 17.4385 39.7876 17.4385V18H33.6108V17.4385C34.4002 17.3815 35.0024 17.2391 35.4175 17.0112C35.8325 16.7752 36.0767 16.5229 36.1499 16.2544C36.2313 15.9858 36.272 15.3511 36.272 14.3501V5.57324C36.272 4.30371 36.2109 3.45329 36.0889 3.02197C35.9749 2.59066 35.7878 2.31396 35.5273 2.19189C35.2751 2.06982 34.7054 2.00879 33.8184 2.00879V1.44727H38.7012L48.5034 14.3989V4.49902C48.5034 3.7666 48.4261 3.25391 48.2715 2.96094C48.125 2.66797 47.8198 2.43604 47.356 2.26514C46.8921 2.09424 46.3346 2.00879 45.6836 2.00879V1.44727H51.6895V2.00879C50.9896 2.06576 50.4362 2.20003 50.0293 2.41162C49.6305 2.62321 49.3742 2.87956 49.2603 3.18066C49.1545 3.47363 49.1016 3.97412 49.1016 4.68213V18.3784H48.5767ZM53.2153 9.61377C53.2153 7.05843 54.0698 5.00765 55.7788 3.46143C57.4878 1.9152 59.62 1.14209 62.1753 1.14209C64.755 1.14209 66.9076 1.90706 68.6328 3.43701C70.3662 4.96696 71.2329 7.05436 71.2329 9.69922C71.2329 12.2627 70.4028 14.3379 68.7427 15.9248C67.0907 17.5117 64.9137 18.3052 62.2119 18.3052C59.5833 18.3052 57.4268 17.5117 55.7422 15.9248C54.0576 14.3379 53.2153 12.2342 53.2153 9.61377ZM56.0107 9.69922C56.0107 12.3604 56.5397 14.3582 57.5977 15.6929C58.6637 17.0275 60.2588 17.6948 62.3828 17.6948C64.2464 17.6948 65.7194 17.0275 66.8018 15.6929C67.8841 14.3582 68.4253 12.3685 68.4253 9.72363C68.4253 7.15202 67.8923 5.18262 66.8262 3.81543C65.7601 2.4401 64.2139 1.75244 62.1875 1.75244C60.1937 1.75244 58.6637 2.42383 57.5977 3.7666C56.5397 5.10124 56.0107 7.07878 56.0107 9.69922ZM81.2183 9.08887C83.0981 9.22721 84.4938 9.69515 85.4053 10.4927C86.3167 11.2902 86.7725 12.2871 86.7725 13.4834C86.7725 14.5251 86.4632 15.4243 85.8447 16.1812C85.2262 16.9299 84.4328 17.4222 83.4644 17.6582C82.5041 17.8861 81.2142 18 79.5947 18H73.1006V17.4385H73.7354C74.4434 17.4385 74.9316 17.349 75.2002 17.1699C75.4769 16.9909 75.6519 16.7142 75.7251 16.3398C75.7983 15.9574 75.835 15.0744 75.835 13.6909V5.63428C75.835 4.2915 75.7943 3.4248 75.7129 3.03418C75.6396 2.64355 75.4769 2.375 75.2246 2.22852C74.9805 2.08203 74.4393 2.00879 73.6011 2.00879H73.2837V1.44727L76.0059 1.37402L79.1064 1.27637C83.6312 1.27637 85.8936 2.57845 85.8936 5.18262C85.8936 6.25684 85.5029 7.11947 84.7217 7.77051C83.9486 8.42155 82.7808 8.861 81.2183 9.08887ZM78.2275 8.85693C78.431 8.86507 78.6019 8.86914 78.7402 8.86914C80.498 8.86914 81.6984 8.59245 82.3413 8.03906C82.9842 7.48568 83.3057 6.59049 83.3057 5.35352C83.3057 4.49089 83.1795 3.82357 82.9272 3.35156C82.675 2.87956 82.2965 2.51742 81.792 2.26514C81.2874 2.00472 80.4248 1.87451 79.2041 1.87451C78.8867 1.87451 78.5612 1.88672 78.2275 1.91113V8.85693ZM78.2275 9.45508V13.1416C78.2275 14.7122 78.256 15.7091 78.313 16.1323C78.37 16.5555 78.5205 16.877 78.7646 17.0967C79.0169 17.3164 79.5093 17.4263 80.2417 17.4263C81.5438 17.4263 82.5203 17.0926 83.1714 16.4253C83.8224 15.758 84.1479 14.757 84.1479 13.4224C84.1479 12.0552 83.7777 11.0501 83.0371 10.4072C82.3047 9.75618 81.0107 9.43066 79.1553 9.43066C78.8623 9.43066 78.5531 9.4388 78.2275 9.45508ZM89.1772 9.61377C89.1772 7.05843 90.0317 5.00765 91.7407 3.46143C93.4497 1.9152 95.5819 1.14209 98.1372 1.14209C100.717 1.14209 102.869 1.90706 104.595 3.43701C106.328 4.96696 107.195 7.05436 107.195 9.69922C107.195 12.2627 106.365 14.3379 104.705 15.9248C103.053 17.5117 100.876 18.3052 98.1738 18.3052C95.5452 18.3052 93.3887 17.5117 91.7041 15.9248C90.0195 14.3379 89.1772 12.2342 89.1772 9.61377ZM91.9727 9.69922C91.9727 12.3604 92.5016 14.3582 93.5596 15.6929C94.6257 17.0275 96.2207 17.6948 98.3447 17.6948C100.208 17.6948 101.681 17.0275 102.764 15.6929C103.846 14.3582 104.387 12.3685 104.387 9.72363C104.387 7.15202 103.854 5.18262 102.788 3.81543C101.722 2.4401 100.176 1.75244 98.1494 1.75244C96.1556 1.75244 94.6257 2.42383 93.5596 3.7666C92.5016 5.10124 91.9727 7.07878 91.9727 9.69922ZM115.923 5.42676H115.361L115.447 1.44727H131.511L131.597 5.42676H131.072C130.885 4.33626 130.628 3.55094 130.303 3.0708C129.977 2.58252 129.627 2.28548 129.253 2.17969C128.879 2.06576 128.24 2.00879 127.336 2.00879H124.675V13.6909C124.675 14.9849 124.704 15.8353 124.761 16.2422C124.826 16.6491 124.993 16.9502 125.261 17.1455C125.53 17.3408 126.034 17.4385 126.775 17.4385H127.581V18H119.329V17.4385H120.183C120.891 17.4385 121.379 17.349 121.648 17.1699C121.925 16.9909 122.1 16.7142 122.173 16.3398C122.254 15.9574 122.295 15.0744 122.295 13.6909V2.00879H119.841C118.775 2.00879 118.059 2.06169 117.693 2.16748C117.327 2.26514 116.981 2.57031 116.655 3.08301C116.338 3.5957 116.094 4.37695 115.923 5.42676ZM134.49 10.1509C134.766 9.4266 135.214 8.82031 135.833 8.33203C136.459 7.84375 137.069 7.59961 137.664 7.59961C138.201 7.59961 138.624 7.76644 138.933 8.1001C139.242 8.43376 139.397 8.77555 139.397 9.12549C139.397 9.36149 139.316 9.56494 139.153 9.73584C138.998 9.90674 138.807 9.99219 138.579 9.99219C138.172 9.99219 137.863 9.69108 137.651 9.08887C137.505 8.68197 137.285 8.47852 136.992 8.47852C136.642 8.47852 136.223 8.71859 135.735 9.19873C135.247 9.67074 134.933 10.1631 134.795 10.6758C134.657 11.1885 134.587 11.8924 134.587 12.7876V14.5698C134.587 15.6359 134.6 16.3073 134.624 16.584C134.657 16.8607 134.775 17.0723 134.978 17.2188C135.181 17.3652 135.544 17.4385 136.064 17.4385H136.406V18H131.096V17.4385H131.353C131.841 17.4385 132.187 17.3734 132.39 17.2432C132.602 17.1048 132.728 16.9136 132.769 16.6694C132.809 16.4253 132.83 15.7254 132.83 14.5698V11.75C132.83 10.6758 132.813 10.0044 132.781 9.73584C132.756 9.45915 132.642 9.24756 132.439 9.10107C132.236 8.94645 131.873 8.86914 131.353 8.86914H131.096V8.31982C131.861 8.23031 132.862 7.99023 134.099 7.59961C134.335 8.24251 134.465 9.09294 134.49 10.1509ZM150.469 16.1689H150.92C150.847 17.5605 150.164 18.2563 148.87 18.2563C148.316 18.2563 147.877 18.1099 147.551 17.8169C147.234 17.5239 147.026 17.0885 146.929 16.5107C146.115 17.0885 145.37 17.5239 144.695 17.8169C144.028 18.1099 143.429 18.2563 142.9 18.2563C142.225 18.2563 141.643 18.061 141.155 17.6704C140.667 17.2798 140.422 16.763 140.422 16.1201C140.422 15.2819 140.829 14.5495 141.643 13.9229C142.465 13.2962 143.596 12.6859 145.037 12.0918L146.929 11.3228V10.8345C146.929 10.1427 146.884 9.64225 146.794 9.33301C146.705 9.02376 146.473 8.74707 146.099 8.50293C145.724 8.25879 145.232 8.13672 144.622 8.13672C143.401 8.13672 142.721 8.54362 142.583 9.35742C142.453 10.1875 142.111 10.6025 141.558 10.6025C141.061 10.6025 140.813 10.3665 140.813 9.89453C140.813 9.43066 141.143 8.93424 141.802 8.40527C142.461 7.86816 143.486 7.59961 144.878 7.59961C145.911 7.59961 146.713 7.76237 147.283 8.08789C147.852 8.41341 148.227 8.78369 148.406 9.19873C148.593 9.61377 148.687 10.2485 148.687 11.103V15.1436C148.687 16.0876 148.735 16.6938 148.833 16.9624C148.931 17.231 149.142 17.3652 149.468 17.3652C150.005 17.3652 150.339 16.9665 150.469 16.1689ZM146.929 11.8965L145.598 12.4336C143.499 13.2881 142.449 14.3623 142.449 15.6562C142.449 16.1689 142.583 16.584 142.852 16.9014C143.12 17.2106 143.47 17.3652 143.901 17.3652C144.284 17.3652 144.727 17.2391 145.232 16.9868C145.736 16.7345 146.302 16.3561 146.929 15.8516V11.8965ZM160.564 9.06445V5.1582C160.564 4.09212 160.548 3.42074 160.515 3.14404C160.491 2.86735 160.377 2.65576 160.173 2.50928C159.97 2.36279 159.608 2.28955 159.087 2.28955H158.831V1.72803C159.815 1.70361 160.894 1.53271 162.065 1.21533H162.322V14.6553C162.322 15.819 162.342 16.527 162.383 16.7793C162.424 17.0316 162.55 17.2188 162.761 17.3408C162.981 17.4629 163.384 17.5239 163.97 17.5239V18.0854C162.79 18.1099 161.74 18.2157 160.82 18.4028C160.723 18.0203 160.674 17.4181 160.674 16.5962C160.072 17.1984 159.449 17.6501 158.806 17.9512C158.171 18.2523 157.512 18.4028 156.829 18.4028C155.535 18.4028 154.416 17.882 153.472 16.8403C152.536 15.7987 152.068 14.5373 152.068 13.0562C152.068 11.4285 152.548 10.1143 153.508 9.11328C154.469 8.10417 155.612 7.59961 156.938 7.59961C157.614 7.59961 158.253 7.72168 158.855 7.96582C159.457 8.20996 160.027 8.57617 160.564 9.06445ZM160.564 9.77246C160.027 9.30859 159.486 8.96273 158.94 8.73486C158.403 8.49886 157.862 8.38086 157.317 8.38086C156.397 8.38086 155.628 8.73486 155.01 9.44287C154.399 10.1509 154.094 11.3065 154.094 12.9097C154.094 14.5373 154.408 15.7376 155.034 16.5107C155.669 17.2839 156.45 17.6704 157.378 17.6704C157.996 17.6704 158.57 17.5239 159.099 17.231C159.628 16.938 160.116 16.4985 160.564 15.9126V9.77246ZM174.199 11.3838H167.229C167.196 11.8639 167.18 12.222 167.18 12.458C167.18 14.2158 167.453 15.5382 167.998 16.4253C168.551 17.3042 169.373 17.7437 170.464 17.7437C171.945 17.7437 172.995 17.0804 173.613 15.7539H174.199C173.939 16.584 173.422 17.235 172.649 17.707C171.876 18.1709 171.034 18.4028 170.122 18.4028C169.276 18.4028 168.474 18.1912 167.717 17.7681C166.969 17.3368 166.354 16.7305 165.874 15.9492C165.394 15.168 165.154 14.2199 165.154 13.105C165.154 11.5262 165.618 10.216 166.545 9.17432C167.473 8.12451 168.633 7.59961 170.024 7.59961C171.335 7.59961 172.348 7.99837 173.064 8.7959C173.78 9.59342 174.159 10.4561 174.199 11.3838ZM172.063 10.8955C172.087 10.7083 172.1 10.5415 172.1 10.395C172.1 9.67887 171.888 9.12549 171.465 8.73486C171.05 8.3361 170.537 8.13672 169.927 8.13672C168.446 8.13672 167.563 9.05632 167.278 10.8955H172.063ZM194.963 1.44727L195.098 5.57324H194.524C194.41 4.66992 194.154 3.92529 193.755 3.33936C193.364 2.74528 192.953 2.375 192.522 2.22852C192.091 2.08203 191.362 2.00879 190.337 2.00879H187.102V9.02783H188.652C189.653 9.02783 190.317 8.861 190.642 8.52734C190.976 8.18555 191.143 7.50602 191.143 6.48877H191.753V12.3237H191.143C191.143 11.6157 191.069 11.0583 190.923 10.6514C190.785 10.2363 190.573 9.95557 190.288 9.80908C190.011 9.65446 189.466 9.57715 188.652 9.57715H187.102V13.6909C187.102 14.993 187.135 15.8475 187.2 16.2544C187.265 16.6532 187.428 16.9502 187.688 17.1455C187.957 17.3408 188.469 17.4385 189.226 17.4385H189.788V18H182.097V17.4385H182.61C183.318 17.4385 183.806 17.349 184.075 17.1699C184.351 16.9909 184.526 16.7142 184.6 16.3398C184.681 15.9574 184.722 15.0744 184.722 13.6909V5.57324C184.722 4.25488 184.681 3.40446 184.6 3.02197C184.526 2.63949 184.364 2.375 184.111 2.22852C183.867 2.08203 183.326 2.00879 182.488 2.00879H182.195V1.44727H194.963ZM203.35 11.3838H196.379C196.347 11.8639 196.331 12.222 196.331 12.458C196.331 14.2158 196.603 15.5382 197.148 16.4253C197.702 17.3042 198.524 17.7437 199.614 17.7437C201.095 17.7437 202.145 17.0804 202.764 15.7539H203.35C203.089 16.584 202.572 17.235 201.799 17.707C201.026 18.1709 200.184 18.4028 199.272 18.4028C198.426 18.4028 197.625 18.1912 196.868 17.7681C196.119 17.3368 195.505 16.7305 195.024 15.9492C194.544 15.168 194.304 14.2199 194.304 13.105C194.304 11.5262 194.768 10.216 195.696 9.17432C196.624 8.12451 197.783 7.59961 199.175 7.59961C200.485 7.59961 201.498 7.99837 202.214 8.7959C202.931 9.59342 203.309 10.4561 203.35 11.3838ZM201.213 10.8955C201.238 10.7083 201.25 10.5415 201.25 10.395C201.25 9.67887 201.038 9.12549 200.615 8.73486C200.2 8.3361 199.688 8.13672 199.077 8.13672C197.596 8.13672 196.713 9.05632 196.428 10.8955H201.213ZM214.287 11.3838H207.317C207.284 11.8639 207.268 12.222 207.268 12.458C207.268 14.2158 207.541 15.5382 208.086 16.4253C208.639 17.3042 209.461 17.7437 210.552 17.7437C212.033 17.7437 213.083 17.0804 213.701 15.7539H214.287C214.027 16.584 213.51 17.235 212.737 17.707C211.964 18.1709 211.121 18.4028 210.21 18.4028C209.364 18.4028 208.562 18.1912 207.805 17.7681C207.056 17.3368 206.442 16.7305 205.962 15.9492C205.482 15.168 205.242 14.2199 205.242 13.105C205.242 11.5262 205.706 10.216 206.633 9.17432C207.561 8.12451 208.721 7.59961 210.112 7.59961C211.423 7.59961 212.436 7.99837 213.152 8.7959C213.868 9.59342 214.246 10.4561 214.287 11.3838ZM212.151 10.8955C212.175 10.7083 212.188 10.5415 212.188 10.395C212.188 9.67887 211.976 9.12549 211.553 8.73486C211.138 8.3361 210.625 8.13672 210.015 8.13672C208.534 8.13672 207.651 9.05632 207.366 10.8955H212.151ZM223.162 2.49707C223.162 2.14714 223.284 1.84603 223.528 1.59375C223.78 1.34147 224.081 1.21533 224.431 1.21533C224.781 1.21533 225.078 1.34147 225.322 1.59375C225.566 1.84603 225.688 2.14714 225.688 2.49707C225.688 2.85514 225.566 3.16032 225.322 3.4126C225.078 3.66488 224.781 3.79102 224.431 3.79102C224.081 3.79102 223.78 3.66488 223.528 3.4126C223.284 3.16032 223.162 2.85514 223.162 2.49707ZM225.518 7.59961V14.5698C225.518 15.6359 225.534 16.3073 225.566 16.584C225.599 16.8607 225.717 17.0723 225.92 17.2188C226.124 17.3652 226.486 17.4385 227.007 17.4385H227.263V18H221.88V17.4385H222.295C222.873 17.4385 223.247 17.3571 223.418 17.1943C223.597 17.0234 223.699 16.8241 223.723 16.5962C223.756 16.3602 223.772 15.6847 223.772 14.5698V11.5425C223.772 10.3706 223.715 9.65446 223.601 9.39404C223.495 9.13363 223.349 8.97087 223.162 8.90576C222.983 8.84066 222.665 8.80811 222.209 8.80811H221.88V8.24658C223.328 8.1001 224.451 7.88444 225.249 7.59961H225.518ZM228.752 18.3174V15.0337H229.229C229.782 16.9299 230.771 17.8779 232.195 17.8779C232.813 17.8779 233.273 17.6908 233.574 17.3164C233.883 16.9421 234.038 16.5311 234.038 16.0835C234.038 15.5627 233.875 15.1354 233.55 14.8018C233.216 14.4681 232.569 14.0653 231.609 13.5933C230.6 13.0968 229.875 12.6086 229.436 12.1284C228.997 11.6564 228.777 11.0745 228.777 10.3828C228.777 9.72363 229.013 9.09701 229.485 8.50293C229.957 7.90072 230.62 7.59961 231.475 7.59961C232.345 7.59961 233.066 7.95361 233.635 8.66162C233.757 8.53955 233.916 8.24251 234.111 7.77051H234.563V10.8589H234.111C233.949 10.1183 233.631 9.48356 233.159 8.95459C232.695 8.41748 232.146 8.14893 231.511 8.14893C231.023 8.14893 230.628 8.29948 230.327 8.60059C230.026 8.90169 229.875 9.25163 229.875 9.65039C229.875 10.0898 230.042 10.4683 230.376 10.7856C230.701 11.1112 231.324 11.4814 232.244 11.8965C233.627 12.5231 234.473 13.1335 234.783 13.7275C235.092 14.3298 235.247 14.9076 235.247 15.4609C235.247 16.3317 234.958 17.0397 234.38 17.585C233.81 18.1302 233.09 18.4028 232.219 18.4028C231.3 18.4028 230.482 18.0244 229.766 17.2676C229.546 17.5117 229.367 17.8617 229.229 18.3174H228.752ZM237.932 8.625C237.932 8.27507 238.054 7.96989 238.298 7.70947C238.551 7.44092 238.864 7.30664 239.238 7.30664C239.604 7.30664 239.914 7.43685 240.166 7.69727C240.426 7.94954 240.557 8.25879 240.557 8.625C240.557 8.98307 240.426 9.29232 240.166 9.55273C239.906 9.80501 239.596 9.93115 239.238 9.93115C238.872 9.93115 238.563 9.80094 238.311 9.54053C238.058 9.28011 237.932 8.97493 237.932 8.625ZM237.932 17.0845C237.932 16.7264 238.058 16.4212 238.311 16.1689C238.571 15.9085 238.88 15.7783 239.238 15.7783C239.604 15.7783 239.914 15.9085 240.166 16.1689C240.426 16.4212 240.557 16.7264 240.557 17.0845C240.557 17.4507 240.426 17.7599 240.166 18.0122C239.906 18.2726 239.596 18.4028 239.238 18.4028C238.872 18.4028 238.563 18.2686 238.311 18C238.058 17.7396 237.932 17.4344 237.932 17.0845Z" fill="black"/>
<path d="M88.7687 71V63.824H85.8647V62.54H93.2087V63.824H90.3047V71H88.7687ZM94.1818 71V62.54H95.7178V66.068H100.074V62.54H101.61V71H100.074V67.352H95.7178V71H94.1818ZM103.463 71V62.54H109.091V63.764H104.939V66.092H108.827V67.316H104.939V69.776H109.091V71H103.463ZM115.898 71V63.824H112.994V62.54H120.338V63.824H117.434V71H115.898ZM124.587 71.12C123.771 71.12 123.055 70.94 122.439 70.58C121.831 70.22 121.359 69.716 121.023 69.068C120.687 68.412 120.519 67.644 120.519 66.764C120.519 65.876 120.687 65.108 121.023 64.46C121.359 63.812 121.831 63.312 122.439 62.96C123.047 62.6 123.763 62.42 124.587 62.42C125.411 62.42 126.127 62.6 126.735 62.96C127.343 63.312 127.815 63.812 128.151 64.46C128.487 65.108 128.655 65.872 128.655 66.752C128.655 67.64 128.487 68.412 128.151 69.068C127.815 69.716 127.343 70.22 126.735 70.58C126.127 70.94 125.411 71.12 124.587 71.12ZM124.587 69.8C125.363 69.8 125.967 69.532 126.399 68.996C126.831 68.46 127.047 67.716 127.047 66.764C127.047 65.804 126.831 65.06 126.399 64.532C125.975 64.004 125.371 63.74 124.587 63.74C123.811 63.74 123.207 64.004 122.775 64.532C122.343 65.06 122.127 65.804 122.127 66.764C122.127 67.716 122.343 68.46 122.775 68.996C123.207 69.532 123.811 69.8 124.587 69.8ZM131.741 71V63.824H128.837V62.54H136.181V63.824H133.277V71H131.741ZM135.305 71L139.133 62.54H140.393L144.221 71H142.661L141.821 69.044H137.693L136.865 71H135.305ZM139.745 64.208L138.221 67.82H141.293L139.769 64.208H139.745ZM145.147 71V62.54H146.683V69.692H150.739V71H145.147ZM58.2765 91V83.824H55.3725V82.54H62.7165V83.824H59.8125V91H58.2765ZM63.6896 91V82.54H67.3616C68.2896 82.54 69.0056 82.764 69.5096 83.212C70.0136 83.652 70.2656 84.272 70.2656 85.072C70.2656 85.704 70.1016 86.228 69.7736 86.644C69.4456 87.052 68.9736 87.328 68.3576 87.472C68.7656 87.6 69.1016 87.908 69.3656 88.396L70.7816 91H69.0896L67.6256 88.3C67.4816 88.036 67.3096 87.856 67.1096 87.76C66.9176 87.664 66.6696 87.616 66.3656 87.616H65.2256V91H63.6896ZM65.2256 86.476H67.0976C68.2176 86.476 68.7776 86.02 68.7776 85.108C68.7776 84.204 68.2176 83.752 67.0976 83.752H65.2256V86.476ZM70.8518 91L74.6798 82.54H75.9398L79.7678 91H78.2078L77.3678 89.044H73.2398L72.4118 91H70.8518ZM75.2918 84.208L73.7678 87.82H76.8398L75.3158 84.208H75.2918ZM80.6935 91V82.54H81.8455L86.3935 88.444V82.54H87.8215V91H86.6815L82.1215 85.072V91H80.6935ZM92.5861 91.12C91.9221 91.12 91.3061 91.036 90.7381 90.868C90.1701 90.692 89.6901 90.456 89.2981 90.16L89.7661 88.948C90.1581 89.228 90.5861 89.444 91.0501 89.596C91.5221 89.748 92.0341 89.824 92.5861 89.824C93.2181 89.824 93.6781 89.72 93.9661 89.512C94.2541 89.296 94.3981 89.02 94.3981 88.684C94.3981 88.404 94.2941 88.184 94.0861 88.024C93.8861 87.864 93.5381 87.732 93.0421 87.628L91.7221 87.352C90.2181 87.032 89.4661 86.26 89.4661 85.036C89.4661 84.508 89.6061 84.048 89.8861 83.656C90.1661 83.264 90.5541 82.96 91.0501 82.744C91.5461 82.528 92.1181 82.42 92.7661 82.42C93.3421 82.42 93.8821 82.508 94.3861 82.684C94.8901 82.852 95.3101 83.092 95.6461 83.404L95.1781 84.556C94.5141 83.996 93.7061 83.716 92.7541 83.716C92.2021 83.716 91.7701 83.832 91.4581 84.064C91.1461 84.296 90.9901 84.6 90.9901 84.976C90.9901 85.264 91.0861 85.496 91.2781 85.672C91.4701 85.84 91.7981 85.972 92.2621 86.068L93.5701 86.344C94.3621 86.512 94.9501 86.776 95.3341 87.136C95.7261 87.496 95.9221 87.976 95.9221 88.576C95.9221 89.08 95.7861 89.524 95.5141 89.908C95.2421 90.292 94.8541 90.592 94.3501 90.808C93.8541 91.016 93.2661 91.12 92.5861 91.12ZM96.2698 91L100.098 82.54H101.358L105.186 91H103.626L102.786 89.044H98.6578L97.8298 91H96.2698ZM100.71 84.208L99.1858 87.82H102.258L100.734 84.208H100.71ZM109.872 91.12C108.992 91.12 108.236 90.944 107.604 90.592C106.98 90.232 106.5 89.728 106.164 89.08C105.828 88.424 105.66 87.652 105.66 86.764C105.66 85.876 105.828 85.108 106.164 84.46C106.5 83.812 106.98 83.312 107.604 82.96C108.236 82.6 108.992 82.42 109.872 82.42C110.44 82.42 110.976 82.508 111.48 82.684C111.992 82.86 112.412 83.112 112.74 83.44L112.236 84.664C111.876 84.36 111.508 84.14 111.132 84.004C110.756 83.86 110.352 83.788 109.92 83.788C109.064 83.788 108.412 84.048 107.964 84.568C107.516 85.08 107.292 85.812 107.292 86.764C107.292 87.716 107.516 88.452 107.964 88.972C108.412 89.492 109.064 89.752 109.92 89.752C110.352 89.752 110.756 89.684 111.132 89.548C111.508 89.404 111.876 89.18 112.236 88.876L112.74 90.1C112.412 90.42 111.992 90.672 111.48 90.856C110.976 91.032 110.44 91.12 109.872 91.12ZM116.003 91V83.824H113.099V82.54H120.443V83.824H117.539V91H116.003ZM121.416 91V82.54H122.952V91H121.416ZM128.583 91.12C127.767 91.12 127.051 90.94 126.435 90.58C125.827 90.22 125.355 89.716 125.019 89.068C124.683 88.412 124.515 87.644 124.515 86.764C124.515 85.876 124.683 85.108 125.019 84.46C125.355 83.812 125.827 83.312 126.435 82.96C127.043 82.6 127.759 82.42 128.583 82.42C129.407 82.42 130.123 82.6 130.731 82.96C131.339 83.312 131.811 83.812 132.147 84.46C132.483 85.108 132.651 85.872 132.651 86.752C132.651 87.64 132.483 88.412 132.147 89.068C131.811 89.716 131.339 90.22 130.731 90.58C130.123 90.94 129.407 91.12 128.583 91.12ZM128.583 89.8C129.359 89.8 129.963 89.532 130.395 88.996C130.827 88.46 131.043 87.716 131.043 86.764C131.043 85.804 130.827 85.06 130.395 84.532C129.971 84.004 129.367 83.74 128.583 83.74C127.807 83.74 127.203 84.004 126.771 84.532C126.339 85.06 126.123 85.804 126.123 86.764C126.123 87.716 126.339 88.46 126.771 88.996C127.203 89.532 127.807 89.8 128.583 89.8ZM134.213 91V82.54H135.365L139.913 88.444V82.54H141.341V91H140.201L135.641 85.072V91H134.213ZM149.136 91L145.368 82.54H147.012L149.808 89.032L152.604 82.54H154.188L150.42 91H149.136ZM153.352 91L157.18 82.54H158.44L162.268 91H160.708L159.868 89.044H155.74L154.912 91H153.352ZM157.792 84.208L156.268 87.82H159.34L157.816 84.208H157.792ZM163.194 91V82.54H164.73V89.692H168.786V91H163.194ZM173.108 91.12C171.948 91.12 171.06 90.82 170.444 90.22C169.836 89.612 169.532 88.716 169.532 87.532V82.54H171.068V87.52C171.068 88.28 171.24 88.852 171.584 89.236C171.936 89.612 172.444 89.8 173.108 89.8C174.46 89.8 175.136 89.04 175.136 87.52V82.54H176.66V87.532C176.66 88.716 176.36 89.612 175.76 90.22C175.16 90.82 174.276 91.12 173.108 91.12ZM178.451 91V82.54H184.079V83.764H179.927V86.092H183.815V87.316H179.927V89.776H184.079V91H178.451Z" fill="black"/>
<path d="M25.7586 150.1C21.8919 142.7 19.0253 135.267 17.1586 127.8C15.2919 120.267 14.3586 112.567 14.3586 104.7C14.3586 96.8333 15.2919 89.1667 17.1586 81.7C19.0253 74.2333 21.8919 66.7667 25.7586 59.3L30.4586 61C24.0586 75.5333 20.8586 90.1 20.8586 104.7C20.8586 119.3 24.0586 133.867 30.4586 148.4L25.7586 150.1Z" fill="black"/>
<path d="M219.159 149.1L214.559 147.4C220.892 132.667 224.059 118.1 224.059 103.7C224.059 89.3 220.892 74.7333 214.559 60L219.159 58.3C223.092 65.7667 225.992 73.2667 227.859 80.8C229.725 88.2667 230.659 95.9 230.659 103.7C230.659 111.567 229.725 119.267 227.859 126.8C225.992 134.267 223.092 141.7 219.159 149.1Z" fill="black"/>
<path d="M12.8173 245V235.73H9.06732V234.425H18.1123V235.73H14.3623V245H12.8173ZM19.4072 245V234.425H20.9672V238.985H26.8922V234.425H28.4372V245H26.8922V240.29H20.9672V245H19.4072ZM30.9063 245V234.425H37.7463V235.685H32.4063V239H37.4313V240.26H32.4063V243.74H37.7463V245H30.9063ZM46.2597 245V235.73H42.5097V234.425H51.5547V235.73H47.8047V245H46.2597ZM52.8496 245V234.425H57.2296C58.3696 234.425 59.2496 234.7 59.8696 235.25C60.4896 235.79 60.7996 236.55 60.7996 237.53C60.7996 238.32 60.5896 238.97 60.1696 239.48C59.7496 239.98 59.1546 240.315 58.3846 240.485C58.8646 240.645 59.2696 241.03 59.5996 241.64L61.4296 245H59.7196L57.8896 241.625C57.6796 241.235 57.4346 240.975 57.1546 240.845C56.8846 240.705 56.5346 240.635 56.1046 240.635H54.4096V245H52.8496ZM54.4096 239.465H56.9746C58.5146 239.465 59.2846 238.83 59.2846 237.56C59.2846 236.3 58.5146 235.67 56.9746 235.67H54.4096V239.465ZM61.7602 245L66.4702 234.425H67.7602L72.4852 245H70.8952L69.7852 242.42H64.4302L63.3352 245H61.7602ZM67.1002 236.15L64.9852 241.16H69.2602L67.1302 236.15H67.1002ZM73.8701 245V234.425H77.6051C79.3451 234.425 80.6851 234.88 81.6251 235.79C82.5751 236.7 83.0501 238.005 83.0501 239.705C83.0501 241.405 82.5751 242.715 81.6251 243.635C80.6851 244.545 79.3451 245 77.6051 245H73.8701ZM75.4301 243.695H77.5151C80.1251 243.695 81.4301 242.365 81.4301 239.705C81.4301 237.055 80.1251 235.73 77.5151 235.73H75.4301V243.695ZM85.1348 245V234.425H91.9748V235.685H86.6348V239H91.6598V240.26H86.6348V243.74H91.9748V245H85.1348ZM100.488 245V235.73H96.7382V234.425H105.783V235.73H102.033V245H100.488ZM107.078 245V234.425H111.458C112.598 234.425 113.478 234.7 114.098 235.25C114.718 235.79 115.028 236.55 115.028 237.53C115.028 238.32 114.818 238.97 114.398 239.48C113.978 239.98 113.383 240.315 112.613 240.485C113.093 240.645 113.498 241.03 113.828 241.64L115.658 245H113.948L112.118 241.625C111.908 241.235 111.663 240.975 111.383 240.845C111.113 240.705 110.763 240.635 110.333 240.635H108.638V245H107.078ZM108.638 239.465H111.203C112.743 239.465 113.513 238.83 113.513 237.56C113.513 236.3 112.743 235.67 111.203 235.67H108.638V239.465ZM115.989 245L120.699 234.425H121.989L126.714 245H125.124L124.014 242.42H118.659L117.564 245H115.989ZM121.329 236.15L119.214 241.16H123.489L121.359 236.15H121.329ZM128.099 245V234.425H129.284L135.344 242.42V234.425H136.784V245H135.629L129.539 236.975V245H128.099ZM142.771 245.135C141.941 245.135 141.181 245.03 140.491 244.82C139.801 244.6 139.216 244.295 138.736 243.905L139.231 242.675C139.731 243.055 140.266 243.34 140.836 243.53C141.406 243.72 142.051 243.815 142.771 243.815C143.621 243.815 144.246 243.665 144.646 243.365C145.056 243.055 145.261 242.655 145.261 242.165C145.261 241.765 145.116 241.45 144.826 241.22C144.536 240.98 144.051 240.79 143.371 240.65L141.766 240.32C140.816 240.12 140.106 239.79 139.636 239.33C139.176 238.87 138.946 238.25 138.946 237.47C138.946 236.84 139.111 236.285 139.441 235.805C139.781 235.325 140.251 234.955 140.851 234.695C141.451 234.425 142.141 234.29 142.921 234.29C143.641 234.29 144.306 234.4 144.916 234.62C145.536 234.83 146.061 235.14 146.491 235.55L145.981 236.735C145.131 235.985 144.106 235.61 142.906 235.61C142.166 235.61 141.576 235.775 141.136 236.105C140.706 236.435 140.491 236.875 140.491 237.425C140.491 237.845 140.626 238.18 140.896 238.43C141.166 238.68 141.616 238.87 142.246 239L143.836 239.33C144.836 239.54 145.581 239.865 146.071 240.305C146.561 240.735 146.806 241.32 146.806 242.06C146.806 242.68 146.641 243.22 146.311 243.68C145.981 244.14 145.516 244.5 144.916 244.76C144.316 245.01 143.601 245.135 142.771 245.135ZM147.468 245L152.178 234.425H153.468L158.193 245H156.603L155.493 242.42H150.138L149.043 245H147.468ZM152.808 236.15L150.693 241.16H154.968L152.838 236.15H152.808ZM164.113 245.135C163.043 245.135 162.128 244.915 161.368 244.475C160.608 244.035 160.023 243.41 159.613 242.6C159.213 241.78 159.013 240.815 159.013 239.705C159.013 238.595 159.213 237.635 159.613 236.825C160.023 236.015 160.608 235.39 161.368 234.95C162.128 234.51 163.043 234.29 164.113 234.29C164.833 234.29 165.503 234.405 166.123 234.635C166.753 234.855 167.278 235.175 167.698 235.595L167.158 236.84C166.698 236.43 166.223 236.135 165.733 235.955C165.253 235.765 164.728 235.67 164.158 235.67C163.018 235.67 162.148 236.02 161.548 236.72C160.948 237.42 160.648 238.415 160.648 239.705C160.648 240.995 160.948 241.995 161.548 242.705C162.148 243.405 163.018 243.755 164.158 243.755C164.728 243.755 165.253 243.665 165.733 243.485C166.223 243.295 166.698 242.995 167.158 242.585L167.698 243.83C167.278 244.24 166.753 244.56 166.123 244.79C165.503 245.02 164.833 245.135 164.113 245.135ZM171.943 245V235.73H168.193V234.425H177.238V235.73H173.488V245H171.943ZM178.533 245V234.425H180.093V245H178.533ZM187.122 245.135C186.112 245.135 185.237 244.915 184.497 244.475C183.757 244.025 183.182 243.395 182.772 242.585C182.372 241.765 182.172 240.805 182.172 239.705C182.172 238.595 182.372 237.635 182.772 236.825C183.182 236.015 183.757 235.39 184.497 234.95C185.237 234.51 186.112 234.29 187.122 234.29C188.122 234.29 188.992 234.51 189.732 234.95C190.482 235.39 191.057 236.015 191.457 236.825C191.867 237.635 192.072 238.59 192.072 239.69C192.072 240.8 191.867 241.765 191.457 242.585C191.057 243.395 190.482 244.025 189.732 244.475C188.992 244.915 188.122 245.135 187.122 245.135ZM187.122 243.785C188.172 243.785 188.987 243.43 189.567 242.72C190.157 242 190.452 240.995 190.452 239.705C190.452 238.415 190.162 237.415 189.582 236.705C189.002 235.995 188.182 235.64 187.122 235.64C186.072 235.64 185.252 235.995 184.662 236.705C184.082 237.415 183.792 238.415 183.792 239.705C183.792 240.995 184.082 242 184.662 242.72C185.252 243.43 186.072 243.785 187.122 243.785ZM194.163 245V234.425H195.348L201.408 242.42V234.425H202.848V245H201.693L195.603 236.975V245H194.163ZM209.251 245V234.425H215.971V235.685H210.811V239.06H215.656V240.32H210.811V245H209.251ZM217.557 245V234.425H224.397V235.685H219.057V239H224.082V240.26H219.057V243.74H224.397V245H217.557ZM226.39 245V234.425H233.23V235.685H227.89V239H232.915V240.26H227.89V243.74H233.23V245H226.39Z" fill="black"/>
<path d="M128 184L108 204" stroke="black" stroke-width="2" stroke-linecap="round" stroke-linejoin="round"/>
<path d="M108 184L128 204" stroke="black" stroke-width="2" stroke-linecap="round" stroke-linejoin="round"/>
<path d="M111.208 148V144.2L120.328 134.48C121.554 133.147 122.434 131.973 122.968 130.96C123.501 129.92 123.768 128.867 123.768 127.8C123.768 125.08 122.128 123.72 118.848 123.72C116.288 123.72 113.928 124.68 111.768 126.6L110.048 122.76C111.168 121.747 112.568 120.933 114.248 120.32C115.928 119.707 117.674 119.4 119.488 119.4C122.501 119.4 124.808 120.08 126.408 121.44C128.034 122.8 128.848 124.747 128.848 127.28C128.848 128.987 128.434 130.627 127.608 132.2C126.808 133.773 125.541 135.467 123.808 137.28L117.608 143.76H129.928V148H111.208Z" fill="black"/>
<line x1="38" y1="105.5" x2="208" y2="105.5" stroke="#D6980E"/>
</svg>
