<svg width="375" height="78" viewBox="0 0 375 78" fill="none" xmlns="http://www.w3.org/2000/svg">
<g filter="url(#filter0_bd_234_2843)">
<path d="M0 8H375V78H0V8Z" fill="#F7F8FA"/>
</g>
<path d="M53.4994 36.5356V45.4988C53.4994 46.3307 52.8306 47 51.9993 47H44.7485C44.336 47 43.9984 46.6622 43.9984 46.2494V39.2439C43.9984 38.8311 43.6609 38.4934 43.2484 38.4934H38.7479C38.3354 38.4934 37.9978 38.8311 37.9978 39.2439V46.2494C37.9978 46.6622 37.6603 47 37.2478 47H29.997C29.1657 47 28.4969 46.3307 28.4969 45.4988V36.5356C28.4969 36.3104 28.5969 36.0977 28.7719 35.9539L40.5231 26.2713C40.7981 26.0461 41.1982 26.0461 41.4794 26.2713L53.2306 35.9539C53.3994 36.0977 53.4994 36.3104 53.4994 36.5356ZM58.725 32.7263L53.4994 28.4167V19.7537C53.4994 19.3409 53.1619 19.0031 52.7493 19.0031H49.249C48.8364 19.0031 48.4989 19.3409 48.4989 19.7537V24.2948L42.9046 19.6849C41.7982 18.7717 40.1981 18.7717 39.0917 19.6849L23.2713 32.7263C22.9525 32.9891 22.9088 33.4644 23.1713 33.7834L24.7652 35.7224C25.0278 36.0414 25.5028 36.0852 25.8216 35.8225L40.5231 23.7068C40.7981 23.4816 41.1982 23.4816 41.4794 23.7068L56.181 35.8225C56.4997 36.0852 56.9748 36.0414 57.2373 35.7224L58.8312 33.7834C59.0937 33.4582 59.0437 32.9891 58.725 32.7263Z" fill="#00D6B6"/>
<path d="M27.73 57.86H28.98V60.7H32.23V57.86H33.48V65H32.23V61.78H28.98V65H27.73V57.86ZM37.1868 65.14C36.7735 65.14 36.4035 65.0733 36.0768 64.94C35.7568 64.8 35.4835 64.61 35.2568 64.37C35.0368 64.13 34.8668 63.8433 34.7468 63.51C34.6335 63.1767 34.5768 62.81 34.5768 62.41C34.5768 62.0167 34.6335 61.6533 34.7468 61.32C34.8668 60.9867 35.0368 60.7 35.2568 60.46C35.4835 60.22 35.7568 60.0333 36.0768 59.9C36.4035 59.76 36.7735 59.69 37.1868 59.69C37.6001 59.69 37.9668 59.76 38.2868 59.9C38.6135 60.0333 38.8868 60.22 39.1068 60.46C39.3335 60.7 39.5035 60.9867 39.6168 61.32C39.7368 61.6533 39.7968 62.0167 39.7968 62.41C39.7968 62.81 39.7368 63.1767 39.6168 63.51C39.5035 63.8433 39.3335 64.13 39.1068 64.37C38.8868 64.61 38.6135 64.8 38.2868 64.94C37.9668 65.0733 37.6001 65.14 37.1868 65.14ZM37.1868 64.24C37.4401 64.24 37.6601 64.1867 37.8468 64.08C38.0335 63.9733 38.1868 63.8333 38.3068 63.66C38.4268 63.4867 38.5135 63.2933 38.5668 63.08C38.6268 62.86 38.6568 62.6367 38.6568 62.41C38.6568 62.19 38.6268 61.97 38.5668 61.75C38.5135 61.53 38.4268 61.3367 38.3068 61.17C38.1868 60.9967 38.0335 60.8567 37.8468 60.75C37.6601 60.6433 37.4401 60.59 37.1868 60.59C36.9335 60.59 36.7135 60.6433 36.5268 60.75C36.3401 60.8567 36.1868 60.9967 36.0668 61.17C35.9468 61.3367 35.8568 61.53 35.7968 61.75C35.7435 61.97 35.7168 62.19 35.7168 62.41C35.7168 62.6367 35.7435 62.86 35.7968 63.08C35.8568 63.2933 35.9468 63.4867 36.0668 63.66C36.1868 63.8333 36.3401 63.9733 36.5268 64.08C36.7135 64.1867 36.9335 64.24 37.1868 64.24ZM40.7445 59.83H41.8245V60.55H41.8545C41.9412 60.4233 42.0345 60.3067 42.1345 60.2C42.2345 60.0933 42.3445 60.0033 42.4645 59.93C42.5912 59.8567 42.7345 59.8 42.8945 59.76C43.0545 59.7133 43.2379 59.69 43.4445 59.69C43.7579 59.69 44.0479 59.76 44.3145 59.9C44.5879 60.04 44.7812 60.2567 44.8945 60.55C45.0879 60.2833 45.3112 60.0733 45.5645 59.92C45.8179 59.7667 46.1345 59.69 46.5145 59.69C47.0612 59.69 47.4845 59.8233 47.7845 60.09C48.0912 60.3567 48.2445 60.8033 48.2445 61.43V65H47.1045V61.98C47.1045 61.7733 47.0979 61.5867 47.0845 61.42C47.0712 61.2467 47.0312 61.1 46.9645 60.98C46.9045 60.8533 46.8112 60.7567 46.6845 60.69C46.5579 60.6233 46.3845 60.59 46.1645 60.59C45.7779 60.59 45.4979 60.71 45.3245 60.95C45.1512 61.19 45.0645 61.53 45.0645 61.97V65H43.9245V61.68C43.9245 61.32 43.8579 61.05 43.7245 60.87C43.5979 60.6833 43.3612 60.59 43.0145 60.59C42.8679 60.59 42.7245 60.62 42.5845 60.68C42.4512 60.74 42.3312 60.8267 42.2245 60.94C42.1245 61.0533 42.0412 61.1933 41.9745 61.36C41.9145 61.5267 41.8845 61.7167 41.8845 61.93V65H40.7445V59.83ZM52.9957 61.96C52.9824 61.78 52.9424 61.6067 52.8757 61.44C52.8157 61.2733 52.729 61.13 52.6157 61.01C52.509 60.8833 52.3757 60.7833 52.2157 60.71C52.0624 60.63 51.889 60.59 51.6957 60.59C51.4957 60.59 51.3124 60.6267 51.1457 60.7C50.9857 60.7667 50.8457 60.8633 50.7257 60.99C50.6124 61.11 50.519 61.2533 50.4457 61.42C50.379 61.5867 50.3424 61.7667 50.3357 61.96H52.9957ZM50.3357 62.71C50.3357 62.91 50.3624 63.1033 50.4157 63.29C50.4757 63.4767 50.5624 63.64 50.6757 63.78C50.789 63.92 50.9324 64.0333 51.1057 64.12C51.279 64.2 51.4857 64.24 51.7257 64.24C52.059 64.24 52.3257 64.17 52.5257 64.03C52.7324 63.8833 52.8857 63.6667 52.9857 63.38H54.0657C54.0057 63.66 53.9024 63.91 53.7557 64.13C53.609 64.35 53.4324 64.5367 53.2257 64.69C53.019 64.8367 52.7857 64.9467 52.5257 65.02C52.2724 65.1 52.0057 65.14 51.7257 65.14C51.319 65.14 50.959 65.0733 50.6457 64.94C50.3324 64.8067 50.0657 64.62 49.8457 64.38C49.6324 64.14 49.469 63.8533 49.3557 63.52C49.249 63.1867 49.1957 62.82 49.1957 62.42C49.1957 62.0533 49.2524 61.7067 49.3657 61.38C49.4857 61.0467 49.6524 60.7567 49.8657 60.51C50.0857 60.2567 50.349 60.0567 50.6557 59.91C50.9624 59.7633 51.309 59.69 51.6957 59.69C52.1024 59.69 52.4657 59.7767 52.7857 59.95C53.1124 60.1167 53.3824 60.34 53.5957 60.62C53.809 60.9 53.9624 61.2233 54.0557 61.59C54.1557 61.95 54.1824 62.3233 54.1357 62.71H50.3357Z" fill="#00D6B6"/>
<path d="M196.626 28.2458C196.91 28.0198 197.333 28.2312 197.333 28.5885V43.5C197.333 45.4323 195.766 47 193.833 47H163.5C161.568 47 160 45.4323 160 43.5V28.5958C160 28.2312 160.416 28.0271 160.707 28.2531C162.341 29.5219 164.506 31.1333 171.944 36.5365C173.482 37.6594 176.078 40.0219 178.667 40.0073C181.27 40.0292 183.917 37.6156 185.397 36.5365C192.834 31.1333 194.993 29.5146 196.626 28.2458ZM178.667 37.6667C180.358 37.6958 182.794 35.5375 184.019 34.6479C193.695 27.626 194.431 27.0135 196.662 25.2635C197.085 24.9354 197.333 24.425 197.333 23.8854V22.5C197.333 20.5677 195.766 19 193.833 19H163.5C161.568 19 160 20.5677 160 22.5V23.8854C160 24.425 160.248 24.9281 160.671 25.2635C162.902 27.0062 163.639 27.626 173.315 34.6479C174.54 35.5375 176.975 37.6958 178.667 37.6667Z" fill="#D6D6D6"/>
<path d="M155.8 57.86V65H156.7V59.06H156.72L158.95 65H159.76L161.99 59.06H162.01V65H162.91V57.86H161.61L159.35 63.86L157.1 57.86H155.8ZM167.941 61.92H164.971C164.984 61.72 165.028 61.5333 165.101 61.36C165.174 61.18 165.274 61.0233 165.401 60.89C165.528 60.7567 165.678 60.6533 165.851 60.58C166.031 60.5 166.231 60.46 166.451 60.46C166.664 60.46 166.858 60.5 167.031 60.58C167.211 60.6533 167.364 60.7567 167.491 60.89C167.624 61.0167 167.728 61.17 167.801 61.35C167.881 61.53 167.928 61.72 167.941 61.92ZM168.761 63.36H167.921C167.848 63.7 167.694 63.9533 167.461 64.12C167.234 64.2867 166.941 64.37 166.581 64.37C166.301 64.37 166.058 64.3233 165.851 64.23C165.644 64.1367 165.474 64.0133 165.341 63.86C165.208 63.7 165.111 63.52 165.051 63.32C164.991 63.1133 164.964 62.8967 164.971 62.67H168.841C168.854 62.3567 168.824 62.0267 168.751 61.68C168.684 61.3333 168.558 61.0133 168.371 60.72C168.191 60.4267 167.948 60.1867 167.641 60C167.341 59.8067 166.961 59.71 166.501 59.71C166.148 59.71 165.821 59.7767 165.521 59.91C165.228 60.0433 164.971 60.23 164.751 60.47C164.538 60.71 164.371 60.9933 164.251 61.32C164.131 61.6467 164.071 62.0067 164.071 62.4C164.084 62.7933 164.141 63.1567 164.241 63.49C164.348 63.8233 164.504 64.11 164.711 64.35C164.918 64.59 165.171 64.7767 165.471 64.91C165.778 65.0433 166.138 65.11 166.551 65.11C167.138 65.11 167.624 64.9633 168.011 64.67C168.398 64.3767 168.648 63.94 168.761 63.36ZM170.242 63.37H169.392C169.405 63.69 169.472 63.9633 169.592 64.19C169.712 64.41 169.872 64.59 170.072 64.73C170.272 64.8633 170.502 64.96 170.762 65.02C171.022 65.08 171.295 65.11 171.582 65.11C171.842 65.11 172.102 65.0833 172.362 65.03C172.629 64.9833 172.865 64.8967 173.072 64.77C173.285 64.6433 173.455 64.4767 173.582 64.27C173.715 64.0633 173.782 63.8033 173.782 63.49C173.782 63.2433 173.732 63.0367 173.632 62.87C173.539 62.7033 173.412 62.5667 173.252 62.46C173.099 62.3467 172.919 62.2567 172.712 62.19C172.512 62.1233 172.305 62.0667 172.092 62.02C171.892 61.9733 171.692 61.93 171.492 61.89C171.292 61.8433 171.112 61.79 170.952 61.73C170.792 61.6633 170.659 61.5833 170.552 61.49C170.452 61.39 170.402 61.2667 170.402 61.12C170.402 60.9867 170.435 60.88 170.502 60.8C170.569 60.7133 170.655 60.6467 170.762 60.6C170.869 60.5467 170.985 60.51 171.112 60.49C171.245 60.47 171.375 60.46 171.502 60.46C171.642 60.46 171.779 60.4767 171.912 60.51C172.052 60.5367 172.179 60.5833 172.292 60.65C172.405 60.7167 172.499 60.8067 172.572 60.92C172.645 61.0267 172.689 61.1633 172.702 61.33H173.552C173.532 61.0167 173.465 60.7567 173.352 60.55C173.239 60.3367 173.085 60.17 172.892 60.05C172.705 59.9233 172.489 59.8367 172.242 59.79C171.995 59.7367 171.725 59.71 171.432 59.71C171.205 59.71 170.975 59.74 170.742 59.8C170.515 59.8533 170.309 59.94 170.122 60.06C169.942 60.1733 169.792 60.3233 169.672 60.51C169.559 60.6967 169.502 60.92 169.502 61.18C169.502 61.5133 169.585 61.7733 169.752 61.96C169.919 62.1467 170.125 62.2933 170.372 62.4C170.625 62.5 170.899 62.58 171.192 62.64C171.485 62.6933 171.755 62.7567 172.002 62.83C172.255 62.8967 172.465 62.9867 172.632 63.1C172.799 63.2133 172.882 63.38 172.882 63.6C172.882 63.76 172.842 63.8933 172.762 64C172.682 64.1 172.579 64.1767 172.452 64.23C172.332 64.2833 172.199 64.32 172.052 64.34C171.905 64.36 171.765 64.37 171.632 64.37C171.459 64.37 171.289 64.3533 171.122 64.32C170.962 64.2867 170.815 64.2333 170.682 64.16C170.555 64.08 170.452 63.9767 170.372 63.85C170.292 63.7167 170.249 63.5567 170.242 63.37ZM175.242 63.37H174.392C174.405 63.69 174.472 63.9633 174.592 64.19C174.712 64.41 174.872 64.59 175.072 64.73C175.272 64.8633 175.502 64.96 175.762 65.02C176.022 65.08 176.295 65.11 176.582 65.11C176.842 65.11 177.102 65.0833 177.362 65.03C177.629 64.9833 177.865 64.8967 178.072 64.77C178.285 64.6433 178.455 64.4767 178.582 64.27C178.715 64.0633 178.782 63.8033 178.782 63.49C178.782 63.2433 178.732 63.0367 178.632 62.87C178.539 62.7033 178.412 62.5667 178.252 62.46C178.099 62.3467 177.919 62.2567 177.712 62.19C177.512 62.1233 177.305 62.0667 177.092 62.02C176.892 61.9733 176.692 61.93 176.492 61.89C176.292 61.8433 176.112 61.79 175.952 61.73C175.792 61.6633 175.659 61.5833 175.552 61.49C175.452 61.39 175.402 61.2667 175.402 61.12C175.402 60.9867 175.435 60.88 175.502 60.8C175.569 60.7133 175.655 60.6467 175.762 60.6C175.869 60.5467 175.985 60.51 176.112 60.49C176.245 60.47 176.375 60.46 176.502 60.46C176.642 60.46 176.779 60.4767 176.912 60.51C177.052 60.5367 177.179 60.5833 177.292 60.65C177.405 60.7167 177.499 60.8067 177.572 60.92C177.645 61.0267 177.689 61.1633 177.702 61.33H178.552C178.532 61.0167 178.465 60.7567 178.352 60.55C178.239 60.3367 178.085 60.17 177.892 60.05C177.705 59.9233 177.489 59.8367 177.242 59.79C176.995 59.7367 176.725 59.71 176.432 59.71C176.205 59.71 175.975 59.74 175.742 59.8C175.515 59.8533 175.309 59.94 175.122 60.06C174.942 60.1733 174.792 60.3233 174.672 60.51C174.559 60.6967 174.502 60.92 174.502 61.18C174.502 61.5133 174.585 61.7733 174.752 61.96C174.919 62.1467 175.125 62.2933 175.372 62.4C175.625 62.5 175.899 62.58 176.192 62.64C176.485 62.6933 176.755 62.7567 177.002 62.83C177.255 62.8967 177.465 62.9867 177.632 63.1C177.799 63.2133 177.882 63.38 177.882 63.6C177.882 63.76 177.842 63.8933 177.762 64C177.682 64.1 177.579 64.1767 177.452 64.23C177.332 64.2833 177.199 64.32 177.052 64.34C176.905 64.36 176.765 64.37 176.632 64.37C176.459 64.37 176.289 64.3533 176.122 64.32C175.962 64.2867 175.815 64.2333 175.682 64.16C175.555 64.08 175.452 63.9767 175.372 63.85C175.292 63.7167 175.249 63.5567 175.242 63.37ZM184.302 64.98C184.155 65.0667 183.952 65.11 183.692 65.11C183.472 65.11 183.295 65.05 183.162 64.93C183.035 64.8033 182.972 64.6 182.972 64.32C182.739 64.6 182.465 64.8033 182.152 64.93C181.845 65.05 181.512 65.11 181.152 65.11C180.919 65.11 180.695 65.0833 180.482 65.03C180.275 64.9767 180.095 64.8933 179.942 64.78C179.789 64.6667 179.665 64.52 179.572 64.34C179.485 64.1533 179.442 63.93 179.442 63.67C179.442 63.3767 179.492 63.1367 179.592 62.95C179.692 62.7633 179.822 62.6133 179.982 62.5C180.149 62.38 180.335 62.29 180.542 62.23C180.755 62.17 180.972 62.12 181.192 62.08C181.425 62.0333 181.645 62 181.852 61.98C182.065 61.9533 182.252 61.92 182.412 61.88C182.572 61.8333 182.699 61.77 182.792 61.69C182.885 61.6033 182.932 61.48 182.932 61.32C182.932 61.1333 182.895 60.9833 182.822 60.87C182.755 60.7567 182.665 60.67 182.552 60.61C182.445 60.55 182.322 60.51 182.182 60.49C182.049 60.47 181.915 60.46 181.782 60.46C181.422 60.46 181.122 60.53 180.882 60.67C180.642 60.8033 180.512 61.06 180.492 61.44H179.642C179.655 61.12 179.722 60.85 179.842 60.63C179.962 60.41 180.122 60.2333 180.322 60.1C180.522 59.96 180.749 59.86 181.002 59.8C181.262 59.74 181.539 59.71 181.832 59.71C182.065 59.71 182.295 59.7267 182.522 59.76C182.755 59.7933 182.965 59.8633 183.152 59.97C183.339 60.07 183.489 60.2133 183.602 60.4C183.715 60.5867 183.772 60.83 183.772 61.13V63.79C183.772 63.99 183.782 64.1367 183.802 64.23C183.829 64.3233 183.909 64.37 184.042 64.37C184.115 64.37 184.202 64.3533 184.302 64.32V64.98ZM182.922 62.33C182.815 62.41 182.675 62.47 182.502 62.51C182.329 62.5433 182.145 62.5733 181.952 62.6C181.765 62.62 181.575 62.6467 181.382 62.68C181.189 62.7067 181.015 62.7533 180.862 62.82C180.709 62.8867 180.582 62.9833 180.482 63.11C180.389 63.23 180.342 63.3967 180.342 63.61C180.342 63.75 180.369 63.87 180.422 63.97C180.482 64.0633 180.555 64.14 180.642 64.2C180.735 64.26 180.842 64.3033 180.962 64.33C181.082 64.3567 181.209 64.37 181.342 64.37C181.622 64.37 181.862 64.3333 182.062 64.26C182.262 64.18 182.425 64.0833 182.552 63.97C182.679 63.85 182.772 63.7233 182.832 63.59C182.892 63.45 182.922 63.32 182.922 63.2V62.33ZM189.553 64.56V59.83H188.753V60.57H188.743C188.59 60.2833 188.376 60.07 188.103 59.93C187.83 59.7833 187.53 59.71 187.203 59.71C186.756 59.71 186.38 59.7967 186.073 59.97C185.766 60.1367 185.52 60.3533 185.333 60.62C185.146 60.88 185.013 61.1733 184.933 61.5C184.853 61.82 184.813 62.1333 184.813 62.44C184.813 62.7933 184.86 63.13 184.953 63.45C185.053 63.7633 185.2 64.04 185.393 64.28C185.586 64.5133 185.826 64.7 186.113 64.84C186.4 64.98 186.736 65.05 187.123 65.05C187.456 65.05 187.77 64.9767 188.063 64.83C188.363 64.6767 188.586 64.44 188.733 64.12H188.753V64.46C188.753 64.7467 188.723 65.01 188.663 65.25C188.61 65.49 188.52 65.6933 188.393 65.86C188.266 66.0333 188.106 66.1667 187.913 66.26C187.72 66.36 187.483 66.41 187.203 66.41C187.063 66.41 186.916 66.3933 186.763 66.36C186.61 66.3333 186.466 66.2867 186.333 66.22C186.206 66.1533 186.096 66.0667 186.003 65.96C185.916 65.8533 185.87 65.7233 185.863 65.57H185.013C185.026 65.85 185.1 66.0867 185.233 66.28C185.366 66.4733 185.533 66.63 185.733 66.75C185.94 66.87 186.166 66.9567 186.413 67.01C186.666 67.0633 186.913 67.09 187.153 67.09C187.98 67.09 188.586 66.88 188.973 66.46C189.36 66.04 189.553 65.4067 189.553 64.56ZM187.173 64.31C186.893 64.31 186.66 64.2533 186.473 64.14C186.286 64.02 186.136 63.8667 186.023 63.68C185.91 63.4867 185.83 63.2733 185.783 63.04C185.736 62.8067 185.713 62.5733 185.713 62.34C185.713 62.0933 185.74 61.8567 185.793 61.63C185.853 61.4033 185.943 61.2033 186.063 61.03C186.19 60.8567 186.35 60.72 186.543 60.62C186.736 60.5133 186.97 60.46 187.243 60.46C187.51 60.46 187.736 60.5133 187.923 60.62C188.11 60.7267 188.26 60.87 188.373 61.05C188.493 61.2233 188.58 61.42 188.633 61.64C188.686 61.86 188.713 62.0833 188.713 62.31C188.713 62.55 188.683 62.79 188.623 63.03C188.57 63.27 188.483 63.4867 188.363 63.68C188.243 63.8667 188.083 64.02 187.883 64.14C187.69 64.2533 187.453 64.31 187.173 64.31ZM194.425 61.92H191.455C191.469 61.72 191.512 61.5333 191.585 61.36C191.659 61.18 191.759 61.0233 191.885 60.89C192.012 60.7567 192.162 60.6533 192.335 60.58C192.515 60.5 192.715 60.46 192.935 60.46C193.149 60.46 193.342 60.5 193.515 60.58C193.695 60.6533 193.849 60.7567 193.975 60.89C194.109 61.0167 194.212 61.17 194.285 61.35C194.365 61.53 194.412 61.72 194.425 61.92ZM195.245 63.36H194.405C194.332 63.7 194.179 63.9533 193.945 64.12C193.719 64.2867 193.425 64.37 193.065 64.37C192.785 64.37 192.542 64.3233 192.335 64.23C192.129 64.1367 191.959 64.0133 191.825 63.86C191.692 63.7 191.595 63.52 191.535 63.32C191.475 63.1133 191.449 62.8967 191.455 62.67H195.325C195.339 62.3567 195.309 62.0267 195.235 61.68C195.169 61.3333 195.042 61.0133 194.855 60.72C194.675 60.4267 194.432 60.1867 194.125 60C193.825 59.8067 193.445 59.71 192.985 59.71C192.632 59.71 192.305 59.7767 192.005 59.91C191.712 60.0433 191.455 60.23 191.235 60.47C191.022 60.71 190.855 60.9933 190.735 61.32C190.615 61.6467 190.555 62.0067 190.555 62.4C190.569 62.7933 190.625 63.1567 190.725 63.49C190.832 63.8233 190.989 64.11 191.195 64.35C191.402 64.59 191.655 64.7767 191.955 64.91C192.262 65.0433 192.622 65.11 193.035 65.11C193.622 65.11 194.109 64.9633 194.495 64.67C194.882 64.3767 195.132 63.94 195.245 63.36ZM196.726 63.37H195.876C195.89 63.69 195.956 63.9633 196.076 64.19C196.196 64.41 196.356 64.59 196.556 64.73C196.756 64.8633 196.986 64.96 197.246 65.02C197.506 65.08 197.78 65.11 198.066 65.11C198.326 65.11 198.586 65.0833 198.846 65.03C199.113 64.9833 199.35 64.8967 199.556 64.77C199.77 64.6433 199.94 64.4767 200.066 64.27C200.2 64.0633 200.266 63.8033 200.266 63.49C200.266 63.2433 200.216 63.0367 200.116 62.87C200.023 62.7033 199.896 62.5667 199.736 62.46C199.583 62.3467 199.403 62.2567 199.196 62.19C198.996 62.1233 198.79 62.0667 198.576 62.02C198.376 61.9733 198.176 61.93 197.976 61.89C197.776 61.8433 197.596 61.79 197.436 61.73C197.276 61.6633 197.143 61.5833 197.036 61.49C196.936 61.39 196.886 61.2667 196.886 61.12C196.886 60.9867 196.92 60.88 196.986 60.8C197.053 60.7133 197.14 60.6467 197.246 60.6C197.353 60.5467 197.47 60.51 197.596 60.49C197.73 60.47 197.86 60.46 197.986 60.46C198.126 60.46 198.263 60.4767 198.396 60.51C198.536 60.5367 198.663 60.5833 198.776 60.65C198.89 60.7167 198.983 60.8067 199.056 60.92C199.13 61.0267 199.173 61.1633 199.186 61.33H200.036C200.016 61.0167 199.95 60.7567 199.836 60.55C199.723 60.3367 199.57 60.17 199.376 60.05C199.19 59.9233 198.973 59.8367 198.726 59.79C198.48 59.7367 198.21 59.71 197.916 59.71C197.69 59.71 197.46 59.74 197.226 59.8C197 59.8533 196.793 59.94 196.606 60.06C196.426 60.1733 196.276 60.3233 196.156 60.51C196.043 60.6967 195.986 60.92 195.986 61.18C195.986 61.5133 196.07 61.7733 196.236 61.96C196.403 62.1467 196.61 62.2933 196.856 62.4C197.11 62.5 197.383 62.58 197.676 62.64C197.97 62.6933 198.24 62.7567 198.486 62.83C198.74 62.8967 198.95 62.9867 199.116 63.1C199.283 63.2133 199.366 63.38 199.366 63.6C199.366 63.76 199.326 63.8933 199.246 64C199.166 64.1 199.063 64.1767 198.936 64.23C198.816 64.2833 198.683 64.32 198.536 64.34C198.39 64.36 198.25 64.37 198.116 64.37C197.943 64.37 197.773 64.3533 197.606 64.32C197.446 64.2867 197.3 64.2333 197.166 64.16C197.04 64.08 196.936 63.9767 196.856 63.85C196.776 63.7167 196.733 63.5567 196.726 63.37Z" fill="#D6D6D6"/>
<g clip-path="url(#clip0_234_2843)">
<path d="M120.809 44.643L114.17 38.0039C114.044 37.8781 113.88 37.8125 113.705 37.8125H112.983C114.705 35.8164 115.75 33.2188 115.75 30.375C115.75 24.0914 110.659 19 104.375 19C98.0914 19 93 24.0914 93 30.375C93 36.6586 98.0914 41.75 104.375 41.75C107.219 41.75 109.816 40.7055 111.812 38.9828V39.7047C111.812 39.8797 111.884 40.0438 112.004 40.1695L118.643 46.8086C118.9 47.0656 119.316 47.0656 119.573 46.8086L120.809 45.5727C121.066 45.3156 121.066 44.9 120.809 44.643ZM104.375 39.125C99.5406 39.125 95.625 35.2094 95.625 30.375C95.625 25.5406 99.5406 21.625 104.375 21.625C109.209 21.625 113.125 25.5406 113.125 30.375C113.125 35.2094 109.209 39.125 104.375 39.125Z" fill="#D6D6D6"/>
</g>
<path d="M89.78 57.86V65H94.74V64.2H90.73V61.73H94.44V60.93H90.73V58.66H94.71V57.86H89.78ZM97.1433 62.28L95.2033 65H96.2333L97.6733 62.86L99.1133 65H100.203L98.2033 62.21L99.9833 59.83H98.9633L97.6733 61.64L96.4333 59.83H95.3433L97.1433 62.28ZM100.959 59.83V66.97H101.809V64.31H101.829C101.922 64.4633 102.036 64.5933 102.169 64.7C102.309 64.8 102.456 64.88 102.609 64.94C102.762 65 102.916 65.0433 103.069 65.07C103.229 65.0967 103.372 65.11 103.499 65.11C103.892 65.11 104.236 65.04 104.529 64.9C104.829 64.76 105.076 64.57 105.269 64.33C105.469 64.0833 105.616 63.7967 105.709 63.47C105.809 63.1433 105.859 62.7967 105.859 62.43C105.859 62.0633 105.809 61.7167 105.709 61.39C105.609 61.0633 105.459 60.7767 105.259 60.53C105.066 60.2767 104.819 60.0767 104.519 59.93C104.226 59.7833 103.879 59.71 103.479 59.71C103.119 59.71 102.789 59.7767 102.489 59.91C102.189 60.0367 101.969 60.2433 101.829 60.53H101.809V59.83H100.959ZM104.959 62.37C104.959 62.6233 104.932 62.87 104.879 63.11C104.826 63.35 104.739 63.5633 104.619 63.75C104.499 63.9367 104.339 64.0867 104.139 64.2C103.946 64.3133 103.702 64.37 103.409 64.37C103.116 64.37 102.866 64.3167 102.659 64.21C102.452 64.0967 102.282 63.95 102.149 63.77C102.022 63.59 101.929 63.3833 101.869 63.15C101.809 62.91 101.779 62.6633 101.779 62.41C101.779 62.17 101.806 61.9333 101.859 61.7C101.919 61.4667 102.012 61.26 102.139 61.08C102.266 60.8933 102.429 60.7433 102.629 60.63C102.829 60.5167 103.072 60.46 103.359 60.46C103.632 60.46 103.869 60.5133 104.069 60.62C104.276 60.7267 104.442 60.87 104.569 61.05C104.702 61.23 104.799 61.4367 104.859 61.67C104.926 61.8967 104.959 62.13 104.959 62.37ZM106.907 57.86V65H107.757V57.86H106.907ZM109.694 62.42C109.694 62.1067 109.734 61.83 109.814 61.59C109.9 61.3433 110.017 61.1367 110.164 60.97C110.31 60.8033 110.48 60.6767 110.674 60.59C110.874 60.5033 111.084 60.46 111.304 60.46C111.524 60.46 111.73 60.5033 111.924 60.59C112.124 60.6767 112.297 60.8033 112.444 60.97C112.59 61.1367 112.704 61.3433 112.784 61.59C112.87 61.83 112.914 62.1067 112.914 62.42C112.914 62.7333 112.87 63.0133 112.784 63.26C112.704 63.5 112.59 63.7033 112.444 63.87C112.297 64.03 112.124 64.1533 111.924 64.24C111.73 64.3267 111.524 64.37 111.304 64.37C111.084 64.37 110.874 64.3267 110.674 64.24C110.48 64.1533 110.31 64.03 110.164 63.87C110.017 63.7033 109.9 63.5 109.814 63.26C109.734 63.0133 109.694 62.7333 109.694 62.42ZM108.794 62.42C108.794 62.8 108.847 63.1533 108.954 63.48C109.06 63.8067 109.22 64.0933 109.434 64.34C109.647 64.58 109.91 64.77 110.224 64.91C110.537 65.0433 110.897 65.11 111.304 65.11C111.717 65.11 112.077 65.0433 112.384 64.91C112.697 64.77 112.96 64.58 113.174 64.34C113.387 64.0933 113.547 63.8067 113.654 63.48C113.76 63.1533 113.814 62.8 113.814 62.42C113.814 62.04 113.76 61.6867 113.654 61.36C113.547 61.0267 113.387 60.74 113.174 60.5C112.96 60.2533 112.697 60.06 112.384 59.92C112.077 59.78 111.717 59.71 111.304 59.71C110.897 59.71 110.537 59.78 110.224 59.92C109.91 60.06 109.647 60.2533 109.434 60.5C109.22 60.74 109.06 61.0267 108.954 61.36C108.847 61.6867 108.794 62.04 108.794 62.42ZM114.786 59.83V65H115.636V62.7C115.636 62.3667 115.669 62.0733 115.736 61.82C115.802 61.56 115.909 61.34 116.056 61.16C116.202 60.98 116.396 60.8433 116.636 60.75C116.876 60.6567 117.166 60.61 117.506 60.61V59.71C117.046 59.6967 116.666 59.79 116.366 59.99C116.066 60.19 115.812 60.5 115.606 60.92H115.586V59.83H114.786ZM121.56 61.92H118.59C118.603 61.72 118.647 61.5333 118.72 61.36C118.793 61.18 118.893 61.0233 119.02 60.89C119.147 60.7567 119.297 60.6533 119.47 60.58C119.65 60.5 119.85 60.46 120.07 60.46C120.283 60.46 120.477 60.5 120.65 60.58C120.83 60.6533 120.983 60.7567 121.11 60.89C121.243 61.0167 121.347 61.17 121.42 61.35C121.5 61.53 121.547 61.72 121.56 61.92ZM122.38 63.36H121.54C121.467 63.7 121.313 63.9533 121.08 64.12C120.853 64.2867 120.56 64.37 120.2 64.37C119.92 64.37 119.677 64.3233 119.47 64.23C119.263 64.1367 119.093 64.0133 118.96 63.86C118.827 63.7 118.73 63.52 118.67 63.32C118.61 63.1133 118.583 62.8967 118.59 62.67H122.46C122.473 62.3567 122.443 62.0267 122.37 61.68C122.303 61.3333 122.177 61.0133 121.99 60.72C121.81 60.4267 121.567 60.1867 121.26 60C120.96 59.8067 120.58 59.71 120.12 59.71C119.767 59.71 119.44 59.7767 119.14 59.91C118.847 60.0433 118.59 60.23 118.37 60.47C118.157 60.71 117.99 60.9933 117.87 61.32C117.75 61.6467 117.69 62.0067 117.69 62.4C117.703 62.7933 117.76 63.1567 117.86 63.49C117.967 63.8233 118.123 64.11 118.33 64.35C118.537 64.59 118.79 64.7767 119.09 64.91C119.397 65.0433 119.757 65.11 120.17 65.11C120.757 65.11 121.243 64.9633 121.63 64.67C122.017 64.3767 122.267 63.94 122.38 63.36Z" fill="#D6D6D6"/>
<path d="M337.125 34C341.268 34 344.625 30.6426 344.625 26.5C344.625 22.3574 341.268 19 337.125 19C332.982 19 329.625 22.3574 329.625 26.5C329.625 30.6426 332.982 34 337.125 34ZM342.375 35.875H341.396C340.096 36.4727 338.648 36.8125 337.125 36.8125C335.602 36.8125 334.16 36.4727 332.854 35.875H331.875C327.527 35.875 324 39.4023 324 43.75V46.1875C324 47.7402 325.26 49 326.812 49H347.438C348.99 49 350.25 47.7402 350.25 46.1875V43.75C350.25 39.4023 346.723 35.875 342.375 35.875Z" fill="#D6D6D6"/>
<path d="M323.73 61.28V58.66H325.59C326.13 58.66 326.523 58.7733 326.77 59C327.023 59.22 327.15 59.5433 327.15 59.97C327.15 60.3967 327.023 60.7233 326.77 60.95C326.523 61.1767 326.13 61.2867 325.59 61.28H323.73ZM322.78 57.86V65H323.73V62.08H325.91C326.63 62.0867 327.173 61.9033 327.54 61.53C327.913 61.1567 328.1 60.6367 328.1 59.97C328.1 59.3033 327.913 58.7867 327.54 58.42C327.173 58.0467 326.63 57.86 325.91 57.86H322.78ZM329.094 59.83V65H329.944V62.7C329.944 62.3667 329.978 62.0733 330.044 61.82C330.111 61.56 330.218 61.34 330.364 61.16C330.511 60.98 330.704 60.8433 330.944 60.75C331.184 60.6567 331.474 60.61 331.814 60.61V59.71C331.354 59.6967 330.974 59.79 330.674 59.99C330.374 60.19 330.121 60.5 329.914 60.92H329.894V59.83H329.094ZM332.899 62.42C332.899 62.1067 332.939 61.83 333.019 61.59C333.105 61.3433 333.222 61.1367 333.369 60.97C333.515 60.8033 333.685 60.6767 333.879 60.59C334.079 60.5033 334.289 60.46 334.509 60.46C334.729 60.46 334.935 60.5033 335.129 60.59C335.329 60.6767 335.502 60.8033 335.649 60.97C335.795 61.1367 335.909 61.3433 335.989 61.59C336.075 61.83 336.119 62.1067 336.119 62.42C336.119 62.7333 336.075 63.0133 335.989 63.26C335.909 63.5 335.795 63.7033 335.649 63.87C335.502 64.03 335.329 64.1533 335.129 64.24C334.935 64.3267 334.729 64.37 334.509 64.37C334.289 64.37 334.079 64.3267 333.879 64.24C333.685 64.1533 333.515 64.03 333.369 63.87C333.222 63.7033 333.105 63.5 333.019 63.26C332.939 63.0133 332.899 62.7333 332.899 62.42ZM331.999 62.42C331.999 62.8 332.052 63.1533 332.159 63.48C332.265 63.8067 332.425 64.0933 332.639 64.34C332.852 64.58 333.115 64.77 333.429 64.91C333.742 65.0433 334.102 65.11 334.509 65.11C334.922 65.11 335.282 65.0433 335.589 64.91C335.902 64.77 336.165 64.58 336.379 64.34C336.592 64.0933 336.752 63.8067 336.859 63.48C336.965 63.1533 337.019 62.8 337.019 62.42C337.019 62.04 336.965 61.6867 336.859 61.36C336.752 61.0267 336.592 60.74 336.379 60.5C336.165 60.2533 335.902 60.06 335.589 59.92C335.282 59.78 334.922 59.71 334.509 59.71C334.102 59.71 333.742 59.78 333.429 59.92C333.115 60.06 332.852 60.2533 332.639 60.5C332.425 60.74 332.265 61.0267 332.159 61.36C332.052 61.6867 331.999 62.04 331.999 62.42ZM341.031 65H341.881V59.83H341.031V65ZM341.031 58.9H341.881V57.86H341.031V58.9ZM338.371 60.58V65H339.221V60.58H340.221V59.83H339.221V59.11C339.221 58.8833 339.278 58.73 339.391 58.65C339.504 58.57 339.664 58.53 339.871 58.53C339.944 58.53 340.024 58.5367 340.111 58.55C340.198 58.5567 340.278 58.5733 340.351 58.6V57.86C340.271 57.8333 340.178 57.8133 340.071 57.8C339.971 57.7867 339.881 57.78 339.801 57.78C339.334 57.78 338.978 57.89 338.731 58.11C338.491 58.3233 338.371 58.64 338.371 59.06V59.83H337.501V60.58H338.371ZM343.247 57.86V65H344.097V57.86H343.247ZM349.003 61.92H346.033C346.047 61.72 346.09 61.5333 346.163 61.36C346.237 61.18 346.337 61.0233 346.463 60.89C346.59 60.7567 346.74 60.6533 346.913 60.58C347.093 60.5 347.293 60.46 347.513 60.46C347.727 60.46 347.92 60.5 348.093 60.58C348.273 60.6533 348.427 60.7567 348.553 60.89C348.687 61.0167 348.79 61.17 348.863 61.35C348.943 61.53 348.99 61.72 349.003 61.92ZM349.823 63.36H348.983C348.91 63.7 348.757 63.9533 348.523 64.12C348.297 64.2867 348.003 64.37 347.643 64.37C347.363 64.37 347.12 64.3233 346.913 64.23C346.707 64.1367 346.537 64.0133 346.403 63.86C346.27 63.7 346.173 63.52 346.113 63.32C346.053 63.1133 346.027 62.8967 346.033 62.67H349.903C349.917 62.3567 349.887 62.0267 349.813 61.68C349.747 61.3333 349.62 61.0133 349.433 60.72C349.253 60.4267 349.01 60.1867 348.703 60C348.403 59.8067 348.023 59.71 347.563 59.71C347.21 59.71 346.883 59.7767 346.583 59.91C346.29 60.0433 346.033 60.23 345.813 60.47C345.6 60.71 345.433 60.9933 345.313 61.32C345.193 61.6467 345.133 62.0067 345.133 62.4C345.147 62.7933 345.203 63.1567 345.303 63.49C345.41 63.8233 345.567 64.11 345.773 64.35C345.98 64.59 346.233 64.7767 346.533 64.91C346.84 65.0433 347.2 65.11 347.613 65.11C348.2 65.11 348.687 64.9633 349.073 64.67C349.46 64.3767 349.71 63.94 349.823 63.36Z" fill="#D6D6D6"/>
<g clip-path="url(#clip1_234_2843)">
<path d="M267.381 27.75C266.589 22.8664 264.721 19.4375 262.547 19.4375C260.373 19.4375 258.505 22.8664 257.713 27.75H267.381ZM257.303 33C257.303 34.2141 257.368 35.3789 257.483 36.5H267.605C267.72 35.3789 267.785 34.2141 267.785 33C267.785 31.7859 267.72 30.6211 267.605 29.5H257.483C257.368 30.6211 257.303 31.7859 257.303 33ZM275.039 27.75C273.477 24.0367 270.314 21.1656 266.409 20.0062C267.742 21.8547 268.659 24.6383 269.14 27.75H275.039ZM258.679 20.0062C254.779 21.1656 251.611 24.0367 250.054 27.75H255.954C256.429 24.6383 257.347 21.8547 258.679 20.0062ZM275.624 29.5H269.358C269.473 30.6484 269.539 31.8242 269.539 33C269.539 34.1758 269.473 35.3516 269.358 36.5H275.618C275.919 35.3789 276.088 34.2141 276.088 33C276.088 31.7859 275.919 30.6211 275.624 29.5ZM255.555 33C255.555 31.8242 255.62 30.6484 255.735 29.5H249.47C249.175 30.6211 249 31.7859 249 33C249 34.2141 249.175 35.3789 249.47 36.5H255.73C255.62 35.3516 255.555 34.1758 255.555 33ZM257.713 38.25C258.505 43.1336 260.373 46.5625 262.547 46.5625C264.721 46.5625 266.589 43.1336 267.381 38.25H257.713ZM266.414 45.9937C270.314 44.8344 273.482 41.9633 275.045 38.25H269.145C268.665 41.3617 267.747 44.1453 266.414 45.9937ZM250.054 38.25C251.616 41.9633 254.779 44.8344 258.685 45.9937C257.352 44.1453 256.434 41.3617 255.954 38.25H250.054Z" fill="#D6D6D6"/>
</g>
<path d="M238.8 60.01H239.75C239.697 59.63 239.583 59.2967 239.41 59.01C239.237 58.7167 239.02 58.4733 238.76 58.28C238.5 58.0867 238.203 57.94 237.87 57.84C237.537 57.74 237.183 57.69 236.81 57.69C236.263 57.69 235.777 57.79 235.35 57.99C234.93 58.1833 234.577 58.45 234.29 58.79C234.01 59.13 233.797 59.53 233.65 59.99C233.503 60.4433 233.43 60.93 233.43 61.45C233.43 61.97 233.497 62.4567 233.63 62.91C233.77 63.3633 233.977 63.7567 234.25 64.09C234.523 64.4233 234.867 64.6867 235.28 64.88C235.693 65.0667 236.177 65.16 236.73 65.16C237.643 65.16 238.363 64.91 238.89 64.41C239.417 63.91 239.727 63.21 239.82 62.31H238.87C238.85 62.6033 238.79 62.8767 238.69 63.13C238.59 63.3833 238.45 63.6033 238.27 63.79C238.097 63.97 237.887 64.1133 237.64 64.22C237.4 64.32 237.123 64.37 236.81 64.37C236.383 64.37 236.017 64.29 235.71 64.13C235.403 63.97 235.15 63.7567 234.95 63.49C234.757 63.2167 234.613 62.9 234.52 62.54C234.427 62.1733 234.38 61.7867 234.38 61.38C234.38 61.0067 234.427 60.6467 234.52 60.3C234.613 59.9533 234.757 59.6467 234.95 59.38C235.15 59.1067 235.4 58.89 235.7 58.73C236.007 58.57 236.373 58.49 236.8 58.49C237.3 58.49 237.73 58.6167 238.09 58.87C238.457 59.1233 238.693 59.5033 238.8 60.01ZM241.477 62.42C241.477 62.1067 241.517 61.83 241.597 61.59C241.683 61.3433 241.8 61.1367 241.947 60.97C242.093 60.8033 242.263 60.6767 242.457 60.59C242.657 60.5033 242.867 60.46 243.087 60.46C243.307 60.46 243.513 60.5033 243.707 60.59C243.907 60.6767 244.08 60.8033 244.227 60.97C244.373 61.1367 244.487 61.3433 244.567 61.59C244.653 61.83 244.697 62.1067 244.697 62.42C244.697 62.7333 244.653 63.0133 244.567 63.26C244.487 63.5 244.373 63.7033 244.227 63.87C244.08 64.03 243.907 64.1533 243.707 64.24C243.513 64.3267 243.307 64.37 243.087 64.37C242.867 64.37 242.657 64.3267 242.457 64.24C242.263 64.1533 242.093 64.03 241.947 63.87C241.8 63.7033 241.683 63.5 241.597 63.26C241.517 63.0133 241.477 62.7333 241.477 62.42ZM240.577 62.42C240.577 62.8 240.63 63.1533 240.737 63.48C240.843 63.8067 241.003 64.0933 241.217 64.34C241.43 64.58 241.693 64.77 242.007 64.91C242.32 65.0433 242.68 65.11 243.087 65.11C243.5 65.11 243.86 65.0433 244.167 64.91C244.48 64.77 244.743 64.58 244.957 64.34C245.17 64.0933 245.33 63.8067 245.437 63.48C245.543 63.1533 245.597 62.8 245.597 62.42C245.597 62.04 245.543 61.6867 245.437 61.36C245.33 61.0267 245.17 60.74 244.957 60.5C244.743 60.2533 244.48 60.06 244.167 59.92C243.86 59.78 243.5 59.71 243.087 59.71C242.68 59.71 242.32 59.78 242.007 59.92C241.693 60.06 241.43 60.2533 241.217 60.5C241.003 60.74 240.843 61.0267 240.737 61.36C240.63 61.6867 240.577 62.04 240.577 62.42ZM246.599 59.83V65H247.449V62.08C247.449 61.8467 247.479 61.6333 247.539 61.44C247.606 61.24 247.702 61.0667 247.829 60.92C247.956 60.7733 248.112 60.66 248.299 60.58C248.492 60.5 248.719 60.46 248.979 60.46C249.306 60.46 249.562 60.5533 249.749 60.74C249.936 60.9267 250.029 61.18 250.029 61.5V65H250.879V61.6C250.879 61.32 250.849 61.0667 250.789 60.84C250.736 60.6067 250.639 60.4067 250.499 60.24C250.359 60.0733 250.176 59.9433 249.949 59.85C249.722 59.7567 249.439 59.71 249.099 59.71C248.332 59.71 247.772 60.0233 247.419 60.65H247.399V59.83H246.599ZM252.156 59.83V65H253.006V62.08C253.006 61.8467 253.036 61.6333 253.096 61.44C253.162 61.24 253.259 61.0667 253.386 60.92C253.512 60.7733 253.669 60.66 253.856 60.58C254.049 60.5 254.276 60.46 254.536 60.46C254.862 60.46 255.119 60.5533 255.306 60.74C255.492 60.9267 255.586 61.18 255.586 61.5V65H256.436V61.6C256.436 61.32 256.406 61.0667 256.346 60.84C256.292 60.6067 256.196 60.4067 256.056 60.24C255.916 60.0733 255.732 59.9433 255.506 59.85C255.279 59.7567 254.996 59.71 254.656 59.71C253.889 59.71 253.329 60.0233 252.976 60.65H252.956V59.83H252.156ZM261.302 61.92H258.332C258.346 61.72 258.389 61.5333 258.462 61.36C258.536 61.18 258.636 61.0233 258.762 60.89C258.889 60.7567 259.039 60.6533 259.212 60.58C259.392 60.5 259.592 60.46 259.812 60.46C260.026 60.46 260.219 60.5 260.392 60.58C260.572 60.6533 260.726 60.7567 260.852 60.89C260.986 61.0167 261.089 61.17 261.162 61.35C261.242 61.53 261.289 61.72 261.302 61.92ZM262.122 63.36H261.282C261.209 63.7 261.056 63.9533 260.822 64.12C260.596 64.2867 260.302 64.37 259.942 64.37C259.662 64.37 259.419 64.3233 259.212 64.23C259.006 64.1367 258.836 64.0133 258.702 63.86C258.569 63.7 258.472 63.52 258.412 63.32C258.352 63.1133 258.326 62.8967 258.332 62.67H262.202C262.216 62.3567 262.186 62.0267 262.112 61.68C262.046 61.3333 261.919 61.0133 261.732 60.72C261.552 60.4267 261.309 60.1867 261.002 60C260.702 59.8067 260.322 59.71 259.862 59.71C259.509 59.71 259.182 59.7767 258.882 59.91C258.589 60.0433 258.332 60.23 258.112 60.47C257.899 60.71 257.732 60.9933 257.612 61.32C257.492 61.6467 257.432 62.0067 257.432 62.4C257.446 62.7933 257.502 63.1567 257.602 63.49C257.709 63.8233 257.866 64.11 258.072 64.35C258.279 64.59 258.532 64.7767 258.832 64.91C259.139 65.0433 259.499 65.11 259.912 65.11C260.499 65.11 260.986 64.9633 261.372 64.67C261.759 64.3767 262.009 63.94 262.122 63.36ZM266.593 61.49H267.473C267.44 61.1833 267.36 60.92 267.233 60.7C267.107 60.4733 266.943 60.2867 266.743 60.14C266.55 59.9933 266.323 59.8867 266.063 59.82C265.81 59.7467 265.537 59.71 265.243 59.71C264.837 59.71 264.48 59.7833 264.173 59.93C263.867 60.07 263.61 60.2667 263.403 60.52C263.203 60.7667 263.053 61.06 262.953 61.4C262.853 61.7333 262.803 62.0933 262.803 62.48C262.803 62.8667 262.853 63.2233 262.953 63.55C263.06 63.87 263.213 64.1467 263.413 64.38C263.62 64.6133 263.873 64.7933 264.173 64.92C264.48 65.0467 264.83 65.11 265.223 65.11C265.883 65.11 266.403 64.9367 266.783 64.59C267.17 64.2433 267.41 63.75 267.503 63.11H266.633C266.58 63.51 266.433 63.82 266.193 64.04C265.96 64.26 265.633 64.37 265.213 64.37C264.947 64.37 264.717 64.3167 264.523 64.21C264.33 64.1033 264.173 63.9633 264.053 63.79C263.933 63.61 263.843 63.4067 263.783 63.18C263.73 62.9533 263.703 62.72 263.703 62.48C263.703 62.22 263.73 61.97 263.783 61.73C263.837 61.4833 263.923 61.2667 264.043 61.08C264.17 60.8933 264.337 60.7433 264.543 60.63C264.75 60.5167 265.007 60.46 265.313 60.46C265.673 60.46 265.96 60.55 266.173 60.73C266.387 60.91 266.527 61.1633 266.593 61.49ZM269.634 59.83V58.28H268.784V59.83H267.904V60.58H268.784V63.87C268.784 64.11 268.808 64.3033 268.854 64.45C268.901 64.5967 268.971 64.71 269.064 64.79C269.164 64.87 269.291 64.9267 269.444 64.96C269.604 64.9867 269.794 65 270.014 65H270.664V64.25H270.274C270.141 64.25 270.031 64.2467 269.944 64.24C269.864 64.2267 269.801 64.2033 269.754 64.17C269.708 64.1367 269.674 64.09 269.654 64.03C269.641 63.97 269.634 63.89 269.634 63.79V60.58H270.664V59.83H269.634ZM272.509 58.9V57.86H271.659V58.9H272.509ZM271.659 59.83V65H272.509V59.83H271.659ZM274.446 62.42C274.446 62.1067 274.486 61.83 274.566 61.59C274.652 61.3433 274.769 61.1367 274.916 60.97C275.062 60.8033 275.232 60.6767 275.426 60.59C275.626 60.5033 275.836 60.46 276.056 60.46C276.276 60.46 276.482 60.5033 276.676 60.59C276.876 60.6767 277.049 60.8033 277.196 60.97C277.342 61.1367 277.456 61.3433 277.536 61.59C277.622 61.83 277.666 62.1067 277.666 62.42C277.666 62.7333 277.622 63.0133 277.536 63.26C277.456 63.5 277.342 63.7033 277.196 63.87C277.049 64.03 276.876 64.1533 276.676 64.24C276.482 64.3267 276.276 64.37 276.056 64.37C275.836 64.37 275.626 64.3267 275.426 64.24C275.232 64.1533 275.062 64.03 274.916 63.87C274.769 63.7033 274.652 63.5 274.566 63.26C274.486 63.0133 274.446 62.7333 274.446 62.42ZM273.546 62.42C273.546 62.8 273.599 63.1533 273.706 63.48C273.812 63.8067 273.972 64.0933 274.186 64.34C274.399 64.58 274.662 64.77 274.976 64.91C275.289 65.0433 275.649 65.11 276.056 65.11C276.469 65.11 276.829 65.0433 277.136 64.91C277.449 64.77 277.712 64.58 277.926 64.34C278.139 64.0933 278.299 63.8067 278.406 63.48C278.512 63.1533 278.566 62.8 278.566 62.42C278.566 62.04 278.512 61.6867 278.406 61.36C278.299 61.0267 278.139 60.74 277.926 60.5C277.712 60.2533 277.449 60.06 277.136 59.92C276.829 59.78 276.469 59.71 276.056 59.71C275.649 59.71 275.289 59.78 274.976 59.92C274.662 60.06 274.399 60.2533 274.186 60.5C273.972 60.74 273.812 61.0267 273.706 61.36C273.599 61.6867 273.546 62.04 273.546 62.42ZM279.568 59.83V65H280.418V62.08C280.418 61.8467 280.448 61.6333 280.508 61.44C280.574 61.24 280.671 61.0667 280.798 60.92C280.924 60.7733 281.081 60.66 281.268 60.58C281.461 60.5 281.688 60.46 281.948 60.46C282.274 60.46 282.531 60.5533 282.718 60.74C282.904 60.9267 282.998 61.18 282.998 61.5V65H283.848V61.6C283.848 61.32 283.818 61.0667 283.758 60.84C283.704 60.6067 283.608 60.4067 283.468 60.24C283.328 60.0733 283.144 59.9433 282.918 59.85C282.691 59.7567 282.408 59.71 282.068 59.71C281.301 59.71 280.741 60.0233 280.388 60.65H280.368V59.83H279.568ZM285.644 63.37H284.794C284.808 63.69 284.874 63.9633 284.994 64.19C285.114 64.41 285.274 64.59 285.474 64.73C285.674 64.8633 285.904 64.96 286.164 65.02C286.424 65.08 286.698 65.11 286.984 65.11C287.244 65.11 287.504 65.0833 287.764 65.03C288.031 64.9833 288.268 64.8967 288.474 64.77C288.688 64.6433 288.858 64.4767 288.984 64.27C289.118 64.0633 289.184 63.8033 289.184 63.49C289.184 63.2433 289.134 63.0367 289.034 62.87C288.941 62.7033 288.814 62.5667 288.654 62.46C288.501 62.3467 288.321 62.2567 288.114 62.19C287.914 62.1233 287.708 62.0667 287.494 62.02C287.294 61.9733 287.094 61.93 286.894 61.89C286.694 61.8433 286.514 61.79 286.354 61.73C286.194 61.6633 286.061 61.5833 285.954 61.49C285.854 61.39 285.804 61.2667 285.804 61.12C285.804 60.9867 285.838 60.88 285.904 60.8C285.971 60.7133 286.058 60.6467 286.164 60.6C286.271 60.5467 286.388 60.51 286.514 60.49C286.648 60.47 286.778 60.46 286.904 60.46C287.044 60.46 287.181 60.4767 287.314 60.51C287.454 60.5367 287.581 60.5833 287.694 60.65C287.808 60.7167 287.901 60.8067 287.974 60.92C288.048 61.0267 288.091 61.1633 288.104 61.33H288.954C288.934 61.0167 288.868 60.7567 288.754 60.55C288.641 60.3367 288.488 60.17 288.294 60.05C288.108 59.9233 287.891 59.8367 287.644 59.79C287.398 59.7367 287.128 59.71 286.834 59.71C286.608 59.71 286.378 59.74 286.144 59.8C285.918 59.8533 285.711 59.94 285.524 60.06C285.344 60.1733 285.194 60.3233 285.074 60.51C284.961 60.6967 284.904 60.92 284.904 61.18C284.904 61.5133 284.988 61.7733 285.154 61.96C285.321 62.1467 285.528 62.2933 285.774 62.4C286.028 62.5 286.301 62.58 286.594 62.64C286.888 62.6933 287.158 62.7567 287.404 62.83C287.658 62.8967 287.868 62.9867 288.034 63.1C288.201 63.2133 288.284 63.38 288.284 63.6C288.284 63.76 288.244 63.8933 288.164 64C288.084 64.1 287.981 64.1767 287.854 64.23C287.734 64.2833 287.601 64.32 287.454 64.34C287.308 64.36 287.168 64.37 287.034 64.37C286.861 64.37 286.691 64.3533 286.524 64.32C286.364 64.2867 286.218 64.2333 286.084 64.16C285.958 64.08 285.854 63.9767 285.774 63.85C285.694 63.7167 285.651 63.5567 285.644 63.37Z" fill="#D6D6D6"/>
<defs>
<filter id="filter0_bd_234_2843" x="-5" y="0" width="385" height="81" filterUnits="userSpaceOnUse" color-interpolation-filters="sRGB">
<feFlood flood-opacity="0" result="BackgroundImageFix"/>
<feGaussianBlur in="BackgroundImage" stdDeviation="1.5"/>
<feComposite in2="SourceAlpha" operator="in" result="effect1_backgroundBlur_234_2843"/>
<feColorMatrix in="SourceAlpha" type="matrix" values="0 0 0 0 0 0 0 0 0 0 0 0 0 0 0 0 0 0 127 0" result="hardAlpha"/>
<feOffset dy="-3"/>
<feGaussianBlur stdDeviation="2.5"/>
<feComposite in2="hardAlpha" operator="out"/>
<feColorMatrix type="matrix" values="0 0 0 0 0.101961 0 0 0 0 0.227451 0 0 0 0 0.207843 0 0 0 0.07 0"/>
<feBlend mode="normal" in2="effect1_backgroundBlur_234_2843" result="effect2_dropShadow_234_2843"/>
<feBlend mode="normal" in="SourceGraphic" in2="effect2_dropShadow_234_2843" result="shape"/>
</filter>
<clipPath id="clip0_234_2843">
<rect width="28" height="28" fill="white" transform="translate(93 19)"/>
</clipPath>
<clipPath id="clip1_234_2843">
<rect width="27.0935" height="28" fill="white" transform="translate(249 19)"/>
</clipPath>
</defs>
</svg>