<svg width="50" height="30" viewBox="0 0 38 22" fill="none" xmlns="http://www.w3.org/2000/svg">
  <path d="M17.9533 13.144C17.9533 13.472 18.0093 13.752 18.1213 13.984C18.2333 14.216 18.3893 14.408 18.5893 14.56C18.7893 14.704 19.0173 14.812 19.2733 14.884C19.5373 14.948 19.8213 14.98 20.1253 14.98C20.4533 14.98 20.7333 14.944 20.9653 14.872C21.1973 14.792 21.3853 14.692 21.5293 14.572C21.6733 14.452 21.7773 14.316 21.8413 14.164C21.9053 14.004 21.9373 13.844 21.9373 13.684C21.9373 13.356 21.8613 13.116 21.7093 12.964C21.5653 12.804 21.4053 12.692 21.2293 12.628C20.9253 12.516 20.5693 12.412 20.1613 12.316C19.7613 12.212 19.2653 12.08 18.6733 11.92C18.3053 11.824 17.9973 11.7 17.7493 11.548C17.5093 11.388 17.3173 11.212 17.1733 11.02C17.0293 10.828 16.9253 10.624 16.8613 10.408C16.8053 10.192 16.7773 9.972 16.7773 9.748C16.7773 9.316 16.8653 8.944 17.0413 8.632C17.2253 8.312 17.4653 8.048 17.7613 7.84C18.0573 7.632 18.3933 7.48 18.7693 7.384C19.1453 7.28 19.5253 7.228 19.9093 7.228C20.3573 7.228 20.7773 7.288 21.1693 7.408C21.5693 7.52 21.9173 7.692 22.2133 7.924C22.5173 8.156 22.7573 8.444 22.9333 8.788C23.1093 9.124 23.1973 9.516 23.1973 9.964H21.6973C21.6573 9.412 21.4693 9.024 21.1333 8.8C20.7973 8.568 20.3693 8.452 19.8493 8.452C19.6733 8.452 19.4933 8.472 19.3093 8.512C19.1253 8.544 18.9573 8.604 18.8053 8.692C18.6533 8.772 18.5253 8.884 18.4213 9.028C18.3253 9.172 18.2773 9.352 18.2773 9.568C18.2773 9.872 18.3693 10.112 18.5533 10.288C18.7453 10.456 18.9933 10.584 19.2973 10.672C19.3293 10.68 19.4533 10.716 19.6693 10.78C19.8933 10.836 20.1413 10.9 20.4133 10.972C20.6853 11.044 20.9493 11.116 21.2053 11.188C21.4693 11.252 21.6573 11.3 21.7693 11.332C22.0493 11.42 22.2933 11.54 22.5013 11.692C22.7093 11.844 22.8813 12.02 23.0173 12.22C23.1613 12.412 23.2653 12.62 23.3293 12.844C23.4013 13.068 23.4373 13.292 23.4373 13.516C23.4373 13.996 23.3373 14.408 23.1373 14.752C22.9453 15.088 22.6893 15.364 22.3693 15.58C22.0493 15.796 21.6853 15.952 21.2773 16.048C20.8693 16.152 20.4533 16.204 20.0293 16.204C19.5413 16.204 19.0813 16.144 18.6493 16.024C18.2173 15.904 17.8413 15.72 17.5213 15.472C17.2013 15.224 16.9453 14.908 16.7533 14.524C16.5613 14.132 16.4613 13.672 16.4533 13.144H17.9533ZM26.9946 16.168C26.4986 16.168 26.0546 16.088 25.6626 15.928C25.2786 15.76 24.9506 15.532 24.6786 15.244C24.4146 14.956 24.2106 14.612 24.0666 14.212C23.9306 13.812 23.8626 13.372 23.8626 12.892C23.8626 12.42 23.9306 11.984 24.0666 11.584C24.2106 11.184 24.4146 10.84 24.6786 10.552C24.9506 10.264 25.2786 10.04 25.6626 9.88C26.0546 9.712 26.4986 9.628 26.9946 9.628C27.4906 9.628 27.9306 9.712 28.3146 9.88C28.7066 10.04 29.0346 10.264 29.2986 10.552C29.5706 10.84 29.7746 11.184 29.9106 11.584C30.0546 11.984 30.1266 12.42 30.1266 12.892C30.1266 13.372 30.0546 13.812 29.9106 14.212C29.7746 14.612 29.5706 14.956 29.2986 15.244C29.0346 15.532 28.7066 15.76 28.3146 15.928C27.9306 16.088 27.4906 16.168 26.9946 16.168ZM26.9946 15.088C27.2986 15.088 27.5626 15.024 27.7866 14.896C28.0106 14.768 28.1946 14.6 28.3386 14.392C28.4826 14.184 28.5866 13.952 28.6506 13.696C28.7226 13.432 28.7586 13.164 28.7586 12.892C28.7586 12.628 28.7226 12.364 28.6506 12.1C28.5866 11.836 28.4826 11.604 28.3386 11.404C28.1946 11.196 28.0106 11.028 27.7866 10.9C27.5626 10.772 27.2986 10.708 26.9946 10.708C26.6906 10.708 26.4266 10.772 26.2026 10.9C25.9786 11.028 25.7946 11.196 25.6506 11.404C25.5066 11.604 25.3986 11.836 25.3266 12.1C25.2626 12.364 25.2306 12.628 25.2306 12.892C25.2306 13.164 25.2626 13.432 25.3266 13.696C25.3986 13.952 25.5066 14.184 25.6506 14.392C25.7946 14.6 25.9786 14.768 26.2026 14.896C26.4266 15.024 26.6906 15.088 26.9946 15.088ZM30.8558 9.796H32.1398V10.996H32.1638C32.2038 10.828 32.2798 10.664 32.3918 10.504C32.5118 10.344 32.6518 10.2 32.8118 10.072C32.9798 9.936 33.1638 9.828 33.3638 9.748C33.5638 9.668 33.7678 9.628 33.9758 9.628C34.1358 9.628 34.2438 9.632 34.2998 9.64C34.3638 9.648 34.4278 9.656 34.4918 9.664V10.984C34.3958 10.968 34.2958 10.956 34.1918 10.948C34.0958 10.932 33.9998 10.924 33.9038 10.924C33.6718 10.924 33.4518 10.972 33.2438 11.068C33.0438 11.156 32.8678 11.292 32.7158 11.476C32.5638 11.652 32.4438 11.872 32.3558 12.136C32.2678 12.4 32.2238 12.704 32.2238 13.048V16H30.8558V9.796ZM34.0426 9.796H35.0746V7.936H36.4426V9.796H37.6786V10.816H36.4426V14.128C36.4426 14.272 36.4466 14.396 36.4546 14.5C36.4706 14.604 36.4986 14.692 36.5386 14.764C36.5866 14.836 36.6546 14.892 36.7426 14.932C36.8306 14.964 36.9506 14.98 37.1026 14.98C37.1986 14.98 37.2946 14.98 37.3906 14.98C37.4866 14.972 37.5826 14.956 37.6786 14.932V15.988C37.5266 16.004 37.3786 16.02 37.2346 16.036C37.0906 16.052 36.9426 16.06 36.7906 16.06C36.4306 16.06 36.1386 16.028 35.9146 15.964C35.6986 15.892 35.5266 15.792 35.3986 15.664C35.2786 15.528 35.1946 15.36 35.1466 15.16C35.1066 14.96 35.0826 14.732 35.0746 14.476V10.816H34.0426V9.796Z" fill="#00D6B6" />
  <path d="M4.94014 16.6429L2.73853 18.9059C2.61571 19.0314 2.41657 19.0314 2.29372 18.9059L0.0921138 16.6429C-0.0307046 16.5174 -0.0307046 16.3138 0.0921138 16.1883L0.277416 15.9989C0.400234 15.8734 0.599375 15.8734 0.72222 15.9989L2.07058 17.3898V7.32143C2.07058 7.14392 2.2114 7 2.38509 7H2.64719C2.82088 7 2.9617 7.14392 2.9617 7.32143V17.3898L4.31003 15.9989C4.43285 15.8734 4.63199 15.8734 4.75484 15.9989L4.94014 16.1883C5.06298 16.3138 5.06298 16.5174 4.94014 16.6429ZM9.64516 14.3929V14.1786C9.64516 14.0011 9.50434 13.8572 9.33065 13.8572H6.60485C6.43115 13.8572 6.29033 14.0011 6.29033 14.1786V14.3929C6.29033 14.5704 6.43115 14.7143 6.60485 14.7143H9.33065C9.50434 14.7143 9.64516 14.5704 9.64516 14.3929ZM11.3226 11.8214V11.6071C11.3226 11.4296 11.1818 11.2857 11.0081 11.2857H6.60485C6.43115 11.2857 6.29033 11.4296 6.29033 11.6071V11.8214C6.29033 11.9989 6.43115 12.1429 6.60485 12.1429H11.0081C11.1818 12.1429 11.3226 11.9989 11.3226 11.8214ZM13 9.25V9.03572C13 8.85821 12.8592 8.71429 12.6855 8.71429H6.60485C6.43115 8.71429 6.29033 8.85821 6.29033 9.03572V9.25C6.29033 9.42751 6.43115 9.57143 6.60485 9.57143H12.6855C12.8592 9.57143 13 9.42751 13 9.25ZM7.96775 16.9643V16.75C7.96775 16.5725 7.82692 16.4286 7.65323 16.4286H6.60485C6.43115 16.4286 6.29033 16.5725 6.29033 16.75V16.9643C6.29033 17.1418 6.43115 17.2857 6.60485 17.2857H7.65323C7.82692 17.2857 7.96775 17.1418 7.96775 16.9643Z" fill="#00D6B6" />
</svg>